<svg width="50" height="50" viewBox="0 0 50 50" fill="none" xmlns="http://www.w3.org/2000/svg">
<circle cx="25" cy="25" r="25" fill="white"/>
<g clip-path="url(#clip0_1_1095)">
<path d="M34.3578 17.3702L29.6062 12.6186C29.5302 12.5427 29.4272 12.5 29.3198 12.5H16.7928C16.0931 12.5 15.5239 13.0692 15.5239 13.7689V36.2311C15.5239 36.9308 16.0931 37.5 16.7928 37.5H33.2075C33.9072 37.5 34.4764 36.9308 34.4764 36.2311V17.6566C34.4764 17.5492 34.4338 17.4462 34.3578 17.3702ZM29.7248 13.8826L33.0938 17.2516H30.1838C29.9307 17.2516 29.7248 17.0457 29.7248 16.7927V13.8826ZM33.2075 36.6901H16.7928C16.5397 36.6901 16.3339 36.4842 16.3339 36.2311V13.7689C16.3339 13.5158 16.5397 13.3099 16.7928 13.3099H28.9149V16.7927C28.9149 17.4923 29.4841 18.0616 30.1838 18.0616H33.6665V36.2311C33.6665 36.4842 33.4606 36.6901 33.2075 36.6901Z" fill="#343EA8"/>
<path d="M18.5207 15.9017H21.5444C21.7681 15.9017 21.9494 15.7204 21.9494 15.4968C21.9494 15.2731 21.7681 15.0918 21.5444 15.0918H18.5207C18.297 15.0918 18.1157 15.2731 18.1157 15.4968C18.1157 15.7204 18.297 15.9017 18.5207 15.9017Z" fill="#343EA8"/>
<path d="M18.5207 18.0616H23.2723C23.496 18.0616 23.6773 17.8803 23.6773 17.6567C23.6773 17.433 23.496 17.2517 23.2723 17.2517H18.5207C18.297 17.2517 18.1157 17.433 18.1157 17.6567C18.1157 17.8803 18.297 18.0616 18.5207 18.0616Z" fill="#343EA8"/>
<path d="M22.0034 21.1122C22.0034 21.3359 22.1847 21.5172 22.4084 21.5172H27.592C27.8156 21.5172 27.9969 21.3359 27.9969 21.1122C27.9969 20.8886 27.8156 20.7073 27.592 20.7073H22.4084C22.1847 20.7073 22.0034 20.8886 22.0034 21.1122Z" fill="#343EA8"/>
<path d="M31.4797 22.8672H18.5207C18.297 22.8672 18.1157 23.0485 18.1157 23.2722C18.1157 23.4958 18.297 23.6771 18.5207 23.6771H31.4797C31.7033 23.6771 31.8846 23.4958 31.8846 23.2722C31.8846 23.0485 31.7033 22.8672 31.4797 22.8672Z" fill="#343EA8"/>
<path d="M26.2959 30.6426H23.2722C23.0485 30.6426 22.8672 30.8239 22.8672 31.0475C22.8672 31.2712 23.0485 31.4525 23.2722 31.4525H26.2959C26.5196 31.4525 26.7009 31.2712 26.7009 31.0475C26.7009 30.8239 26.5196 30.6426 26.2959 30.6426Z" fill="#343EA8"/>
<path d="M26.2959 32.8025H23.2722C23.0485 32.8025 22.8672 32.9838 22.8672 33.2075C22.8672 33.4311 23.0485 33.6124 23.2722 33.6124H26.2959C26.5196 33.6124 26.7009 33.4311 26.7009 33.2075C26.7009 32.9838 26.5196 32.8025 26.2959 32.8025Z" fill="#343EA8"/>
<path d="M31.4797 25.0271H18.5207C18.297 25.0271 18.1157 25.2084 18.1157 25.4321C18.1157 25.6557 18.297 25.837 18.5207 25.837H31.4797C31.7033 25.837 31.8846 25.6557 31.8846 25.4321C31.8846 25.2084 31.7033 25.0271 31.4797 25.0271Z" fill="#343EA8"/>
<path d="M31.4797 27.1868H18.5207C18.297 27.1868 18.1157 27.3681 18.1157 27.5917C18.1157 27.8154 18.297 27.9967 18.5207 27.9967H31.4797C31.7033 27.9967 31.8846 27.8154 31.8846 27.5917C31.8846 27.3681 31.7033 27.1868 31.4797 27.1868Z" fill="#343EA8"/>
<path d="M29.752 30.2107C28.5759 30.2107 27.6191 31.1675 27.6191 32.3435C27.6191 33.5195 28.5759 34.4764 29.752 34.4764C30.928 34.4764 31.8848 33.5195 31.8848 32.3435C31.8848 31.1675 30.928 30.2107 29.752 30.2107ZM29.752 33.6664C29.0225 33.6664 28.4291 33.073 28.4291 32.3435C28.4291 31.6141 29.0225 31.0206 29.752 31.0206C30.4814 31.0206 31.0749 31.6141 31.0749 32.3435C31.0749 33.073 30.4814 33.6664 29.752 33.6664Z" fill="#343EA8"/>
<path d="M29.7519 31.6145C29.3499 31.6145 29.0229 31.9415 29.0229 32.3434C29.0229 32.7454 29.3499 33.0724 29.7519 33.0724C30.1538 33.0724 30.4808 32.7454 30.4808 32.3434C30.4808 31.9415 30.1538 31.6145 29.7519 31.6145Z" fill="#343EA8"/>
</g>
<defs>
<clipPath id="clip0_1_1095">
<rect width="25" height="25" fill="white" transform="translate(12.5 12.5)"/>
</clipPath>
</defs>
</svg>
