<svg width="10" height="14" viewBox="0 0 10 14" fill="none" xmlns="http://www.w3.org/2000/svg">
<path d="M9 0.5H1C0.734784 0.5 0.48043 0.605357 0.292893 0.792893C0.105357 0.98043 0 1.23478 0 1.5V12.5C0 12.7652 0.105357 13.0196 0.292893 13.2071C0.48043 13.3946 0.734784 13.5 1 13.5H9C9.26522 13.5 9.51957 13.3946 9.70711 13.2071C9.89464 13.0196 10 12.7652 10 12.5V1.5C10 1.23478 9.89464 0.98043 9.70711 0.792893C9.51957 0.605357 9.26522 0.5 9 0.5ZM9 1.5V4.5H1V1.5H9ZM1 8.5V5.5H9V8.5H1ZM1 12.5V9.5H9V12.5H1Z" fill="#343EA8"/>
</svg>
