<svg width="15" height="13" viewBox="0 0 15 13" fill="none" xmlns="http://www.w3.org/2000/svg">
<path d="M13.916 5.11133C13.9015 5.0458 13.873 4.98417 13.8326 4.93059C13.7921 4.87701 13.7407 4.83275 13.6817 4.80078L12.2871 4.02734C12.2124 3.87576 12.1282 3.72899 12.0352 3.58789L12.0645 1.99414C12.065 1.92729 12.0518 1.86105 12.0255 1.79956C11.9993 1.73806 11.9607 1.68263 11.9121 1.63672C11.2178 1.00717 10.3966 0.533655 9.50392 0.248047C9.43981 0.228058 9.37219 0.2219 9.30553 0.22998C9.23887 0.238061 9.17468 0.260195 9.1172 0.294922L7.75197 1.11523C7.58205 1.10938 7.41798 1.10938 7.24806 1.11523L5.88283 0.294922C5.82535 0.260195 5.76116 0.238061 5.6945 0.22998C5.62783 0.2219 5.56022 0.228058 5.49611 0.248047C4.60224 0.533872 3.78074 1.00958 3.0879 1.64258C3.03889 1.68691 2.99993 1.74122 2.97365 1.80186C2.94737 1.8625 2.93439 1.92806 2.93556 1.99414L2.96486 3.58789C2.87111 3.72852 2.78908 3.875 2.70705 4.02734L1.31251 4.80078C1.25434 4.83308 1.20382 4.87754 1.16438 4.93113C1.12495 4.98472 1.09753 5.04618 1.084 5.11133C0.884761 6.02639 0.884761 6.97361 1.084 7.88867C1.09855 7.9542 1.12701 8.01583 1.16745 8.06941C1.20788 8.12299 1.25935 8.16725 1.31837 8.19922L2.7129 8.97266C2.78766 9.12424 2.87181 9.27101 2.96486 9.41211L2.93556 11.0059C2.93503 11.0727 2.94828 11.1389 2.97449 11.2004C3.0007 11.2619 3.03931 11.3174 3.0879 11.3633C3.78226 11.9928 4.60342 12.4663 5.49611 12.752C5.56022 12.7719 5.62783 12.7781 5.6945 12.77C5.76116 12.7619 5.82535 12.7398 5.88283 12.7051L7.24806 11.8848H7.75197L9.12306 12.7051C9.19434 12.7519 9.278 12.7764 9.3633 12.7754C9.41095 12.7733 9.45817 12.7655 9.50392 12.752C10.3978 12.4661 11.2193 11.9904 11.9121 11.3574C11.9611 11.3131 12.0001 11.2588 12.0264 11.1981C12.0527 11.1375 12.0656 11.0719 12.0645 11.0059L12.0352 9.41211C12.1289 9.27148 12.211 9.125 12.293 8.97266L13.6875 8.19922C13.7457 8.16692 13.7962 8.12246 13.8356 8.06887C13.8751 8.01528 13.9025 7.95382 13.916 7.88867C14.1153 6.97361 14.1153 6.02639 13.916 5.11133ZM13.0371 7.48438L11.707 8.22266C11.6227 8.2717 11.5552 8.34527 11.5137 8.43359C11.4173 8.6333 11.3056 8.82528 11.1797 9.00781C11.1262 9.0897 11.0977 9.18539 11.0977 9.2832L11.1211 10.8008C10.6166 11.2303 10.0391 11.5657 9.41603 11.791L8.10939 11.0059C8.03646 10.9634 7.95354 10.9412 7.86915 10.9414H7.834C7.61169 10.959 7.38834 10.959 7.16603 10.9414C7.06996 10.9362 6.9744 10.9585 6.89064 11.0059L5.584 11.791C4.96166 11.5668 4.38427 11.2335 3.87892 10.8066L3.90236 9.2832C3.90232 9.18539 3.87382 9.0897 3.82033 9.00781C3.69655 8.82392 3.58498 8.63211 3.48634 8.43359C3.44308 8.34645 3.37605 8.27332 3.29298 8.22266L1.9629 7.48438C1.84568 6.83336 1.84568 6.16664 1.9629 5.51562L3.29298 4.77734C3.37736 4.7283 3.44481 4.65473 3.48634 4.56641C3.58274 4.3667 3.6944 4.17472 3.82033 3.99219C3.87382 3.9103 3.90232 3.81461 3.90236 3.7168L3.87892 2.19922C4.38338 1.76968 4.96092 1.43428 5.584 1.20898L6.89064 1.99414C6.97415 2.04211 7.0699 2.06452 7.16603 2.05859C7.38834 2.04101 7.61169 2.04101 7.834 2.05859C7.93007 2.06384 8.02563 2.04147 8.10939 1.99414L9.41603 1.20898C10.0384 1.43319 10.6158 1.76653 11.1211 2.19336L11.0977 3.7168C11.0977 3.81461 11.1262 3.9103 11.1797 3.99219C11.3035 4.17608 11.415 4.36789 11.5137 4.56641C11.5569 4.65355 11.624 4.72668 11.707 4.77734L13.0371 5.51562C13.1543 6.16664 13.1543 6.83336 13.0371 7.48438ZM7.50001 3.21875C6.85104 3.21875 6.21665 3.41119 5.67705 3.77174C5.13745 4.13229 4.71688 4.64475 4.46853 5.24432C4.22018 5.84389 4.1552 6.50364 4.28181 7.14014C4.40842 7.77664 4.72093 8.3613 5.17982 8.82019C5.63871 9.27909 6.22337 9.59159 6.85987 9.7182C7.49637 9.84481 8.15612 9.77983 8.75569 9.53148C9.35526 9.28313 9.86773 8.86256 10.2283 8.32297C10.5888 7.78337 10.7813 7.14897 10.7813 6.5C10.7813 5.62976 10.4356 4.79516 9.82021 4.17981C9.20485 3.56445 8.37026 3.21875 7.50001 3.21875ZM7.50001 8.84375C7.03646 8.84375 6.58332 8.70629 6.1979 8.44876C5.81247 8.19122 5.51206 7.82518 5.33467 7.39691C5.15728 6.96865 5.11086 6.4974 5.2013 6.04276C5.29173 5.58811 5.51495 5.1705 5.84273 4.84272C6.17051 4.51494 6.58813 4.29172 7.04277 4.20128C7.49741 4.11085 7.96866 4.15726 8.39693 4.33466C8.82519 4.51205 9.19124 4.81245 9.44877 5.19788C9.70631 5.58331 9.84376 6.03645 9.84376 6.5C9.84376 7.1216 9.59683 7.71774 9.1573 8.15728C8.71776 8.59682 8.12162 8.84375 7.50001 8.84375Z" fill="#343EA8"/>
</svg>
