<svg width="15" height="15" viewBox="0 0 15 15" fill="none" xmlns="http://www.w3.org/2000/svg">
<g clip-path="url(#clip0_144_1242)">
<path d="M1.875 0.9375H0.9375V13.125C0.9375 13.3736 1.03627 13.6121 1.21209 13.7879C1.3879 13.9637 1.62636 14.0625 1.875 14.0625H14.0625V13.125H1.875V0.9375Z" fill="#343EA8"/>
<path d="M14.0625 4.21875H10.7812V5.15625H12.4641L8.90625 8.71406L6.89531 6.69844C6.85174 6.6545 6.79989 6.61963 6.74277 6.59583C6.68565 6.57203 6.62438 6.55978 6.5625 6.55978C6.50062 6.55978 6.43935 6.57203 6.38223 6.59583C6.32511 6.61963 6.27326 6.6545 6.22969 6.69844L2.8125 10.1203L3.47344 10.7812L6.5625 7.69219L8.57344 9.70781C8.61701 9.75175 8.66886 9.78662 8.72598 9.81042C8.7831 9.83422 8.84437 9.84647 8.90625 9.84647C8.96813 9.84647 9.0294 9.83422 9.08652 9.81042C9.14364 9.78662 9.19549 9.75175 9.23906 9.70781L13.125 5.81719V7.5H14.0625V4.21875Z" fill="#343EA8"/>
</g>
<defs>
<clipPath id="clip0_144_1242">
<rect width="15" height="15" fill="white"/>
</clipPath>
</defs>
</svg>
