<svg width="14" height="14" viewBox="0 0 14 14" fill="none" xmlns="http://www.w3.org/2000/svg">
<g clip-path="url(#clip0_144_1264)">
<path d="M12.0312 12.6875V0.4375H1.96875V12.6875H0.4375V13.5625H13.5625V12.6875H12.0312ZM11.1562 12.6875H7.4375V10.9375H6.5625V12.6875H2.84375V1.3125H11.1562V12.6875Z" fill="#343EA8"/>
<path d="M4.375 8.3125H5.25V9.1875H4.375V8.3125ZM6.5625 8.3125H7.4375V9.1875H6.5625V8.3125ZM8.75 8.3125H9.625V9.1875H8.75V8.3125ZM4.375 5.6875H5.25V6.5625H4.375V5.6875ZM6.5625 5.6875H7.4375V6.5625H6.5625V5.6875ZM8.75 5.6875H9.625V6.5625H8.75V5.6875ZM4.375 3.0625H5.25V3.9375H4.375V3.0625ZM6.5625 3.0625H7.4375V3.9375H6.5625V3.0625ZM8.75 3.0625H9.625V3.9375H8.75V3.0625Z" fill="#343EA8"/>
</g>
<defs>
<clipPath id="clip0_144_1264">
<rect width="14" height="14" fill="white"/>
</clipPath>
</defs>
</svg>
