<svg width="14" height="12" viewBox="0 0 14 12" fill="none" xmlns="http://www.w3.org/2000/svg">
<path d="M12.6875 1.625C12.8035 1.625 12.9148 1.67109 12.9969 1.75314C13.0789 1.83519 13.125 1.94647 13.125 2.0625V9.9375C13.125 10.0535 13.0789 10.1648 12.9969 10.2469C12.9148 10.3289 12.8035 10.375 12.6875 10.375H1.3125C1.19647 10.375 1.08519 10.3289 1.00314 10.2469C0.921094 10.1648 0.875 10.0535 0.875 9.9375V2.0625C0.875 1.94647 0.921094 1.83519 1.00314 1.75314C1.08519 1.67109 1.19647 1.625 1.3125 1.625H12.6875ZM1.3125 0.75C0.964403 0.75 0.630564 0.888281 0.384422 1.13442C0.138281 1.38056 0 1.7144 0 2.0625L0 9.9375C0 10.2856 0.138281 10.6194 0.384422 10.8656C0.630564 11.1117 0.964403 11.25 1.3125 11.25H12.6875C13.0356 11.25 13.3694 11.1117 13.6156 10.8656C13.8617 10.6194 14 10.2856 14 9.9375V2.0625C14 1.7144 13.8617 1.38056 13.6156 1.13442C13.3694 0.888281 13.0356 0.75 12.6875 0.75H1.3125Z" fill="#343EA8"/>
<path d="M4.375 6C4.375 5.88397 4.42109 5.77269 4.50314 5.69064C4.58519 5.60859 4.69647 5.5625 4.8125 5.5625H10.9375C11.0535 5.5625 11.1648 5.60859 11.2469 5.69064C11.3289 5.77269 11.375 5.88397 11.375 6C11.375 6.11603 11.3289 6.22731 11.2469 6.30936C11.1648 6.39141 11.0535 6.4375 10.9375 6.4375H4.8125C4.69647 6.4375 4.58519 6.39141 4.50314 6.30936C4.42109 6.22731 4.375 6.11603 4.375 6ZM4.375 3.8125C4.375 3.69647 4.42109 3.58519 4.50314 3.50314C4.58519 3.42109 4.69647 3.375 4.8125 3.375H10.9375C11.0535 3.375 11.1648 3.42109 11.2469 3.50314C11.3289 3.58519 11.375 3.69647 11.375 3.8125C11.375 3.92853 11.3289 4.03981 11.2469 4.12186C11.1648 4.20391 11.0535 4.25 10.9375 4.25H4.8125C4.69647 4.25 4.58519 4.20391 4.50314 4.12186C4.42109 4.03981 4.375 3.92853 4.375 3.8125ZM4.375 8.1875C4.375 8.07147 4.42109 7.96019 4.50314 7.87814C4.58519 7.79609 4.69647 7.75 4.8125 7.75H10.9375C11.0535 7.75 11.1648 7.79609 11.2469 7.87814C11.3289 7.96019 11.375 8.07147 11.375 8.1875C11.375 8.30353 11.3289 8.41481 11.2469 8.49686C11.1648 8.57891 11.0535 8.625 10.9375 8.625H4.8125C4.69647 8.625 4.58519 8.57891 4.50314 8.49686C4.42109 8.41481 4.375 8.30353 4.375 8.1875ZM3.5 3.8125C3.5 3.92853 3.45391 4.03981 3.37186 4.12186C3.28981 4.20391 3.17853 4.25 3.0625 4.25C2.94647 4.25 2.83519 4.20391 2.75314 4.12186C2.67109 4.03981 2.625 3.92853 2.625 3.8125C2.625 3.69647 2.67109 3.58519 2.75314 3.50314C2.83519 3.42109 2.94647 3.375 3.0625 3.375C3.17853 3.375 3.28981 3.42109 3.37186 3.50314C3.45391 3.58519 3.5 3.69647 3.5 3.8125ZM3.5 6C3.5 6.11603 3.45391 6.22731 3.37186 6.30936C3.28981 6.39141 3.17853 6.4375 3.0625 6.4375C2.94647 6.4375 2.83519 6.39141 2.75314 6.30936C2.67109 6.22731 2.625 6.11603 2.625 6C2.625 5.88397 2.67109 5.77269 2.75314 5.69064C2.83519 5.60859 2.94647 5.5625 3.0625 5.5625C3.17853 5.5625 3.28981 5.60859 3.37186 5.69064C3.45391 5.77269 3.5 5.88397 3.5 6ZM3.5 8.1875C3.5 8.30353 3.45391 8.41481 3.37186 8.49686C3.28981 8.57891 3.17853 8.625 3.0625 8.625C2.94647 8.625 2.83519 8.57891 2.75314 8.49686C2.67109 8.41481 2.625 8.30353 2.625 8.1875C2.625 8.07147 2.67109 7.96019 2.75314 7.87814C2.83519 7.79609 2.94647 7.75 3.0625 7.75C3.17853 7.75 3.28981 7.79609 3.37186 7.87814C3.45391 7.96019 3.5 8.07147 3.5 8.1875Z" fill="#343EA8"/>
</svg>
