<svg width="12" height="16" viewBox="0 0 12 16" fill="none" xmlns="http://www.w3.org/2000/svg">
<path d="M4.2001 11.15C4.2001 11.0307 4.15269 10.9162 4.0683 10.8319C3.9839 10.7475 3.86945 10.7 3.7501 10.7C3.63075 10.7 3.51629 10.7475 3.4319 10.8319C3.34751 10.9162 3.3001 11.0307 3.3001 11.15V12.95C3.3001 13.0694 3.34751 13.1839 3.4319 13.2682C3.51629 13.3526 3.63075 13.4 3.7501 13.4C3.86945 13.4 3.9839 13.3526 4.0683 13.2682C4.15269 13.1839 4.2001 13.0694 4.2001 12.95V11.15ZM6.0001 7.10005C6.11945 7.10005 6.2339 7.14746 6.3183 7.23185C6.40269 7.31624 6.4501 7.4307 6.4501 7.55005V12.95C6.4501 13.0694 6.40269 13.1839 6.3183 13.2682C6.2339 13.3526 6.11945 13.4 6.0001 13.4C5.88075 13.4 5.76629 13.3526 5.6819 13.2682C5.59751 13.1839 5.5501 13.0694 5.5501 12.95V7.55005C5.5501 7.4307 5.59751 7.31624 5.6819 7.23185C5.76629 7.14746 5.88075 7.10005 6.0001 7.10005ZM8.7001 9.35005C8.7001 9.2307 8.65269 9.11624 8.5683 9.03185C8.4839 8.94746 8.36945 8.90005 8.2501 8.90005C8.13075 8.90005 8.01629 8.94746 7.9319 9.03185C7.84751 9.11624 7.8001 9.2307 7.8001 9.35005V12.95C7.8001 13.0694 7.84751 13.1839 7.9319 13.2682C8.01629 13.3526 8.13075 13.4 8.2501 13.4C8.36945 13.4 8.4839 13.3526 8.5683 13.2682C8.65269 13.1839 8.7001 13.0694 8.7001 12.95V9.35005ZM0.600098 2.60005C0.600098 2.12266 0.78974 1.66482 1.12731 1.32726C1.46487 0.989691 1.92271 0.800049 2.4001 0.800049H6.5275C6.88542 0.800364 7.22857 0.942802 7.4815 1.19605L11.005 4.71865C11.2579 4.97173 11.4 5.31486 11.4001 5.67265V13.4C11.4001 13.8774 11.2105 14.3353 10.8729 14.6728C10.5353 15.0104 10.0775 15.2 9.6001 15.2H2.4001C1.92271 15.2 1.46487 15.0104 1.12731 14.6728C0.78974 14.3353 0.600098 13.8774 0.600098 13.4V2.60005ZM2.4001 1.70005C2.1614 1.70005 1.93248 1.79487 1.7637 1.96365C1.59492 2.13244 1.5001 2.36135 1.5001 2.60005V13.4C1.5001 13.6387 1.59492 13.8677 1.7637 14.0364C1.93248 14.2052 2.1614 14.3 2.4001 14.3H9.6001C9.83879 14.3 10.0677 14.2052 10.2365 14.0364C10.4053 13.8677 10.5001 13.6387 10.5001 13.4V6.20005H7.3501C6.99206 6.20005 6.64868 6.05782 6.3955 5.80464C6.14233 5.55147 6.0001 5.20809 6.0001 4.85005V1.70005H2.4001ZM7.3501 5.30005H10.3138L6.9001 1.88635V4.85005C6.9001 4.9694 6.94751 5.08386 7.0319 5.16825C7.11629 5.25264 7.23075 5.30005 7.3501 5.30005Z" fill="#343EA8"/>
</svg>
