<svg width="14" height="12" viewBox="0 0 14 12" fill="none" xmlns="http://www.w3.org/2000/svg">
<path d="M10 0V1.5H4V0H0V4H4V2.5H7.5115C7.18107 2.93035 7.00133 3.45743 7 4V8C6.99947 8.39766 6.84127 8.77889 6.56008 9.06008C6.27889 9.34127 5.89766 9.49947 5.5 9.5H4V8H0V12H4V10.5H5.5C6.1628 10.4992 6.79822 10.2356 7.26689 9.76689C7.73556 9.29822 7.99921 8.6628 8 8V4C7.99987 3.80311 8.03853 3.60812 8.11377 3.42617C8.18901 3.24422 8.29936 3.07887 8.43852 2.93958C8.57767 2.80028 8.74291 2.68977 8.92478 2.61434C9.10665 2.53892 9.30161 2.50007 9.4985 2.5H10V4H14V0H10ZM3 3H1V1H3V3ZM3 11H1V9H3V11ZM13 3H11V1H13V3Z" fill="#343EA8"/>
</svg>
