<svg width="46" height="46" viewBox="0 0 46 46" fill="none" xmlns="http://www.w3.org/2000/svg">
<g clip-path="url(#clip0_425_1397)">
<path d="M45.2333 10.7333H42.9333V7.66667C42.9333 7.20667 42.6267 6.9 42.1667 6.9H21.4667V0.766667C21.4667 0.306667 21.16 0 20.7 0H0.766667C0.306667 0 0 0.306667 0 0.766667V46H1.53333V1.53333H19.9333V7.66667V10.7333H6.13333V12.2667H20.7H42.1667H44.4667V46H46V11.5C46 11.04 45.6933 10.7333 45.2333 10.7333ZM21.4667 10.7333V8.43333H41.4V10.7333H21.4667Z" fill="#343EA8"/>
<path d="M39.1 29.9C37.6433 29.9 36.4933 30.8967 36.11 32.2H32.2V20.6233C33.5033 20.3166 34.5 19.09 34.5 17.6333C34.5 15.9467 33.12 14.5667 31.4333 14.5667C29.7467 14.5667 28.3667 15.9467 28.3667 17.6333C28.3667 19.09 29.3633 20.24 30.6667 20.6233V32.2H23.7667V26.7567C25.07 26.45 26.0667 25.2233 26.0667 23.7667C26.0667 22.08 24.6867 20.7 23 20.7C21.3133 20.7 19.9333 22.08 19.9333 23.7667C19.9333 25.2233 20.93 26.3733 22.2333 26.7567V38.3333H13.8V28.29C15.1033 27.9833 16.1 26.7566 16.1 25.3C16.1 23.6133 14.72 22.2333 13.0333 22.2333C11.3467 22.2333 9.96668 23.6133 9.96668 25.3C9.96668 26.7566 10.9633 27.9067 12.2667 28.29V38.3333H9.89001C9.58334 37.03 8.35668 36.0333 6.90001 36.0333C5.21334 36.0333 3.83334 37.4133 3.83334 39.1C3.83334 40.7866 5.21334 42.1666 6.90001 42.1666C8.35668 42.1666 9.50668 41.17 9.89001 39.8666H22.2333V46H23.7667V33.7333H36.11C36.4167 35.0366 37.6433 36.0333 39.1 36.0333C40.7867 36.0333 42.1667 34.6533 42.1667 32.9667C42.1667 31.28 40.7867 29.9 39.1 29.9ZM29.9 17.6333C29.9 16.79 30.59 16.1 31.4333 16.1C32.2767 16.1 32.9667 16.79 32.9667 17.6333C32.9667 18.4767 32.2767 19.1667 31.4333 19.1667C30.59 19.1667 29.9 18.4767 29.9 17.6333ZM11.5 25.3C11.5 24.4566 12.19 23.7667 13.0333 23.7667C13.8767 23.7667 14.5667 24.4566 14.5667 25.3C14.5667 26.1433 13.8767 26.8333 13.0333 26.8333C12.19 26.8333 11.5 26.1433 11.5 25.3ZM6.90001 40.6333C6.05668 40.6333 5.36668 39.9433 5.36668 39.1C5.36668 38.2566 6.05668 37.5667 6.90001 37.5667C7.74334 37.5667 8.43334 38.2566 8.43334 39.1C8.43334 39.9433 7.74334 40.6333 6.90001 40.6333ZM21.4667 23.7667C21.4667 22.9233 22.1567 22.2333 23 22.2333C23.8433 22.2333 24.5333 22.9233 24.5333 23.7667C24.5333 24.61 23.8433 25.3 23 25.3C22.1567 25.3 21.4667 24.61 21.4667 23.7667ZM39.1 34.5C38.2567 34.5 37.5667 33.81 37.5667 32.9667C37.5667 32.1233 38.2567 31.4333 39.1 31.4333C39.9433 31.4333 40.6333 32.1233 40.6333 32.9667C40.6333 33.81 39.9433 34.5 39.1 34.5Z" fill="#343EA8"/>
</g>
<defs>
<clipPath id="clip0_425_1397">
<rect width="46" height="46" fill="white"/>
</clipPath>
</defs>
</svg>
