<svg width="56" height="56" viewBox="0 0 56 56" fill="none" xmlns="http://www.w3.org/2000/svg">
<g clip-path="url(#clip0_425_1375)">
<path d="M47.3649 27.6878L47.365 27.6879C45.7058 23.4264 42.6275 19.7772 38.697 17.4126C35.734 15.6292 32.3658 14.6215 28.9039 14.4714V11.2963C29.154 11.5078 29.4281 11.6909 29.7297 11.8408C30.3959 12.1721 31.1719 12.3375 32.055 12.3375C33.8897 12.3375 36.1863 11.6237 38.9183 10.2009C41.7979 8.7013 44.1048 6.96354 44.2015 6.89015L45.155 6.16871L44.2015 5.44726C44.1047 5.37409 41.7978 3.63611 38.9183 2.13646C34.8715 0.0291238 31.7804 -0.522786 29.7298 0.496595C29.0025 0.8583 28.4267 1.40244 27.9994 2.11962C27.5721 1.40233 26.9962 0.858191 26.2689 0.496486C24.2188 -0.522786 21.1275 0.0290145 17.0811 2.13646C14.2017 3.63611 11.8951 5.37387 11.7982 5.44715L10.8451 6.1686L11.7982 6.89004C11.8951 6.96321 14.2017 8.70119 17.0811 10.2007C19.8131 11.6235 22.1094 12.3373 23.9439 12.3373C24.8266 12.3373 25.6029 12.1719 26.2687 11.8407C26.5703 11.6908 26.8443 11.5078 27.0945 11.2962V14.471C25.4901 14.54 23.9044 14.7898 22.3693 15.2212L21.7093 15.4078V15.4199C19.0089 16.2788 16.4689 17.7094 14.3265 19.5828C9.81307 23.5312 7.22437 29.2326 7.22437 35.2252C7.22437 41.8841 10.4526 48.1872 15.8599 52.086C19.4112 54.6468 23.6088 56.0002 27.9993 56.0002C29.2034 56.0002 30.411 55.8963 31.5892 55.6913C36.3479 54.8619 40.6999 52.3661 43.8434 48.6641C47.0238 44.9184 48.7754 40.1458 48.7754 35.2253C48.7754 32.6259 48.3008 30.0897 47.3649 27.6878ZM28.9421 5.26417C29.0807 3.63371 29.6138 2.57561 30.5353 2.11721C30.9782 1.89682 31.5016 1.79926 32.0805 1.79926C35.0863 1.79926 39.5882 4.43051 42.1016 6.16488C41.1815 6.79598 39.7184 7.74426 38.0827 8.59619C34.6766 10.37 31.9964 10.9472 30.5358 10.2206C29.6141 9.76235 29.0808 8.70414 28.9422 7.07368H37.3091V5.26417H28.9421ZM27.0567 7.07357C26.918 8.70381 26.3848 9.76213 25.4634 10.2205C22.7218 11.5851 16.896 8.24159 13.8987 6.17308C14.8239 5.53859 16.2966 4.58407 17.9375 3.73105C21.3335 1.9654 24.0065 1.39238 25.4634 2.11732C26.3847 2.57572 26.9179 3.63393 27.0567 5.26417H18.691V7.07368H27.0567V7.07357ZM27.9993 16.2588C31.2733 16.2588 34.4811 17.1028 37.3124 18.7016C37.136 24.3957 35.9593 30.3997 33.6652 31.3826C32.5805 31.8476 31.7319 31.9405 31.2752 31.6447C30.8889 31.3943 30.7665 30.8611 30.7282 30.5841C31.2289 29.4993 32.7232 25.442 28.4482 22.9987C25.6521 21.4008 24.2936 18.3293 23.7526 16.7375C25.1385 16.4206 26.5627 16.2588 27.9993 16.2588ZM16.5096 50.3141C11.8195 46.7361 9.03399 41.1345 9.03399 35.2254C9.03399 29.9682 11.2176 24.9569 15.0449 21.3747C15.8672 21.8519 17.2696 22.7048 18.5376 23.6643C20.7263 25.3206 21.1711 26.2932 21.1004 26.5758C20.9996 26.9793 20.8816 27.3993 20.7566 27.8438C20.1192 30.1117 19.3968 32.682 20.6233 34.5219C21.0552 35.1702 21.6944 35.6604 22.2585 36.0928C22.8302 36.5312 23.4216 36.9845 23.4463 37.3612C23.4586 37.549 23.3576 37.9857 22.5426 38.8008C21.1628 40.1807 20.4875 42.3531 19.8343 44.454C19.0472 46.9854 18.3001 49.3853 16.5096 50.3141ZM27.9992 54.1908C24.4785 54.1908 21.0941 53.2373 18.1263 51.4215C20.0138 49.9687 20.8283 47.3515 21.562 44.9911C22.1771 43.013 22.758 41.1443 23.822 40.0803C24.8566 39.0456 25.3109 38.1439 25.2518 37.2427C25.1732 36.0477 24.2095 35.3089 23.3594 34.6569C22.885 34.2932 22.3944 33.9171 22.129 33.5184C21.3639 32.3708 21.9667 30.2259 22.4986 28.3335C22.6215 27.8961 22.7485 27.4438 22.8559 27.0145C23.1929 25.665 22.1677 24.142 19.6293 22.2214C18.5458 21.4016 17.375 20.6584 16.5092 20.1383C18.1695 18.8748 20.0399 17.884 22.0093 17.227C22.6143 19.0292 24.1938 22.6517 27.5501 24.5697C28.9779 25.3857 29.6427 26.4734 29.5827 27.895C29.5348 29.03 29.024 29.9535 29.0206 29.9595L28.9015 30.1681V30.4083C28.9015 30.5965 28.94 32.2723 30.273 33.1513C30.7518 33.467 31.3146 33.6248 31.9574 33.6248C32.6683 33.6248 33.477 33.4318 34.3777 33.0459C36.2617 32.2386 37.617 29.7327 38.4054 25.598C38.8089 23.4819 38.9912 21.3442 39.0735 19.8273C41.7482 21.7569 43.8963 24.3703 45.2637 27.3647C44.3597 27.6188 43.0858 28.1084 41.7867 29.0392C39.1871 30.9021 37.4916 33.734 36.7473 37.4556C35.6895 42.742 34.6336 42.9297 33.1722 43.1898C32.2118 43.3608 31.0166 43.5733 29.7684 44.8216C27.2346 47.3555 28.841 51.7164 30.0202 54.0838C29.3501 54.1547 28.6741 54.1908 27.9992 54.1908ZM42.4639 47.493C39.7319 50.7105 36.0011 52.9286 31.903 53.7877C30.4599 51.1106 29.4602 47.689 31.048 46.1013C31.8938 45.2555 32.6331 45.1239 33.489 44.9717C35.7436 44.5706 37.3121 43.8554 38.5215 37.8109C39.8282 31.2775 44.0779 29.5145 45.937 29.0519C46.6192 31.0323 46.9656 33.1052 46.9656 35.2255C46.9659 39.7174 45.367 44.074 42.4639 47.493Z" fill="#343EA8"/>
</g>
<defs>
<clipPath id="clip0_425_1375">
<rect width="56" height="56" fill="white"/>
</clipPath>
</defs>
</svg>
