<svg width="45" height="45" viewBox="0 0 45 45" fill="none" xmlns="http://www.w3.org/2000/svg">
<path d="M44.1667 8.75H19.6125L16.5267 4.12083C16.3717 3.88917 16.1117 3.75 15.8333 3.75H0.833333C0.373333 3.75 0 4.1225 0 4.58333V9.58333V12.9167V37.0858C0 39.3825 1.86667 41.25 4.16167 41.25H40.8383C43.1333 41.25 45 39.3825 45 37.0858V12.9167V9.58333C45 9.1225 44.6267 8.75 44.1667 8.75ZM43.3333 12.0833H1.66667V10.4167H19.1667H43.3333V12.0833ZM1.66667 5.41667H15.3875L17.61 8.75H1.66667V5.41667ZM43.3333 37.0858C43.3333 38.4625 42.2142 39.5833 40.8383 39.5833H4.16167C2.78583 39.5833 1.66667 38.4625 1.66667 37.0858V13.75H43.3333V37.0858Z" fill="#343EA8"/>
<path d="M13.3333 30.4166C14.27 30.4166 15.1133 30.0258 15.72 29.4025L24.1967 33.4566C24.1875 33.555 24.1667 33.6491 24.1667 33.75C24.1667 35.5883 25.6617 37.0833 27.5 37.0833C29.3383 37.0833 30.8333 35.5883 30.8333 33.75C30.8333 32.5216 30.1583 31.4583 29.1667 30.88L29.9183 24.49C31.3942 24.1475 32.5 22.8291 32.5 21.25C32.5 19.4116 31.005 17.9166 29.1667 17.9166C27.3842 17.9166 25.9367 19.3258 25.85 21.0875L15.8575 24.9308C15.2458 24.2141 14.3475 23.75 13.3333 23.75C11.495 23.75 10 25.245 10 27.0833C10 28.9216 11.495 30.4166 13.3333 30.4166ZM27.5 35.4166C26.5808 35.4166 25.8333 34.6691 25.8333 33.75C25.8333 32.8308 26.5808 32.0833 27.5 32.0833C28.4192 32.0833 29.1667 32.8308 29.1667 33.75C29.1667 34.6691 28.4192 35.4166 27.5 35.4166ZM29.1667 19.5833C30.0858 19.5833 30.8333 20.3308 30.8333 21.25C30.8333 22.1691 30.0858 22.9166 29.1667 22.9166C28.2475 22.9166 27.5 22.1691 27.5 21.25C27.5 20.3308 28.2475 19.5833 29.1667 19.5833ZM26.2 22.7391C26.6133 23.5591 27.35 24.1783 28.2467 24.4383L27.5425 30.4216C27.5283 30.4216 27.5142 30.4175 27.5 30.4175C26.3583 30.4175 25.35 30.9958 24.7492 31.8733L16.5392 27.9466C16.6142 27.6691 16.6667 27.3833 16.6667 27.0833C16.6667 26.86 16.6425 26.6425 16.6008 26.4316L26.2 22.7391ZM13.3333 25.4166C14.2525 25.4166 15 26.1641 15 27.0833C15 27.3016 14.955 27.51 14.8783 27.7016C14.7917 27.775 14.7175 27.865 14.665 27.9741C14.6425 28.0216 14.6417 28.0716 14.6283 28.1208C14.3225 28.5008 13.8583 28.75 13.3333 28.75C12.4142 28.75 11.6667 28.0025 11.6667 27.0833C11.6667 26.1641 12.4142 25.4166 13.3333 25.4166Z" fill="#343EA8"/>
</svg>
