<svg width="44" height="44" viewBox="0 0 44 44" fill="none" xmlns="http://www.w3.org/2000/svg">
<g clip-path="url(#clip0_425_1384)">
<path d="M28.5051 8.99713C28.8888 8.98691 29.1913 8.66773 29.1812 8.28411C29.0827 4.58244 32.014 1.49058 35.7158 1.39201C37.5105 1.34405 39.2135 1.99778 40.5153 3.23193C41.8171 4.46608 42.5603 6.13344 42.6081 7.92661C42.6558 9.71978 42.0024 11.4242 40.7682 12.726C39.5339 14.0277 37.8666 14.7709 36.0734 14.8187C34.3851 14.8628 32.7495 14.2759 31.4765 13.1633C31.1875 12.9108 30.7488 12.9401 30.4962 13.2291C30.2437 13.518 30.2733 13.9568 30.5621 14.2093C32.044 15.5044 33.9289 16.2105 35.8921 16.2105C35.9646 16.2105 36.0376 16.2094 36.1103 16.2075C38.2745 16.15 40.2867 15.253 41.7764 13.6819C43.2659 12.1109 44.0546 10.0537 43.9969 7.88957C43.9393 5.72541 43.0423 3.71309 41.4712 2.22354C39.9 0.73407 37.84 -0.0559538 35.6789 0.00308525C31.2112 0.122023 27.6733 3.85352 27.7923 8.32115C27.8025 8.70469 28.1238 9.00693 28.5051 8.99713Z" fill="#343EA8"/>
<path d="M36.3151 27.8004C34.3412 27.6977 32.4022 28.3178 30.8557 29.546C30.5553 29.7847 30.5052 30.2216 30.7438 30.5221C30.9824 30.8226 31.4194 30.8726 31.72 30.634C33.0009 29.6164 34.6077 29.1031 36.2429 29.188C39.941 29.3801 42.7934 32.545 42.6013 36.2431C42.5083 38.0345 41.7233 39.6825 40.3906 40.8834C39.058 42.0843 37.3381 42.6947 35.5462 42.6013C33.7548 42.5083 32.1068 41.7231 30.9058 40.3906C29.7049 39.0581 29.0948 37.3377 29.1878 35.5462C29.2077 35.163 28.9132 34.8363 28.53 34.8164C28.1508 34.7968 27.8201 35.0909 27.8001 35.4741C27.6879 37.6361 28.4243 39.7126 29.8736 41.3207C31.323 42.9289 33.3119 43.8765 35.4741 43.9888C35.618 43.9963 35.7614 44 35.9044 44C37.9103 43.9999 39.8197 43.2683 41.3208 41.9154C42.9291 40.466 43.8766 38.4771 43.989 36.3151C44.2209 31.8519 40.7783 28.0322 36.3151 27.8004Z" fill="#343EA8"/>
<path d="M35.8945 40.2945C38.3206 40.2945 40.2945 38.3206 40.2945 35.8945C40.2945 33.4684 38.3206 31.4945 35.8945 31.4945C34.4243 31.4945 33.12 32.2197 32.3206 33.3308L12.3024 23.3217C12.4342 22.9043 12.5051 22.4604 12.5051 22C12.5051 21.5396 12.4339 21.0955 12.3024 20.6781L32.3206 10.6691C33.12 11.7804 34.4241 12.5054 35.8945 12.5054C38.3206 12.5054 40.2945 10.5315 40.2945 8.10536C40.2945 5.67917 38.3206 3.70544 35.8945 3.70544C33.4684 3.70544 31.4946 5.67926 31.4946 8.10536C31.4946 8.56573 31.5657 9.00968 31.6974 9.42708L11.6791 19.4362C10.8798 18.3251 9.57548 17.6 8.10526 17.6C5.67916 17.6 3.70526 19.5739 3.70526 22C3.70526 24.4261 5.67916 26.3999 8.10526 26.3999C9.57574 26.3999 10.8798 25.6749 11.6792 24.5637L31.6973 34.5727C31.5656 34.9901 31.4945 35.4342 31.4945 35.8946C31.4946 38.3207 33.4684 40.2945 35.8945 40.2945ZM35.8945 32.8841C37.5546 32.8841 38.9051 34.2346 38.9051 35.8946C38.9051 37.5547 37.5546 38.9051 35.8945 38.9051C34.2346 38.9051 32.8841 37.5546 32.8841 35.8946C32.8841 34.2347 34.2346 32.8841 35.8945 32.8841ZM35.8945 5.09497C37.5546 5.09497 38.9051 6.44548 38.9051 8.10544C38.9051 9.76541 37.5546 11.116 35.8945 11.116C34.2346 11.116 32.8841 9.76541 32.8841 8.10544C32.8841 6.44539 34.2346 5.09497 35.8945 5.09497ZM8.10526 25.0105C6.44521 25.0105 5.0947 23.66 5.0947 22C5.0947 20.34 6.44521 18.9894 8.10526 18.9894C9.76523 18.9894 11.1157 20.34 11.1157 22C11.1157 23.66 9.76523 25.0105 8.10526 25.0105Z" fill="#343EA8"/>
<path d="M11.108 28.0067C10.1689 28.4773 9.1587 28.7157 8.10528 28.7157C4.40215 28.7157 1.38952 25.7031 1.38952 22.0001C1.38952 18.297 4.40215 15.2843 8.10528 15.2843C9.1587 15.2843 10.1689 15.5229 11.1081 15.9933C11.4513 16.1653 11.8687 16.0264 12.0404 15.6833C12.2122 15.3403 12.0734 14.9228 11.7304 14.751C10.5963 14.1828 9.37673 13.8948 8.10528 13.8948C3.63593 13.8949 0 17.5309 0 22.0001C0 26.4692 3.63602 30.1053 8.1052 30.1053C9.37664 30.1053 10.5964 29.8172 11.7303 29.2491C12.0733 29.0771 12.2121 28.6597 12.0403 28.3167C11.8686 27.9737 11.4512 27.835 11.108 28.0067Z" fill="#343EA8"/>
</g>
<defs>
<clipPath id="clip0_425_1384">
<rect width="44" height="44" fill="white"/>
</clipPath>
</defs>
</svg>
