<svg width="50" height="50" viewBox="0 0 50 50" fill="none" xmlns="http://www.w3.org/2000/svg">
<path d="M35.0929 37.1704C34.172 36.6853 31.9045 35.4004 30.9278 34.4786V31.9734C34.0604 30.1824 36.2025 26.969 36.887 23.0356C38.6615 22.5275 40.2062 20.862 40.2062 19.3299C40.2062 17.779 39.0404 16.7499 37.1134 16.5367V8.50515L37.112 8.45784C37.1065 8.36938 36.9606 6.26567 35.3593 4.16969C32.7262 0.723505 28.2726 0 25 0C21.7274 0 17.2738 0.723505 14.6407 4.16969C13.0394 6.26567 12.8935 8.36928 12.888 8.45784L12.8866 12.9967V16.5366C10.9596 16.7498 9.79381 17.779 9.79381 19.3298C9.79381 20.8619 11.3385 22.5274 13.113 23.0356C13.7982 26.9704 15.9406 30.1836 19.0722 31.9734V34.4785C18.0948 35.4008 15.8255 36.6867 14.9056 37.1711C4.85577 40.4315 4.6434 46.3843 4.63928 46.6367L4.63918 50H45.3608V46.6453C45.3594 46.3913 45.2108 40.401 35.0929 37.1704ZM37.1134 18.0909C38.4914 18.2841 38.6598 18.9967 38.6598 19.3299C38.6598 19.9614 37.9766 20.8212 37.086 21.2959C37.103 20.9904 37.1134 18.0909 37.1134 18.0909ZM11.3402 19.3299C11.3402 18.9967 11.5086 18.2841 12.8866 18.0909C12.8866 18.0909 12.897 20.9904 12.914 21.2959C12.0234 20.8211 11.3402 19.9614 11.3402 19.3299ZM14.433 8.53433C14.4495 8.34629 14.6242 6.73856 15.8696 5.10866C17.6755 2.74485 20.7474 1.54639 25 1.54639C34.8024 1.54639 35.5272 8.05299 35.567 8.53361V12.662C34.7001 12.3431 33.5052 11.6195 33.5052 10.0515V8.90948L25 12.3115L16.4948 8.90948V10.0515C16.4948 11.5704 15.3033 12.3068 14.433 12.6425V8.53433ZM14.5595 22.2841C14.4756 21.6872 14.433 21.0402 14.433 20.3608V14.2774C15.717 13.9085 17.41 12.9603 17.9018 11.1378L25 13.9771L32.0928 11.1399C32.5769 13.0057 34.2744 13.94 35.567 14.2894V20.3608C35.567 21.0402 35.5244 21.6872 35.4403 22.286C34.9086 26.1362 32.8526 29.2498 29.7977 30.8297C28.3582 31.5789 26.744 31.9588 25 31.9588C23.256 31.9588 21.6418 31.5789 20.2005 30.8287C17.1475 29.2498 15.0915 26.1362 14.5595 22.2841ZM29.3814 32.7113V34.4961C28.8526 35.0489 27.1766 36.5979 25 36.5979C22.8374 36.5979 21.1499 35.0459 20.6186 34.4944V32.7111C21.9775 33.2378 23.4458 33.5053 25 33.5053C26.5545 33.5053 28.0231 33.2377 29.3814 32.7113ZM43.8144 48.4536H6.18557V46.6589C6.19134 46.5027 6.47144 41.5114 15.4432 38.6226C15.4432 38.6226 18.3772 37.0886 19.8192 35.8803C20.3188 36.3507 21.126 37.0051 22.1649 37.4894V46.9072H27.0619V45.3608H23.7113V38.0096C24.1201 38.0951 24.5505 38.1443 25 38.1443C27.4199 38.1443 29.2895 36.7196 30.1808 35.8803C31.6228 37.0886 34.5603 38.6236 34.5603 38.6236C37.1847 39.4549 40.7171 41.0212 42.6424 43.7613C43.7473 45.3339 43.8119 46.5921 43.8144 46.6578V48.4536Z" fill="#343EA8"/>
<path d="M25 25.2577H27.0619V23.7114H25.7732V20.3608H24.2268V24.4846C24.2268 24.9117 24.573 25.2577 25 25.2577Z" fill="#343EA8"/>
<path d="M26.5464 39.6907H24.4845V41.2371H26.5464V39.6907Z" fill="#343EA8"/>
<path d="M26.5464 42.2681H24.4845V43.8145H26.5464V42.2681Z" fill="#343EA8"/>
</svg>
