<svg width="45" height="51" viewBox="0 0 45 51" fill="none" xmlns="http://www.w3.org/2000/svg">
<path d="M11.7344 15.5624C11.7344 16.0195 11.3634 16.3905 10.9063 16.3905C10.4492 16.3905 10.0782 16.0195 10.0782 15.5624C10.0782 15.1053 10.4492 14.7343 10.9063 14.7343C11.3634 14.7343 11.7344 15.1053 11.7344 15.5624ZM24.1563 13.078C23.6992 13.078 23.3282 13.449 23.3282 13.9062C23.3282 14.3633 23.6992 14.7343 24.1563 14.7343C24.6134 14.7343 24.9844 14.3633 24.9844 13.9062C24.9844 13.449 24.6134 13.078 24.1563 13.078ZM15.8751 11.4218C15.4179 11.4218 15.0469 11.7928 15.0469 12.2499C15.0469 12.707 15.4179 13.078 15.8751 13.078C16.3322 13.078 16.7032 12.707 16.7032 12.2499C16.7032 11.7928 16.3322 11.4218 15.8751 11.4218ZM9.25006 31.2968C8.79293 31.2968 8.42193 31.6678 8.42193 32.1249C8.42193 32.582 8.79293 32.953 9.25006 32.953C9.70718 32.953 10.0782 32.582 10.0782 32.1249C10.0782 31.6678 9.70718 31.2968 9.25006 31.2968ZM30.7813 18.0468C30.3242 18.0468 29.9532 18.4178 29.9532 18.8749C29.9532 19.332 30.3242 19.703 30.7813 19.703C31.2384 19.703 31.6094 19.332 31.6094 18.8749C31.6094 18.4178 31.2384 18.0468 30.7813 18.0468ZM14.2188 26.328C13.7617 26.328 13.3907 26.699 13.3907 27.1562C13.3907 27.6133 13.7617 27.9843 14.2188 27.9843C14.6759 27.9843 15.0469 27.6133 15.0469 27.1562C15.0469 26.699 14.6759 26.328 14.2188 26.328ZM37.4063 31.2968C36.9492 31.2968 36.5782 31.6678 36.5782 32.1249C36.5782 32.582 36.9492 32.953 37.4063 32.953C37.8634 32.953 38.2344 32.582 38.2344 32.1249C38.2344 31.6678 37.8634 31.2968 37.4063 31.2968ZM22.5001 41.2343C22.0429 41.2343 21.6719 41.6053 21.6719 42.0624C21.6719 42.5195 22.0429 42.8905 22.5001 42.8905C22.9572 42.8905 23.3282 42.5195 23.3282 42.0624C23.3282 41.6053 22.9572 41.2343 22.5001 41.2343ZM32.4376 34.6093C31.9804 34.6093 31.6094 34.9803 31.6094 35.4374C31.6094 35.8945 31.9804 36.2655 32.4376 36.2655C32.8947 36.2655 33.2657 35.8945 33.2657 35.4374C33.2657 34.9803 32.8947 34.6093 32.4376 34.6093ZM32.4376 26.328C31.9804 26.328 31.6094 26.699 31.6094 27.1562C31.6094 27.6133 31.9804 27.9843 32.4376 27.9843C32.8947 27.9843 33.2657 27.6133 33.2657 27.1562C33.2657 26.699 32.8947 26.328 32.4376 26.328ZM22.7833 50.8687L44.3145 39.2749C44.5067 39.1706 44.6276 38.9685 44.6276 38.7499V12.2499C44.6276 12.0313 44.5067 11.8292 44.3145 11.7249L22.7833 0.131129C22.6061 0.0350664 22.3957 0.0350664 22.2168 0.131129L0.68559 11.7249C0.493465 11.8292 0.372559 12.0313 0.372559 12.2499V38.7499C0.372559 38.9702 0.493465 39.1706 0.68559 39.2749L22.2168 50.8687C22.3063 50.9151 22.4023 50.9399 22.5001 50.9399C22.5978 50.9399 22.6938 50.9167 22.7833 50.8687ZM1.56506 12.606L22.5001 1.33357L43.4351 12.606V38.3938L22.5001 49.6663L1.56506 38.3938V12.606ZM38.0026 22.1874C38.0026 23.4296 36.9922 24.4399 35.7501 24.4399C34.9103 24.4399 34.1849 23.9728 33.7973 23.2905L25.425 25.384C25.4267 25.4237 25.4382 25.4602 25.4382 25.5016C25.4382 26.0962 25.2577 26.6477 24.953 27.1114L26.3624 28.5193C26.6904 28.3304 27.0647 28.2162 27.4688 28.2162C28.711 28.2162 29.7213 29.2265 29.7213 30.4687C29.7213 31.7108 28.711 32.7212 27.4688 32.7212C26.2266 32.7212 25.2163 31.7108 25.2163 30.4687C25.2163 30.0645 25.3322 29.6902 25.5194 29.3623L24.1116 27.9528C23.6478 28.2576 23.0963 28.4381 22.5017 28.4381C22.1854 28.4381 21.8856 28.3752 21.5991 28.2808L17.4717 35.5037C17.8775 35.9111 18.1292 36.4726 18.1292 37.092C18.1292 38.3342 17.1189 39.3445 15.8767 39.3445C14.6345 39.3445 13.6242 38.3342 13.6242 37.092C13.6242 35.8498 14.6345 34.8395 15.8767 34.8395C16.0705 34.8395 16.2543 34.871 16.4332 34.9174L20.5639 27.6895C19.9561 27.1512 19.5652 26.3728 19.5652 25.4983C19.5652 25.4585 19.5751 25.4204 19.5768 25.3823L11.2044 23.2888C10.8152 23.9728 10.0898 24.4399 9.25006 24.4399C8.00787 24.4399 6.99756 23.4296 6.99756 22.1874C6.99756 20.9452 8.00787 19.9349 9.25006 19.9349C10.474 19.9349 11.4678 20.9171 11.4976 22.1344L19.865 24.2263C20.0256 23.895 20.2625 23.6168 20.5275 23.3683L18.1342 19.3784C17.9404 19.4331 17.7417 19.4712 17.5313 19.4712C16.2891 19.4712 15.2788 18.4608 15.2788 17.2187C15.2788 15.9765 16.2891 14.9662 17.5313 14.9662C18.7735 14.9662 19.7838 15.9765 19.7838 17.2187C19.7838 17.8199 19.5437 18.3648 19.1577 18.7689L21.5411 22.7406C21.8442 22.6329 22.1622 22.5601 22.5017 22.5601C22.8181 22.5601 23.1178 22.623 23.4044 22.7174L27.5317 15.4945C27.1243 15.0871 26.8726 14.5256 26.8726 13.9062C26.8726 12.664 27.8829 11.6537 29.1251 11.6537C30.3672 11.6537 31.3776 12.664 31.3776 13.9062C31.3776 15.1483 30.3672 16.1587 29.1251 16.1587C28.9313 16.1587 28.7474 16.1272 28.5686 16.0808L24.4395 23.3103C24.7277 23.5671 24.9629 23.8784 25.1368 24.2279L33.5025 22.1361C33.5307 20.9171 34.5261 19.9349 35.7501 19.9349C36.9922 19.9349 38.0026 20.9452 38.0026 22.1874ZM28.0651 13.9062C28.0651 14.4908 28.5404 14.9662 29.1251 14.9662C29.7097 14.9662 30.1851 14.4908 30.1851 13.9062C30.1851 13.3215 29.7097 12.8462 29.1251 12.8462C28.5404 12.8462 28.0651 13.3215 28.0651 13.9062ZM18.5913 17.2187C18.5913 16.634 18.116 16.1587 17.5313 16.1587C16.9467 16.1587 16.4713 16.634 16.4713 17.2187C16.4713 17.8033 16.9467 18.2787 17.5313 18.2787C18.116 18.2787 18.5913 17.8033 18.5913 17.2187ZM10.3101 22.1874C10.3101 21.6028 9.83471 21.1274 9.25006 21.1274C8.6654 21.1274 8.19006 21.6028 8.19006 22.1874C8.19006 22.7721 8.6654 23.2474 9.25006 23.2474C9.83471 23.2474 10.3101 22.7721 10.3101 22.1874ZM16.9351 37.0937C16.9351 36.509 16.4597 36.0337 15.8751 36.0337C15.2904 36.0337 14.8151 36.509 14.8151 37.0937C14.8151 37.6783 15.2904 38.1537 15.8751 38.1537C16.4597 38.1537 16.9351 37.6783 16.9351 37.0937ZM26.4088 30.4687C26.4088 31.0533 26.8842 31.5287 27.4688 31.5287C28.0535 31.5287 28.5288 31.0533 28.5288 30.4687C28.5288 29.884 28.0535 29.4087 27.4688 29.4087C26.8842 29.4087 26.4088 29.884 26.4088 30.4687ZM24.2457 25.4999C24.2457 24.5376 23.4623 23.7542 22.5001 23.7542C21.5378 23.7542 20.7544 24.5376 20.7544 25.4999C20.7544 26.4622 21.5378 27.2456 22.5001 27.2456C23.4623 27.2456 24.2457 26.4622 24.2457 25.4999ZM36.8101 22.1874C36.8101 21.6028 36.3347 21.1274 35.7501 21.1274C35.1654 21.1274 34.6901 21.6028 34.6901 22.1874C34.6901 22.7721 35.1654 23.2474 35.7501 23.2474C36.3347 23.2474 36.8101 22.7721 36.8101 22.1874Z" fill="#343EA8"/>
</svg>
