<svg width="14" height="14" viewBox="0 0 14 14" fill="none" xmlns="http://www.w3.org/2000/svg">
<path d="M1.75 4.375V12.25H9.625V4.375H1.75ZM1.3125 3.5H10.0625C10.1785 3.5 10.2898 3.54609 10.3719 3.62814C10.4539 3.71019 10.5 3.82147 10.5 3.9375V12.6875C10.5 12.8035 10.4539 12.9148 10.3719 12.9969C10.2898 13.0789 10.1785 13.125 10.0625 13.125H1.3125C1.19647 13.125 1.08519 13.0789 1.00314 12.9969C0.921094 12.9148 0.875 12.8035 0.875 12.6875V3.9375C0.875 3.82147 0.921094 3.71019 1.00314 3.62814C1.08519 3.54609 1.19647 3.5 1.3125 3.5ZM13.125 1.3125V10.9375C13.125 11.0535 13.0789 11.1648 12.9969 11.2469C12.9148 11.3289 12.8035 11.375 12.6875 11.375H11.375V10.5H12.25V1.75H5.25V2.625H4.375V1.3125C4.375 1.19647 4.42109 1.08519 4.50314 1.00314C4.58519 0.921094 4.69647 0.875 4.8125 0.875H12.6875C12.8035 0.875 12.9148 0.921094 12.9969 1.00314C13.0789 1.08519 13.125 1.19647 13.125 1.3125ZM3.5 9.1875H7.875V10.0625H3.5V9.1875ZM3.5 6.5625H7.875V7.4375H3.5V6.5625Z" fill="#343EA8"/>
</svg>
