<svg width="11" height="13" viewBox="0 0 11 13" fill="none" xmlns="http://www.w3.org/2000/svg">
<path d="M6.28125 3.375C6.28125 3.54076 6.2154 3.69973 6.09819 3.81694C5.98098 3.93415 5.82201 4 5.65625 4C5.49049 4 5.33152 3.93415 5.21431 3.81694C5.0971 3.69973 5.03125 3.54076 5.03125 3.375C5.03125 3.20924 5.0971 3.05027 5.21431 2.93306C5.33152 2.81585 5.49049 2.75 5.65625 2.75C5.82201 2.75 5.98098 2.81585 6.09819 2.93306C6.2154 3.05027 6.28125 3.20924 6.28125 3.375ZM5.1875 5.09375V8.21875C5.1875 8.34307 5.23689 8.4623 5.32479 8.55021C5.4127 8.63811 5.53193 8.6875 5.65625 8.6875C5.78057 8.6875 5.8998 8.63811 5.98771 8.55021C6.07561 8.4623 6.125 8.34307 6.125 8.21875V5.09375C6.125 4.96943 6.07561 4.8502 5.98771 4.76229C5.8998 4.67439 5.78057 4.625 5.65625 4.625C5.53193 4.625 5.4127 4.67439 5.32479 4.76229C5.23689 4.8502 5.1875 4.96943 5.1875 5.09375ZM0.5 1.8125C0.5 1.3981 0.66462 1.00067 0.957646 0.707646C1.25067 0.41462 1.6481 0.25 2.0625 0.25H9.25C9.45519 0.25 9.65837 0.290415 9.84794 0.368938C10.0375 0.447461 10.2098 0.562554 10.3549 0.707646C10.4999 0.852737 10.615 1.02499 10.6936 1.21456C10.7721 1.40413 10.8125 1.60731 10.8125 1.8125V10.7188C10.8125 10.8431 10.7631 10.9623 10.6752 11.0502C10.5873 11.1381 10.4681 11.1875 10.3438 11.1875H1.4375C1.4375 11.3533 1.50335 11.5122 1.62056 11.6294C1.73777 11.7467 1.89674 11.8125 2.0625 11.8125H10.3438C10.4681 11.8125 10.5873 11.8619 10.6752 11.9498C10.7631 12.0377 10.8125 12.1569 10.8125 12.2812C10.8125 12.4056 10.7631 12.5248 10.6752 12.6127C10.5873 12.7006 10.4681 12.75 10.3438 12.75H2.0625C1.6481 12.75 1.25067 12.5854 0.957646 12.2924C0.66462 11.9993 0.5 11.6019 0.5 11.1875V1.8125ZM9.875 10.25V1.8125C9.875 1.64674 9.80915 1.48777 9.69194 1.37056C9.57473 1.25335 9.41576 1.1875 9.25 1.1875H2.0625C1.89674 1.1875 1.73777 1.25335 1.62056 1.37056C1.50335 1.48777 1.4375 1.64674 1.4375 1.8125V10.25H9.875Z" fill="#343EA8"/>
</svg>
