<svg width="13" height="13" viewBox="0 0 13 13" fill="none" xmlns="http://www.w3.org/2000/svg">
<path d="M8.62516 1.54183C8.62516 1.93141 8.94391 2.25016 9.3335 2.25016H10.7502V10.7502H9.3335C8.94391 10.7502 8.62516 11.0689 8.62516 11.4585C8.62516 11.8481 8.94391 12.1668 9.3335 12.1668H10.7502C11.5293 12.1668 12.1668 11.5293 12.1668 10.7502V2.25016C12.1668 1.471 11.5293 0.833496 10.7502 0.833496H9.3335C8.94391 0.833496 8.62516 1.15225 8.62516 1.54183ZM2.25016 12.1668H3.66683C4.05641 12.1668 4.37516 11.8481 4.37516 11.4585C4.37516 11.0689 4.05641 10.7502 3.66683 10.7502H2.25016V2.25016H3.66683C4.05641 2.25016 4.37516 1.93141 4.37516 1.54183C4.37516 1.15225 4.05641 0.833496 3.66683 0.833496H2.25016C1.471 0.833496 0.833496 1.471 0.833496 2.25016V10.7502C0.833496 11.5293 1.471 12.1668 2.25016 12.1668Z" fill="#343EA8"/>
</svg>
