<svg width="14" height="14" viewBox="0 0 14 14" fill="none" xmlns="http://www.w3.org/2000/svg">
<path d="M3.5 7.87524H5.25V8.75024H3.5V7.87524ZM6.125 7.87524H7.875V8.75024H6.125V7.87524ZM3.5 6.12524H5.25V7.00024H3.5V6.12524ZM6.125 9.62524H7.875V10.5002H6.125V9.62524ZM8.75 6.12524H10.5V7.00024H8.75V6.12524ZM8.75 9.62524H10.5V10.5002H8.75V9.62524Z" fill="#343EA8"/>
<path d="M11.8125 1.31274H2.1875C1.95551 1.31298 1.73308 1.40524 1.56904 1.56928C1.40499 1.73333 1.31273 1.95575 1.3125 2.18774V11.8127C1.31273 12.0447 1.40499 12.2672 1.56904 12.4312C1.73308 12.5953 1.95551 12.6875 2.1875 12.6877H11.8125C12.0445 12.6875 12.2669 12.5953 12.431 12.4312C12.595 12.2672 12.6873 12.0447 12.6875 11.8127V2.18774C12.6873 1.95575 12.595 1.73333 12.431 1.56928C12.2669 1.40524 12.0445 1.31298 11.8125 1.31274ZM11.8125 2.18774V3.93774H2.1875V2.18774H11.8125ZM2.1875 11.8127V4.81274H11.8125V11.8127H2.1875Z" fill="#343EA8"/>
</svg>
