<svg width="14" height="14" viewBox="0 0 14 14" fill="none" xmlns="http://www.w3.org/2000/svg">
<path d="M5 0C3.0725 0 1.5 1.5725 1.5 3.5C1.5 4.705 2.115 5.775 3.047 6.4065C1.2635 7.1715 0 8.9415 0 11H1C1 8.785 2.785 7 5 7C5.6875 7 6.328 7.18 6.8905 7.4845C6.31473 8.19649 6.00043 9.08434 6 10C6 12.203 7.797 14 10 14C12.203 14 14 12.203 14 10C14 7.797 12.203 6 10 6C9.15735 6.00073 8.33666 6.26875 7.656 6.7655C7.43137 6.62756 7.19633 6.50737 6.953 6.406C7.42867 6.08489 7.81841 5.6521 8.0881 5.14549C8.35778 4.63889 8.49921 4.07391 8.5 3.5C8.5 1.5725 6.9275 0 5 0ZM5 1C6.3865 1 7.5 2.1135 7.5 3.5C7.5 4.8865 6.3865 6 5 6C3.6135 6 2.5 4.8865 2.5 3.5C2.5 2.1135 3.6135 1 5 1ZM10 7C11.662 7 13 8.338 13 10C13 11.662 11.662 13 10 13C8.338 13 7 11.662 7 10C7 8.338 8.338 7 10 7ZM11.6405 8.6405L10 10.2815L8.8595 9.1405L8.1405 9.8595L9.6405 11.3595L10 11.703L10.3595 11.3595L12.3595 9.3595L11.6405 8.6405Z" fill="#343EA8"/>
</svg>
