<svg width="16" height="16" viewBox="0 0 16 16" fill="none" xmlns="http://www.w3.org/2000/svg">
<g clip-path="url(#clip0_144_1559)">
<path d="M11.7956 7.99988C11.7937 7.40226 11.7297 6.80646 11.6044 6.2221H13.2044C13.122 5.97835 13.0225 5.74073 12.9067 5.51099H11.4178C11.1379 4.57591 10.7038 3.69414 10.1333 2.9021C9.76888 2.74886 9.38888 2.6356 9 2.56433C9.78149 3.40399 10.3714 4.4033 10.7289 5.49321H8.33334V2.48877H7.66667V5.49766H5.27112C5.62937 4.40577 6.22082 3.40486 7.00445 2.56433C6.61724 2.63441 6.23874 2.74618 5.87556 2.89766C5.30287 3.68638 4.86576 4.5651 4.58223 5.49766H3.08445C2.96648 5.73159 2.86548 5.97369 2.78223 6.2221H4.39556C4.27035 6.80646 4.20631 7.40226 4.20445 7.99988C4.20568 8.65356 4.28022 9.30504 4.42667 9.9421H2.85334C2.94528 10.1912 3.0552 10.4333 3.18223 10.6665H4.61778C4.88988 11.518 5.29325 12.3218 5.81334 13.0488C6.18577 13.2085 6.57483 13.3263 6.97334 13.3999C6.24797 12.6087 5.69012 11.6789 5.33334 10.6665H7.67111V13.4843H8.33778V10.6665H10.6667C10.3087 11.6793 9.74929 12.6091 9.02223 13.3999C9.4226 13.3237 9.81318 13.203 10.1867 13.0399C10.7059 12.3156 11.1093 11.5149 11.3822 10.6665H12.8044C12.9309 10.4377 13.0408 10.2 13.1333 9.95544H11.5556C11.709 9.31471 11.7895 8.65869 11.7956 7.99988ZM7.66667 9.9421H5.11556C4.80266 8.71892 4.78894 7.43837 5.07556 6.20877H7.66667V9.9421ZM10.8844 9.9421H8.33334V6.2221H10.9244C11.0521 6.80598 11.1147 7.40221 11.1111 7.99988C11.1147 8.65409 11.0386 9.30631 10.8844 9.9421Z" fill="#343EA8"/>
<path d="M7.99979 0.888916C6.59334 0.888916 5.21848 1.30598 4.04906 2.08735C2.87965 2.86873 1.9682 3.97934 1.42998 5.27872C0.891753 6.57811 0.750929 8.00792 1.02531 9.38734C1.2997 10.7668 1.97696 12.0338 2.97147 13.0283C3.96598 14.0228 5.23306 14.7001 6.61248 14.9745C7.9919 15.2489 9.4217 15.1081 10.7211 14.5698C12.0205 14.0316 13.1311 13.1202 13.9125 11.9507C14.6938 10.7813 15.1109 9.40647 15.1109 8.00003C15.1109 6.11404 14.3617 4.3053 13.0281 2.97171C11.6945 1.63812 9.88577 0.888916 7.99979 0.888916ZM7.99979 14.2222C6.76915 14.2222 5.56614 13.8573 4.5429 13.1736C3.51967 12.4899 2.72215 11.5181 2.2512 10.3812C1.78026 9.24421 1.65704 7.99312 1.89712 6.78613C2.13721 5.57914 2.72982 4.47044 3.60001 3.60025C4.4702 2.73006 5.5789 2.13745 6.78589 1.89736C7.99288 1.65728 9.24397 1.7805 10.3809 2.25144C11.5179 2.72239 12.4897 3.51991 13.1734 4.54315C13.8571 5.56638 14.222 6.76939 14.222 8.00003C14.222 9.65026 13.5665 11.2329 12.3996 12.3998C11.2327 13.5667 9.65002 14.2222 7.99979 14.2222Z" fill="#343EA8"/>
</g>
<defs>
<clipPath id="clip0_144_1559">
<rect width="16" height="16" fill="white"/>
</clipPath>
</defs>
</svg>
