<svg width="16" height="16" viewBox="0 0 16 16" fill="none" xmlns="http://www.w3.org/2000/svg">
<path d="M10.5 11.5C11.0523 11.5 11.5 11.0523 11.5 10.5C11.5 9.94772 11.0523 9.5 10.5 9.5C9.94772 9.5 9.5 9.94772 9.5 10.5C9.5 11.0523 9.94772 11.5 10.5 11.5Z" fill="#343EA8"/>
<path d="M3.5 4.5C4.05228 4.5 4.5 4.05228 4.5 3.5C4.5 2.94772 4.05228 2.5 3.5 2.5C2.94772 2.5 2.5 2.94772 2.5 3.5C2.5 4.05228 2.94772 4.5 3.5 4.5Z" fill="#343EA8"/>
<path d="M13.5 15.5C13.1044 15.5 12.7178 15.3827 12.3889 15.1629C12.06 14.9432 11.8036 14.6308 11.6522 14.2654C11.5009 13.8999 11.4613 13.4978 11.5384 13.1098C11.6156 12.7219 11.8061 12.3655 12.0858 12.0858C12.3655 11.8061 12.7219 11.6156 13.1098 11.5384C13.4978 11.4613 13.8999 11.5009 14.2654 11.6522C14.6308 11.8036 14.9432 12.06 15.1629 12.3889C15.3827 12.7178 15.5 13.1044 15.5 13.5C15.4984 14.0299 15.2872 14.5377 14.9125 14.9125C14.5377 15.2872 14.0299 15.4984 13.5 15.5ZM13.5 12.5C13.3022 12.5 13.1089 12.5587 12.9444 12.6685C12.78 12.7784 12.6518 12.9346 12.5761 13.1173C12.5004 13.3 12.4806 13.5011 12.5192 13.6951C12.5578 13.8891 12.653 14.0673 12.7929 14.2071C12.9327 14.347 13.1109 14.4422 13.3049 14.4808C13.4989 14.5194 13.7 14.4996 13.8827 14.4239C14.0654 14.3482 14.2216 14.22 14.3315 14.0556C14.4414 13.8911 14.5 13.6978 14.5 13.5C14.4992 13.235 14.3936 12.9811 14.2062 12.7938C14.0189 12.6064 13.765 12.5008 13.5 12.5Z" fill="#343EA8"/>
<path d="M15 8.00005C14.9946 6.1452 14.2554 4.36786 12.9438 3.05628C11.6322 1.7447 9.85485 1.00546 8 1.00005C6.80563 0.983017 5.62952 1.29434 4.6 1.90005L5.15 2.75005C5.54084 2.5622 5.94141 2.3953 6.35 2.25005C5.52345 3.88101 5.06273 5.67268 5 7.50005H2C2.05602 6.67448 2.29514 5.87172 2.7 5.15005L1.95 4.50005C1.32786 5.56154 0.999934 6.76968 1 8.00005C0.999869 8.91934 1.18084 9.82965 1.53258 10.679C1.88431 11.5283 2.39992 12.3001 3.04996 12.9501C3.7 13.6001 4.47172 14.1157 5.32106 14.4675C6.1704 14.8192 7.08071 15.0002 8 15.0001C8.89134 15.0084 9.77535 14.8384 10.6 14.5001L10.3 13.5501C9.48024 13.9006 8.58989 14.0547 7.7 14.0001C6.63373 12.3601 6.04509 10.4557 6 8.50005H14.95C14.9913 8.33678 15.0082 8.16828 15 8.00005ZM6.4 13.8001C5.40573 13.502 4.49713 12.9706 3.75 12.2501C2.75793 11.2349 2.14077 9.91245 2 8.50005H5C5.0688 10.3485 5.54696 12.1587 6.4 13.8001ZM6 7.50005C6.03977 5.55081 6.61022 3.64929 7.65 2.00005H8.35C9.38978 3.64929 9.96023 5.55081 10 7.50005H6ZM11 7.50005C10.962 5.64712 10.482 3.83006 9.6 2.20005C10.7764 2.53914 11.8222 3.22741 12.599 4.17379C13.3757 5.12017 13.8468 6.28008 13.95 7.50005H11Z" fill="#343EA8"/>
</svg>
