<svg width="15" height="11" viewBox="0 0 15 11" fill="none" xmlns="http://www.w3.org/2000/svg">
<path d="M12.7262 1.35625C11.3648 0.678906 9.55859 0.320312 7.5 0.320312C5.44141 0.320312 3.63516 0.678906 2.27383 1.35625C0.9125 2.03359 0.195312 2.95 0.195312 3.90625V7.09375C0.195312 8.05 0.952344 8.97969 2.27383 9.64375C3.59531 10.3078 5.44141 10.6797 7.5 10.6797C9.55859 10.6797 11.3648 10.3211 12.7262 9.64375C14.0875 8.96641 14.8047 8.05 14.8047 7.09375V3.90625C14.8047 2.95 14.0477 2.02031 12.7262 1.35625ZM2.63242 2.07344C3.86094 1.45586 5.5875 1.11719 7.5 1.11719C9.4125 1.11719 11.1391 1.45586 12.3676 2.07344C13.4102 2.59141 14.0078 3.26211 14.0078 3.90625C14.0078 4.55039 13.4102 5.22109 12.3676 5.73906C11.1391 6.35664 9.4125 6.69531 7.5 6.69531C5.5875 6.69531 3.86094 6.35664 2.63242 5.73906C1.58984 5.22109 0.992188 4.55039 0.992188 3.90625C0.992188 3.26211 1.58984 2.59141 2.63242 2.07344ZM7.10156 7.48555V9.87617C5.82656 9.84297 4.63789 9.65703 3.64844 9.33828V6.9875C4.66445 7.28633 5.82656 7.45898 7.10156 7.48555ZM7.89844 7.48555C9.17344 7.45898 10.3355 7.28633 11.3516 6.9875V9.33828C10.3621 9.65703 9.17344 9.84297 7.89844 9.87617V7.48555ZM0.992188 7.09375V5.56641C1.3709 5.92741 1.80323 6.22759 2.27383 6.45625C2.45977 6.54922 2.65234 6.62891 2.85156 6.70859V9.03281L2.63242 8.92656C1.58984 8.40859 0.992188 7.73789 0.992188 7.09375ZM12.3676 8.92656L12.1484 9.03281V6.70859C12.3477 6.62891 12.5402 6.54922 12.7262 6.45625C13.1968 6.22759 13.6291 5.92741 14.0078 5.56641V7.09375C14.0078 7.73789 13.4102 8.40859 12.3676 8.92656Z" fill="#343EA8"/>
</svg>
