<svg width="16" height="10" viewBox="0 0 16 10" fill="none" xmlns="http://www.w3.org/2000/svg">
<path d="M8.015 0.5C5.5385 0.5 3.609 1.03 2.2775 2.077C1.1315 2.9775 0.5 4.236 0.5 5.621C0.5 8.035 2.3165 10 4.549 10C5.584 10 6.5685 9.455 7.1885 8.533L7.744 7.666C7.814 7.562 7.91 7.506 8.0145 7.506C8.1185 7.506 8.2155 7.5625 8.2795 7.657L8.8475 8.543C9.4615 9.455 10.4465 10 11.4815 10C13.66 10 15.5 7.959 15.5 5.543C15.5 4.1695 14.875 2.9275 13.74 2.045C12.4215 1.02 10.4955 0.5 8.015 0.5ZM8.015 1.5C10.2365 1.5 12.004 1.9615 13.127 2.834C14.2615 3.7165 14.5 4.794 14.5 5.543C14.5 7.385 13.09 9 11.4815 9C10.78 9 10.1045 8.6205 9.6825 7.993L9.1145 7.108C8.8605 6.7315 8.4495 6.506 8.0145 6.506C7.58 6.506 7.1685 6.73 6.908 7.117L6.3515 7.9845C5.924 8.62 5.2505 9 4.549 9C2.725 9 1.5 7.2525 1.5 5.621C1.5 4.5495 1.995 3.5705 2.895 2.8635C4.03 1.9715 5.8 1.5 8.015 1.5ZM5 3C3.812 3 3.0505 3.732 2.702 4.168C2.57109 4.33375 2.49988 4.53879 2.49988 4.75C2.49988 4.96121 2.57109 5.16625 2.702 5.332C3.0505 5.7685 3.8125 6.5 5 6.5C6.188 6.5 6.9495 5.768 7.298 5.332C7.42891 5.16625 7.50012 4.96121 7.50012 4.75C7.50012 4.53879 7.42891 4.33375 7.298 4.168C6.9495 3.7315 6.1875 3 5 3ZM11 3C9.812 3 9.0505 3.732 8.702 4.168C8.57109 4.33375 8.49988 4.53879 8.49988 4.75C8.49988 4.96121 8.57109 5.16625 8.702 5.332C9.0505 5.7685 9.8125 6.5 11 6.5C12.188 6.5 12.9495 5.768 13.298 5.332C13.4289 5.16625 13.5001 4.96121 13.5001 4.75C13.5001 4.53879 13.4289 4.33375 13.298 4.168C12.9495 3.7315 12.1875 3 11 3ZM5 4C5.7335 4 6.2325 4.4515 6.4825 4.75C6.2325 5.0485 5.734 5.5 5 5.5C4.2665 5.5 3.7675 5.0485 3.5175 4.75C3.7675 4.4515 4.266 4 5 4ZM11 4C11.7335 4 12.2325 4.4515 12.4825 4.75C12.2325 5.0485 11.734 5.5 11 5.5C10.2665 5.5 9.7675 5.0485 9.5175 4.75C9.7675 4.4515 10.266 4 11 4Z" fill="#343EA8"/>
</svg>
