<svg width="13" height="13" viewBox="0 0 13 13" fill="none" xmlns="http://www.w3.org/2000/svg">
<path d="M7.03125 5.96875C7.03125 5.82785 6.97528 5.69273 6.87565 5.5931C6.77602 5.49347 6.6409 5.4375 6.5 5.4375C6.3591 5.4375 6.22398 5.49347 6.12435 5.5931C6.02472 5.69273 5.96875 5.82785 5.96875 5.96875V7.03125H4.90625C4.76535 7.03125 4.63023 7.08722 4.5306 7.18685C4.43097 7.28648 4.375 7.4216 4.375 7.5625C4.375 7.7034 4.43097 7.83852 4.5306 7.93815C4.63023 8.03778 4.76535 8.09375 4.90625 8.09375H5.96875V9.15625C5.96875 9.29715 6.02472 9.43227 6.12435 9.5319C6.22398 9.63153 6.3591 9.6875 6.5 9.6875C6.6409 9.6875 6.77602 9.63153 6.87565 9.5319C6.97528 9.43227 7.03125 9.29715 7.03125 9.15625V8.09375H8.09375C8.23465 8.09375 8.36977 8.03778 8.4694 7.93815C8.56903 7.83852 8.625 7.7034 8.625 7.5625C8.625 7.4216 8.56903 7.28648 8.4694 7.18685C8.36977 7.08722 8.23465 7.03125 8.09375 7.03125H7.03125V5.96875ZM4.375 0.125H8.625C8.7659 0.125 8.90102 0.180971 9.00065 0.2806C9.10028 0.380228 9.15625 0.515354 9.15625 0.65625V2.78125H10.75C11.3136 2.78125 11.8541 3.00513 12.2526 3.40365C12.6511 3.80216 12.875 4.34266 12.875 4.90625V10.2188C12.875 10.7823 12.6511 11.3228 12.2526 11.7214C11.8541 12.1199 11.3136 12.3438 10.75 12.3438H2.25C1.68641 12.3438 1.14591 12.1199 0.747398 11.7214C0.348883 11.3228 0.125 10.7823 0.125 10.2188V4.90625C0.125 4.34266 0.348883 3.80216 0.747398 3.40365C1.14591 3.00513 1.68641 2.78125 2.25 2.78125H3.84375V0.65625C3.84375 0.515354 3.89972 0.380228 3.99935 0.2806C4.09898 0.180971 4.2341 0.125 4.375 0.125ZM8.09375 2.78125V1.1875H4.90625V2.78125H8.09375ZM2.25 3.84375C1.96821 3.84375 1.69796 3.95569 1.4987 4.15495C1.29944 4.35421 1.1875 4.62446 1.1875 4.90625V10.2188C1.1875 10.5005 1.29944 10.7708 1.4987 10.9701C1.69796 11.1693 1.96821 11.2812 2.25 11.2812H10.75C11.0318 11.2812 11.302 11.1693 11.5013 10.9701C11.7006 10.7708 11.8125 10.5005 11.8125 10.2188V4.90625C11.8125 4.62446 11.7006 4.35421 11.5013 4.15495C11.302 3.95569 11.0318 3.84375 10.75 3.84375H2.25Z" fill="#343EA8"/>
</svg>
