<svg width="15" height="13" viewBox="0 0 15 13" fill="none" xmlns="http://www.w3.org/2000/svg">
<path d="M14.5312 2.75C14.5312 2.5625 14.4375 2.42188 14.2969 2.32812L11.0156 0.453125C10.9219 0.40625 10.875 0.40625 10.7812 0.40625C10.6875 0.40625 10.6406 0.40625 10.5469 0.453125L7.5 2.1875L4.45312 0.453125C4.35938 0.40625 4.3125 0.40625 4.21875 0.40625C4.125 0.40625 4.07812 0.40625 3.98438 0.453125L0.703125 2.32812C0.5625 2.42188 0.46875 2.5625 0.46875 2.75V12.125C0.46875 12.4062 0.65625 12.5938 0.9375 12.5938C1.03125 12.5938 1.07812 12.5469 1.17188 12.5469L4.21875 10.8125L7.26562 12.5469C7.35938 12.5938 7.40625 12.5938 7.5 12.5938C7.59375 12.5938 7.64062 12.5938 7.73438 12.5469L10.7812 10.8125L13.8281 12.5469C13.875 12.5938 13.9688 12.5938 14.0625 12.5938C14.3438 12.5938 14.5312 12.4062 14.5312 12.125V2.75ZM1.40625 3.03125L3.75 1.67187V9.96875L1.40625 11.3281V3.03125ZM7.03125 11.3281L4.6875 9.96875V1.67187L7.03125 3.03125V11.3281ZM10.3125 9.96875L7.96875 11.3281V3.03125L10.3125 1.67187V9.96875ZM11.25 9.96875V1.67187L13.5938 3.03125V11.3281L11.25 9.96875Z" fill="#343EA8"/>
</svg>
