<svg width="14" height="16" viewBox="0 0 14 16" fill="none" xmlns="http://www.w3.org/2000/svg">
<path d="M7.00024 0.800049C6.30365 0.799952 5.62667 1.03069 5.07514 1.45618C4.52361 1.88168 4.12862 2.47794 3.95194 3.15175C3.18886 3.35169 2.52853 3.83058 2.10143 4.4938C1.67434 5.15702 1.51155 5.95632 1.64524 6.73375C1.08426 7.10989 0.659037 7.65639 0.432304 8.29261C0.205571 8.92883 0.189336 9.62108 0.385995 10.2672C0.582653 10.9134 0.98179 11.4792 1.52452 11.8812C2.06725 12.2833 2.72483 12.5002 3.40024 12.5H5.20024V14.075C5.20024 14.696 5.70424 15.2 6.32524 15.2H7.67524C8.29624 15.2 8.80024 14.696 8.80024 14.075V12.5H10.6002C11.2757 12.5002 11.9332 12.2833 12.476 11.8812C13.0187 11.4792 13.4178 10.9134 13.6145 10.2672C13.8111 9.62108 13.7949 8.92883 13.5682 8.29261C13.3414 7.65639 12.9162 7.10989 12.3552 6.73375C12.4889 5.95632 12.3261 5.15702 11.899 4.4938C11.472 3.83058 10.8116 3.35169 10.0485 3.15175C9.87186 2.47794 9.47687 1.88168 8.92534 1.45618C8.37381 1.03069 7.69683 0.799952 7.00024 0.800049ZM7.90024 12.5V14.075C7.90024 14.1347 7.87653 14.192 7.83434 14.2341C7.79214 14.2763 7.73491 14.3 7.67524 14.3H6.32524C6.26557 14.3 6.20834 14.2763 6.16614 14.2341C6.12394 14.192 6.10024 14.1347 6.10024 14.075V12.5H7.90024ZM4.77724 3.60085C4.86011 3.07078 5.12965 2.58777 5.53727 2.23892C5.94488 1.89008 6.46373 1.69837 7.00024 1.69837C7.53675 1.69837 8.0556 1.89008 8.46321 2.23892C8.87083 2.58777 9.14037 3.07078 9.22324 3.60085C9.23776 3.69527 9.28196 3.78263 9.34943 3.85026C9.4169 3.91789 9.50415 3.9623 9.59854 3.97705C9.91435 4.02639 10.216 4.14245 10.4835 4.3175C10.7509 4.49256 10.978 4.72259 11.1496 4.99227C11.3212 5.26195 11.4333 5.5651 11.4786 5.88152C11.5238 6.19795 11.5012 6.52038 11.412 6.82735C11.3831 6.92733 11.3897 7.03427 11.4307 7.12995C11.4717 7.22562 11.5446 7.30411 11.637 7.35205C12.0849 7.58395 12.4418 7.95958 12.6506 8.41865C12.8593 8.87772 12.9078 9.39361 12.7882 9.88354C12.6687 10.3735 12.388 10.809 11.9912 11.1203C11.5944 11.4316 11.1045 11.6005 10.6002 11.6H3.40024C2.89601 11.6003 2.4063 11.4312 2.00967 11.1199C1.61305 10.8085 1.3325 10.373 1.21304 9.8831C1.09358 9.39323 1.14214 8.87742 1.35091 8.41844C1.55969 7.95946 1.91658 7.58392 2.36434 7.35205C2.45674 7.30411 2.52967 7.22562 2.5707 7.12995C2.61173 7.03427 2.61831 6.92733 2.58934 6.82735C2.50052 6.52058 2.47798 6.19842 2.52321 5.88227C2.56843 5.56612 2.68039 5.26321 2.85164 4.99364C3.0229 4.72407 3.24954 4.49401 3.51652 4.31874C3.78349 4.14347 4.0847 4.027 4.40014 3.97705C4.49469 3.96248 4.58214 3.91815 4.64979 3.8505C4.71744 3.78285 4.76177 3.6954 4.77634 3.60085H4.77724Z" fill="#343EA8"/>
</svg>
