<svg width="17" height="12" viewBox="0 0 17 12" fill="none" xmlns="http://www.w3.org/2000/svg">
<path d="M15.7933 4.40899L12.796 3.9472L10.9693 0.963239C10.8735 0.807052 10.7389 0.678257 10.5787 0.589313C10.4184 0.500369 10.2379 0.454289 10.0547 0.45553L2.39942 0.516524C2.17854 0.51839 1.96373 0.589011 1.78483 0.718574C1.60593 0.848138 1.47184 1.03021 1.40117 1.23949L0.53125 3.81907V9.74998H2.35762C2.4996 10.2115 2.7858 10.6153 3.17421 10.9022C3.56261 11.1891 4.03276 11.3439 4.51562 11.3439C4.99849 11.3439 5.46864 11.1891 5.85704 10.9022C6.24545 10.6153 6.53165 10.2115 6.67363 9.74998H10.0607C10.2027 10.2115 10.4889 10.6153 10.8773 10.9022C11.2657 11.1891 11.7359 11.3439 12.2188 11.3439C12.7016 11.3439 13.1718 11.1891 13.5602 10.9022C13.9486 10.6153 14.2348 10.2115 14.3768 9.74998H16.4688V5.19657C16.4696 5.00602 16.4018 4.82154 16.2778 4.6769C16.1537 4.53227 15.9817 4.43716 15.7933 4.40899ZM7.4375 1.53885L10.0631 1.51793L11.5274 3.91012L7.4375 3.90869V1.53885ZM2.40792 1.57896L6.375 1.54735V3.90832L1.623 3.90663L2.40792 1.57896ZM4.51562 10.2812C4.27921 10.2812 4.04811 10.2111 3.85155 10.0798C3.65498 9.94844 3.50177 9.76176 3.4113 9.54334C3.32083 9.32493 3.29716 9.08459 3.34328 8.85272C3.3894 8.62086 3.50324 8.40787 3.67041 8.24071C3.83758 8.07354 4.05056 7.9597 4.28243 7.91357C4.5143 7.86745 4.75464 7.89112 4.97305 7.98159C5.19147 8.07206 5.37815 8.22527 5.50949 8.42184C5.64083 8.61841 5.71094 8.84951 5.71094 9.08592C5.71059 9.40283 5.58454 9.70666 5.36045 9.93074C5.13636 10.1548 4.83253 10.2809 4.51562 10.2812ZM12.2188 10.2812C11.9823 10.2812 11.7512 10.2111 11.5547 10.0798C11.3581 9.94844 11.2049 9.76176 11.1144 9.54334C11.024 9.32493 11.0003 9.08459 11.0464 8.85272C11.0925 8.62086 11.2064 8.40787 11.3735 8.24071C11.5407 8.07354 11.7537 7.9597 11.9856 7.91357C12.2174 7.86745 12.4578 7.89112 12.6762 7.98159C12.8946 8.07206 13.0813 8.22527 13.2126 8.42184C13.344 8.61841 13.4141 8.84951 13.4141 9.08592C13.4137 9.40283 13.2877 9.70666 13.0636 9.93074C12.8395 10.1548 12.5357 10.2809 12.2188 10.2812ZM15.4062 8.68748H14.4406C14.3473 8.16611 14.0736 7.69417 13.6674 7.35424C13.2612 7.01432 12.7484 6.82806 12.2188 6.82806C11.6891 6.82806 11.1763 7.01432 10.7701 7.35424C10.3639 7.69417 10.0902 8.16611 9.99686 8.68748H6.73751C6.64417 8.16611 6.37045 7.69417 5.96427 7.35424C5.55808 7.01432 5.04528 6.82806 4.51562 6.82806C3.98597 6.82806 3.47317 7.01432 3.06698 7.35424C2.6608 7.69417 2.38708 8.16611 2.29374 8.68748H1.59375V4.96959L12.5682 4.98716L15.4062 5.42441V8.68748Z" fill="#343EA8"/>
</svg>
