<svg width="14" height="14" viewBox="0 0 14 14" fill="none" xmlns="http://www.w3.org/2000/svg">
<path d="M4.375 2.62601V3.50101H12.6875V5.2331L11.7168 8.3135H4.0997L3.00595 0.437439H0.4375V1.31244H2.24405L3.3378 9.18851H12.3585L13.5625 5.36768V2.62601H4.375ZM4.83941 10.0718C4.37544 10.0724 3.93063 10.2569 3.60255 10.585C3.27448 10.9131 3.08993 11.3579 3.08941 11.8218C3.08941 12.286 3.27378 12.7311 3.60197 13.0593C3.93016 13.3875 4.37528 13.5718 4.83941 13.5718C5.30353 13.5718 5.74865 13.3875 6.07684 13.0593C6.40503 12.7311 6.58941 12.286 6.58941 11.8218C6.58888 11.3579 6.40434 10.9131 6.07627 10.585C5.74819 10.2569 5.30337 10.0724 4.83941 10.0718ZM4.83941 12.6968C4.66635 12.6968 4.49718 12.6455 4.35328 12.5494C4.20939 12.4532 4.09724 12.3166 4.03101 12.1567C3.96479 11.9968 3.94746 11.8209 3.98122 11.6511C4.01498 11.4814 4.09832 11.3255 4.22069 11.2031C4.34306 11.0808 4.49897 10.9974 4.6687 10.9637C4.83844 10.9299 5.01437 10.9472 5.17425 11.0134C5.33414 11.0797 5.4708 11.1918 5.56694 11.3357C5.66309 11.4796 5.71441 11.6488 5.71441 11.8218C5.71413 12.0538 5.62186 12.2762 5.45782 12.4403C5.29379 12.6043 5.07139 12.6966 4.83941 12.6968ZM10.9644 10.0718C10.5004 10.0724 10.0556 10.2569 9.72755 10.585C9.39948 10.9131 9.21493 11.3579 9.21441 11.8218C9.21441 12.286 9.39878 12.7311 9.72697 13.0593C10.0552 13.3875 10.5003 13.5718 10.9644 13.5718C11.4285 13.5718 11.8737 13.3875 12.2018 13.0593C12.53 12.7311 12.7144 12.286 12.7144 11.8218C12.7139 11.3579 12.5293 10.9131 12.2013 10.585C11.8732 10.2569 11.4284 10.0724 10.9644 10.0718ZM10.9644 12.6968C10.7913 12.6968 10.6222 12.6455 10.4783 12.5494C10.3344 12.4532 10.2222 12.3166 10.156 12.1567C10.0898 11.9968 10.0725 11.8209 10.1062 11.6511C10.14 11.4814 10.2233 11.3255 10.3457 11.2031C10.4681 11.0808 10.624 10.9974 10.7937 10.9637C10.9634 10.9299 11.1394 10.9472 11.2993 11.0134C11.4591 11.0797 11.5958 11.1918 11.6919 11.3357C11.7881 11.4796 11.8394 11.6488 11.8394 11.8218C11.8391 12.0538 11.7469 12.2762 11.5828 12.4403C11.4188 12.6043 11.1964 12.6966 10.9644 12.6968Z" fill="#343EA8"/>
</svg>
