<svg width="15" height="15" viewBox="0 0 15 15" fill="none" xmlns="http://www.w3.org/2000/svg">
<g clip-path="url(#clip0_144_856)">
<path d="M14.0456 7.20417L7.7956 0.954171C7.71753 0.876567 7.61193 0.833008 7.50185 0.833008C7.39177 0.833008 7.28617 0.876567 7.2081 0.954171L0.958101 7.20417C0.88984 7.28388 0.85417 7.38641 0.858221 7.49128C0.862271 7.59614 0.905743 7.69562 0.979949 7.76982C1.05416 7.84403 1.15363 7.8875 1.2585 7.89155C1.36336 7.8956 1.46589 7.85993 1.5456 7.79167L7.49977 1.8375L13.4539 7.79584C13.5336 7.8641 13.6362 7.89977 13.741 7.89572C13.8459 7.89167 13.9454 7.8482 14.0196 7.77399C14.0938 7.69978 14.1373 7.60031 14.1413 7.49544C14.1454 7.39058 14.1097 7.28805 14.0414 7.20834L14.0456 7.20417Z" fill="#343EA8"/>
<path d="M11.6667 13.3334H9.58333V9.16669H5.41667V13.3334H3.33333V7.50002L2.5 8.33336V13.3334C2.5 13.5544 2.5878 13.7663 2.74408 13.9226C2.90036 14.0789 3.11232 14.1667 3.33333 14.1667H6.25V10H8.75V14.1667H11.6667C11.8877 14.1667 12.0996 14.0789 12.2559 13.9226C12.4122 13.7663 12.5 13.5544 12.5 13.3334V8.23336L11.6667 7.40002V13.3334Z" fill="#343EA8"/>
</g>
<defs>
<clipPath id="clip0_144_856">
<rect width="15" height="15" fill="white"/>
</clipPath>
</defs>
</svg>
