<svg width="14" height="12" viewBox="0 0 14 12" fill="none" xmlns="http://www.w3.org/2000/svg">
<path d="M14 0.328003L13.36 0.515503L1.906 4H0V8H1.9065L2.8905 8.297L2.8755 8.3435V8.3595C2.5545 9.4155 3.149 10.5895 4.2505 10.9215C4.2555 10.923 4.2615 10.92 4.2655 10.9215C5.327 11.244 6.502 10.6565 6.8285 9.5465L6.8435 9.4995L13.36 11.4845L14 11.6715V0.328003ZM13 1.672V10.328L2.14 7.015L2.0785 7H1V5H2.078L2.1405 4.985L13 1.6715V1.672ZM3.8435 8.5935L5.8905 9.2035L5.8755 9.25V9.265C5.7035 9.85 5.0825 10.136 4.5475 9.9685C3.9625 9.797 3.6615 9.1915 3.8285 8.656V8.641L3.8435 8.5935Z" fill="#343EA8"/>
</svg>
