<svg width="17" height="17" viewBox="0 0 17 17" fill="none" xmlns="http://www.w3.org/2000/svg">
<g clip-path="url(#clip0_144_882)">
<path d="M14.5729 9.88832C14.8836 9.92654 15.1828 10.0295 15.4512 10.1905H15.4748C15.7537 8.87226 15.6538 7.50197 15.1868 6.23804C15.1432 6.12121 15.0552 6.02635 14.942 5.97415C14.8287 5.92196 14.6994 5.91667 14.5823 5.95943C14.4655 6.00299 14.3706 6.09099 14.3184 6.20423C14.2662 6.31747 14.2609 6.44675 14.3037 6.56388C14.694 7.62695 14.787 8.77631 14.5729 9.88832ZM12.4337 13.4961C11.6108 14.1826 10.6226 14.6417 9.56731 14.8278C9.5053 14.833 9.44493 14.8505 9.38965 14.8791C9.33438 14.9077 9.28528 14.9469 9.24516 14.9945C9.20503 15.042 9.17467 15.0971 9.15581 15.1564C9.13695 15.2157 9.12996 15.2781 9.13523 15.3401C9.1405 15.4021 9.15793 15.4625 9.18653 15.5178C9.21513 15.5731 9.25434 15.6222 9.30192 15.6623C9.3495 15.7024 9.40451 15.7328 9.46382 15.7516C9.52313 15.7705 9.58558 15.7775 9.64759 15.7722H9.73259C10.9904 15.5503 12.1659 14.996 13.1373 14.1667V14.1336C12.8593 13.9747 12.6192 13.7572 12.4337 13.4961ZM7.3762 14.7994C6.66174 14.6661 5.97612 14.4088 5.35037 14.0392C5.08288 13.881 4.82579 13.7059 4.58064 13.515C4.4006 13.7795 4.16539 14.0018 3.8912 14.1667C4.19784 14.4254 4.52472 14.6591 4.8687 14.8655C5.58995 15.2904 6.37913 15.5875 7.20148 15.7439H7.2912C7.41644 15.7551 7.54103 15.7162 7.63756 15.6356C7.73409 15.555 7.79465 15.4394 7.80592 15.3142C7.81719 15.1889 7.77825 15.0643 7.69766 14.9678C7.61707 14.8713 7.50144 14.8107 7.3762 14.7994ZM2.15342 9.98749C2.24878 9.98027 2.34348 9.96607 2.43675 9.94499C2.21165 8.8315 2.29992 7.6774 2.69175 6.6111C2.73496 6.49337 2.72963 6.3633 2.67694 6.24951C2.62425 6.13571 2.52851 6.0475 2.41078 6.00429C2.29306 5.96109 2.16299 5.96641 2.04919 6.01911C1.93539 6.0718 1.84719 6.16754 1.80398 6.28527C1.33624 7.55947 1.24445 8.94123 1.53953 10.2661C1.72903 10.143 1.93597 10.049 2.15342 9.98749Z" fill="#343EA8"/>
<path d="M15.064 10.8611C14.8954 10.7538 14.7071 10.681 14.5102 10.647C14.3132 10.6129 14.1114 10.6183 13.9165 10.6628C13.6695 10.7274 13.4423 10.8524 13.2554 11.0264L11.4279 9.9686C11.7158 9.25752 11.7423 8.46746 11.5028 7.73867C11.2633 7.00989 10.7734 6.38954 10.1199 5.98777L10.0679 5.95471C9.71552 5.75408 9.32734 5.62415 8.92515 5.57221V3.77777C9.30146 3.66518 9.6196 3.41135 9.81293 3.06943C10.0215 2.71629 10.0825 2.29514 9.98262 1.89733C9.88272 1.49952 9.63002 1.15713 9.27932 0.944435C9.10847 0.84448 8.9194 0.779629 8.72317 0.753681C8.52694 0.727733 8.3275 0.741211 8.13654 0.793323C7.93966 0.843514 7.75475 0.932417 7.59259 1.05484C7.43044 1.17727 7.29429 1.33077 7.1921 1.50638C6.98937 1.85782 6.9317 2.27447 7.03135 2.66776C7.131 3.06105 7.3801 3.39998 7.72571 3.61249C7.83366 3.68405 7.95135 3.73972 8.07516 3.77777V5.57221C7.59958 5.63749 7.14533 5.81108 6.74743 6.07962C6.34954 6.34816 6.01861 6.70447 5.78015 7.1211C5.53371 7.54716 5.38775 8.02384 5.35338 8.51483C5.31901 9.00583 5.39714 9.4982 5.58182 9.95443L3.69293 11.0358C3.62619 10.9771 3.55516 10.9234 3.48043 10.8753C3.30836 10.7763 3.11847 10.7122 2.92162 10.6867C2.72478 10.6611 2.52482 10.6746 2.33319 10.7264C2.14155 10.7781 1.96199 10.8671 1.80475 10.9883C1.64752 11.1094 1.5157 11.2604 1.41682 11.4325C1.21283 11.7822 1.15298 12.1977 1.24993 12.5908C1.34689 12.9839 1.59304 13.3238 1.93627 13.5386C2.17152 13.6802 2.44083 13.7553 2.71543 13.7558C2.83977 13.7567 2.96367 13.7408 3.08377 13.7086C3.28523 13.6572 3.47411 13.5652 3.63885 13.4384C3.8036 13.3115 3.94076 13.1524 4.04196 12.9708C4.14317 12.7892 4.20628 12.5888 4.22746 12.382C4.24865 12.1751 4.22744 11.9661 4.16516 11.7678L5.99738 10.71C6.24342 11.0311 6.54585 11.3047 6.88988 11.5175C7.55006 11.9338 8.34419 12.0825 9.11026 11.9333C9.87633 11.7841 10.5566 11.3483 11.0124 10.7147L12.821 11.7583C12.7357 12.0804 12.7563 12.4213 12.8796 12.7308C13.0029 13.0403 13.2224 13.302 13.5057 13.4772C13.739 13.6194 14.007 13.6945 14.2802 13.6944C14.5443 13.6954 14.8041 13.6265 15.033 13.4946C15.2619 13.3627 15.4518 13.1726 15.5835 12.9436C15.7803 12.596 15.8361 12.1862 15.7394 11.7987C15.6428 11.4111 15.401 11.0755 15.064 10.8611ZM3.30571 12.5705C3.25854 12.6476 3.19607 12.7142 3.12216 12.7662C3.04825 12.8182 2.96447 12.8544 2.87599 12.8728C2.78999 12.8975 2.69978 12.9039 2.61114 12.8917C2.52251 12.8795 2.43739 12.8489 2.36127 12.8019C2.20684 12.7061 2.09581 12.5539 2.05173 12.3776C2.00765 12.2013 2.03399 12.0147 2.12516 11.8575C2.16979 11.7802 2.22962 11.7127 2.30104 11.6591C2.37246 11.6056 2.45399 11.567 2.54071 11.5458C2.59298 11.531 2.64695 11.5231 2.70127 11.5222C2.82679 11.5225 2.94963 11.5586 3.05543 11.6261C3.21226 11.7196 3.32625 11.8708 3.37303 12.0473C3.4198 12.2238 3.39564 12.4116 3.30571 12.5705ZM7.92404 1.93138C7.96868 1.85406 8.02851 1.78659 8.09993 1.73302C8.17135 1.67946 8.25288 1.64091 8.3396 1.61971C8.39187 1.60493 8.44584 1.597 8.50015 1.5961C8.61989 1.59666 8.73729 1.62927 8.84015 1.69055C8.99459 1.78637 9.10561 1.93858 9.14969 2.1149C9.19377 2.29121 9.16743 2.47777 9.07627 2.63499C9.03163 2.71231 8.9718 2.77978 8.90038 2.83335C8.82896 2.88691 8.74743 2.92546 8.66071 2.94666C8.57682 2.96933 8.48921 2.97474 8.40317 2.96256C8.31713 2.95039 8.23446 2.92088 8.16016 2.87582C8.00572 2.78 7.8947 2.62779 7.85062 2.45147C7.80654 2.27515 7.83288 2.0886 7.92404 1.93138ZM9.0621 11.0547C8.77007 11.1302 8.46589 11.1466 8.16745 11.1028C7.86901 11.059 7.58235 10.9559 7.32432 10.7997C6.79157 10.4727 6.40786 9.9502 6.25521 9.34399C6.10255 8.73778 6.19306 8.09591 6.50738 7.55555C6.70998 7.20653 7.00069 6.91685 7.35041 6.71547C7.70013 6.51409 8.0966 6.40808 8.50015 6.40805C8.90879 6.40709 9.31011 6.5164 9.66182 6.72443C10.1946 7.05149 10.5783 7.57395 10.7309 8.18016C10.8836 8.78636 10.7931 9.42824 10.4788 9.9686C10.3272 10.2351 10.1237 10.4685 9.88036 10.655C9.63704 10.8416 9.35881 10.9775 9.0621 11.0547ZM14.8468 12.5092C14.7555 12.6654 14.6061 12.7791 14.4313 12.8255C14.3471 12.8475 14.2593 12.8522 14.1732 12.8392C14.0872 12.8262 14.0047 12.7958 13.9307 12.75C13.7763 12.6542 13.6653 12.502 13.6212 12.3256C13.5771 12.1493 13.6034 11.9628 13.6946 11.8055C13.737 11.7218 13.7969 11.6481 13.8702 11.5894C13.9435 11.5308 14.0286 11.4885 14.1196 11.4655C14.173 11.4608 14.2267 11.4608 14.2802 11.4655C14.395 11.4646 14.5078 11.4957 14.606 11.5553C14.7638 11.6504 14.8776 11.804 14.9227 11.9827C14.9678 12.1613 14.9405 12.3505 14.8468 12.5092ZM3.80154 4.72221C4.47807 3.92304 5.34776 3.31019 6.32793 2.94193C6.23305 2.62531 6.2057 2.29229 6.24765 1.96443C5.01974 2.37497 3.92625 3.11104 3.08377 4.09416C3.00048 4.18934 2.95842 4.31371 2.96683 4.43991C2.97524 4.5661 3.03344 4.68379 3.12863 4.76707C3.22381 4.85036 3.34818 4.89242 3.47438 4.88401C3.60057 4.8756 3.71826 4.8174 3.80154 4.72221Z" fill="#343EA8"/>
<path d="M11.6499 3.41418C12.2312 3.76297 12.7512 4.20487 13.1893 4.72223C13.2296 4.76936 13.2788 4.80809 13.3341 4.83621C13.3894 4.86433 13.4496 4.88128 13.5115 4.8861C13.5733 4.89093 13.6355 4.88353 13.6944 4.86432C13.7534 4.84512 13.808 4.81449 13.8551 4.77418C13.9023 4.73387 13.941 4.68467 13.9691 4.6294C13.9972 4.57412 14.0142 4.51385 14.019 4.45202C14.0238 4.39019 14.0164 4.32802 13.9972 4.26905C13.978 4.21008 13.9474 4.15547 13.9071 4.10834C13.4028 3.51002 12.8028 2.9994 12.1315 2.59723C11.6913 2.34125 11.2261 2.13081 10.7432 1.96918C10.7906 2.29473 10.7664 2.62671 10.6724 2.94195C11.0105 3.07249 11.3374 3.23043 11.6499 3.41418Z" fill="#343EA8"/>
</g>
<defs>
<clipPath id="clip0_144_882">
<rect width="17" height="17" fill="white"/>
</clipPath>
</defs>
</svg>
