<svg width="14" height="12" viewBox="0 0 14 12" fill="none" xmlns="http://www.w3.org/2000/svg">
<path d="M3.4001 3.59996C3.29401 3.59996 3.19227 3.64211 3.11726 3.71712C3.04224 3.79214 3.0001 3.89388 3.0001 3.99996V6.39996C3.0001 6.50605 3.04224 6.60779 3.11726 6.68281C3.19227 6.75782 3.29401 6.79996 3.4001 6.79996H10.6001C10.7062 6.79996 10.8079 6.75782 10.8829 6.68281C10.958 6.60779 11.0001 6.50605 11.0001 6.39996V3.99996C11.0001 3.89388 10.958 3.79214 10.8829 3.71712C10.8079 3.64211 10.7062 3.59996 10.6001 3.59996H3.4001ZM3.8001 5.99996V4.39996H10.2001V5.99996H3.8001ZM8.2001 7.59997C8.09401 7.59997 7.99227 7.64211 7.91725 7.71712C7.84224 7.79214 7.8001 7.89388 7.8001 7.99997V9.59997C7.8001 9.70605 7.84224 9.80779 7.91725 9.88281C7.99227 9.95782 8.09401 9.99996 8.2001 9.99996H10.6001C10.7062 9.99996 10.8079 9.95782 10.8829 9.88281C10.958 9.80779 11.0001 9.70605 11.0001 9.59997V7.99997C11.0001 7.89388 10.958 7.79214 10.8829 7.71712C10.8079 7.64211 10.7062 7.59997 10.6001 7.59997H8.2001ZM8.6001 9.19997V8.39997H10.2001V9.19997H8.6001ZM0.600098 1.59996C0.600098 1.2817 0.726526 0.97648 0.95157 0.751437C1.17661 0.526393 1.48184 0.399965 1.8001 0.399965H12.2001C12.4835 0.399543 12.7579 0.499429 12.9747 0.681934C13.1915 0.864438 13.3367 1.11778 13.3846 1.39709C13.4325 1.67641 13.38 1.96366 13.2364 2.20798C13.0929 2.4523 12.8674 2.63792 12.6001 2.73196V11.2C12.6001 11.3061 12.558 11.4078 12.4829 11.4828C12.4079 11.5578 12.3062 11.6 12.2001 11.6H1.8001C1.69401 11.6 1.59227 11.5578 1.51726 11.4828C1.44224 11.4078 1.4001 11.3061 1.4001 11.2V2.73196C1.16604 2.64921 0.963401 2.4959 0.82012 2.29316C0.67684 2.09042 0.599968 1.84823 0.600098 1.59996ZM1.8001 1.19996C1.69401 1.19996 1.59227 1.24211 1.51726 1.31712C1.44224 1.39214 1.4001 1.49388 1.4001 1.59996C1.4001 1.70605 1.44224 1.80779 1.51726 1.88281C1.59227 1.95782 1.69401 1.99996 1.8001 1.99996H12.2001C12.3062 1.99996 12.4079 1.95782 12.4829 1.88281C12.558 1.80779 12.6001 1.70605 12.6001 1.59996C12.6001 1.49388 12.558 1.39214 12.4829 1.31712C12.4079 1.24211 12.3062 1.19996 12.2001 1.19996H1.8001ZM2.2001 2.79996V10.8H3.0001V7.99997C3.0001 7.89388 3.04224 7.79214 3.11726 7.71712C3.19227 7.64211 3.29401 7.59997 3.4001 7.59997H6.6001C6.70618 7.59997 6.80793 7.64211 6.88294 7.71712C6.95796 7.79214 7.0001 7.89388 7.0001 7.99997V10.8H11.8001V2.79996H2.2001ZM3.8001 10.8H6.2001V8.39997H3.8001V10.8Z" fill="#343EA8"/>
</svg>
