<svg width="52" height="52" viewBox="0 0 52 52" fill="none" xmlns="http://www.w3.org/2000/svg">
<path d="M50.8828 24.2633L45.1648 18.9414V1.45234H38.4922V12.7359L26 1.11719L1.11719 24.2633H6.83516V50.8828H20.1805V37.8523C20.1805 35.2727 22.8312 33.1297 26 33.1297C29.1688 33.1297 31.8195 35.2625 31.8195 37.8523V50.7711H45.0531V24.2633H50.8828ZM40.4016 3.47344H43.1539V17.0625L40.4016 14.5031V3.47344ZM6.30703 22.232L26 3.80859L45.8047 22.232H6.30703ZM43.1539 48.75H33.7289V37.8523C33.7289 34.0336 30.2352 30.9969 26 30.9969C21.7648 30.9969 18.2711 34.1453 18.2711 37.8523V48.75H8.84609V24.2633H43.1539V48.75Z" fill="#343EA8"/>
<path d="M26 10.9993C23.5625 10.9993 21.6633 12.7969 21.6633 15.1532C21.6633 17.3977 23.5727 19.3071 26 19.3071C28.3258 19.3071 30.3367 17.5094 30.3367 15.1532C30.3367 12.9086 28.3258 10.9993 26 10.9993ZM26 17.2961C24.7305 17.2961 23.6742 16.2805 23.6742 15.1633C23.6742 14.0461 24.7305 13.0305 26 13.0305C27.2695 13.0305 28.3258 14.0461 28.3258 15.1633C28.3258 16.2805 27.2695 17.2961 26 17.2961Z" fill="#343EA8"/>
</svg>
