<svg width="50" height="50" viewBox="0 0 50 50" fill="none" xmlns="http://www.w3.org/2000/svg">
<g clip-path="url(#clip0_425_1331)">
<path d="M25 0C11.1931 0 0 11.1931 0 25C0 38.8069 11.1931 50 25 50C38.8069 50 50 38.8069 50 25C50 11.1931 38.8069 0 25 0ZM25 48.3333C12.1136 48.3333 1.6667 37.8864 1.6667 25C1.6667 12.1136 12.1136 1.6667 25 1.6667C37.8864 1.6667 48.3333 12.1136 48.3333 25C48.3333 37.8864 37.8864 48.3333 25 48.3333Z" fill="#343EA8"/>
<path d="M25 11.6667C17.6364 11.6667 11.6667 17.6365 11.6667 25C11.6667 32.3636 17.6364 38.3333 25 38.3333C32.3636 38.3333 38.3333 32.3636 38.3333 25C38.3333 17.6365 32.3636 11.6667 25 11.6667ZM25 36.6667C18.5569 36.6667 13.3333 31.4432 13.3333 25C13.3333 18.557 18.5568 13.3333 25 13.3333C31.4431 13.3333 36.6667 18.557 36.6667 25C36.6667 31.4431 31.4431 36.6667 25 36.6667Z" fill="#343EA8"/>
<path d="M42.0143 20.8877C42.122 21.3352 42.5721 21.6106 43.0195 21.5027C43.467 21.395 43.7424 20.9449 43.6346 20.4975C43.3648 19.3774 42.9948 18.2876 42.53 17.2391C42.3435 16.8184 41.8512 16.6284 41.4304 16.815C41.0097 17.0016 40.8198 17.4939 41.0064 17.9147C41.4306 18.8713 41.7682 19.8657 42.0143 20.8877Z" fill="#343EA8"/>
<path d="M29.3897 8.05492C30.4072 8.31771 31.396 8.67162 32.3459 9.11166C32.7635 9.30511 33.2589 9.12337 33.4523 8.7057C33.6457 8.28812 33.464 7.79271 33.0463 7.59935C32.0053 7.11722 30.9216 6.72933 29.8064 6.44125C29.3607 6.32611 28.9062 6.59408 28.7911 7.03968C28.6761 7.48529 28.9441 7.93988 29.3897 8.05492Z" fill="#343EA8"/>
<path d="M8.06741 29.4376C7.951 28.9922 7.49573 28.7256 7.05042 28.842C6.6051 28.9584 6.3385 29.4136 6.45481 29.8589C6.74602 30.9733 7.13704 32.0559 7.62219 33.0956C7.81682 33.5127 8.31262 33.6929 8.72971 33.4984C9.1468 33.3038 9.32708 32.8079 9.13254 32.3909C8.68987 31.4421 8.33313 30.4543 8.06741 29.4376Z" fill="#343EA8"/>
<path d="M7.50304 24.6686C7.52267 23.6114 7.63614 22.5677 7.84064 21.5459C7.93097 21.0946 7.63839 20.6555 7.18702 20.5652C6.73575 20.4749 6.29669 20.7674 6.20636 21.2188C5.98234 22.3381 5.85812 23.4809 5.83663 24.6378C5.82814 25.0979 6.19415 25.4779 6.65441 25.4864C7.11456 25.4949 7.49454 25.1288 7.50304 24.6686Z" fill="#343EA8"/>
<path d="M10.8895 13.2651C10.5229 12.9869 10.0002 13.0586 9.72196 13.4252C9.02753 14.3405 8.4163 15.3163 7.89648 16.3411C7.68827 16.7515 7.85224 17.2531 8.26269 17.4613C8.67314 17.6695 9.1747 17.5055 9.3829 17.0951C9.85751 16.1595 10.4156 15.2685 11.0497 14.4327C11.3278 14.066 11.2561 13.5432 10.8895 13.2651Z" fill="#343EA8"/>
<path d="M21.5349 7.84293C22.5567 7.63775 23.6004 7.52359 24.6575 7.50338C25.1177 7.49459 25.4835 7.11441 25.4747 6.65426C25.4659 6.1941 25.0857 5.82828 24.6256 5.83707C23.4688 5.85924 22.3261 5.98424 21.2068 6.20894C20.7556 6.29957 20.4633 6.73883 20.5539 7.19C20.6444 7.64117 21.0837 7.93355 21.5349 7.84293Z" fill="#343EA8"/>
<path d="M14.3734 11.0947C15.2064 10.4572 16.0949 9.89534 17.0284 9.41682C17.438 9.20686 17.5998 8.70461 17.3898 8.29504C17.1799 7.88547 16.6776 7.72366 16.2682 7.93362C15.2457 8.45774 14.2726 9.07307 13.3605 9.77121C12.9951 10.051 12.9256 10.574 13.2054 10.9395C13.485 11.305 14.008 11.3745 14.3734 11.0947Z" fill="#343EA8"/>
<path d="M39.7138 14.0298C40.0697 13.738 40.1217 13.213 39.83 12.8571C39.102 11.969 38.2956 11.1473 37.4214 10.4027C37.071 10.1043 36.545 10.1463 36.2467 10.4967C35.9483 10.8471 35.9903 11.3731 36.3407 11.6714C37.1394 12.3517 37.876 13.1023 38.5411 13.9136C38.8328 14.2696 39.3578 14.3216 39.7138 14.0298Z" fill="#343EA8"/>
<path d="M41.8779 32.219C41.4636 32.0187 40.9652 32.1921 40.7649 32.6066C40.3084 33.551 39.7675 34.4522 39.1494 35.2997C38.8782 35.6715 38.9598 36.1928 39.3317 36.464C39.7036 36.7352 40.2249 36.6536 40.4961 36.2817C41.1728 35.3537 41.7653 34.3666 42.2654 33.332C42.4658 32.9176 42.2923 32.4193 41.8779 32.219Z" fill="#343EA8"/>
<path d="M43.3333 24.1667C42.873 24.1667 42.5 24.5399 42.5 25C42.5 26.0584 42.4061 27.1044 42.221 28.1298C42.1392 28.5828 42.4401 29.0162 42.893 29.0979C43.346 29.1796 43.7794 28.8788 43.8611 28.4258C44.0638 27.3029 44.1666 26.1578 44.1666 25C44.1667 24.5398 43.7935 24.1667 43.3333 24.1667Z" fill="#343EA8"/>
<path d="M13.9177 38.5442C13.1063 37.8795 12.3554 37.143 11.6749 36.3446C11.3764 35.9943 10.8504 35.9523 10.5001 36.2509C10.1498 36.5494 10.1078 37.0754 10.4064 37.4257C11.1512 38.2997 11.9731 39.1057 12.8613 39.8335C13.2174 40.1252 13.7424 40.0729 14.0341 39.717C14.3258 39.3609 14.2737 38.8359 13.9177 38.5442Z" fill="#343EA8"/>
<path d="M35.8895 38.7C35.0688 39.3534 34.191 39.932 33.2671 40.4282C32.8616 40.6459 32.7095 41.1511 32.9272 41.5566C33.1449 41.962 33.6501 42.1142 34.0556 41.8965C35.0676 41.3531 36.0287 40.7194 36.9274 40.004C37.2874 39.7174 37.347 39.1931 37.0604 38.833C36.7738 38.473 36.2495 38.4134 35.8895 38.7Z" fill="#343EA8"/>
<path d="M20.9357 42.0258C19.913 41.7826 18.9177 41.4478 17.9598 41.0263C17.5385 40.841 17.0468 41.0322 16.8614 41.4535C16.6761 41.8748 16.8673 42.3665 17.2886 42.5518C18.3384 43.0138 19.4293 43.3806 20.5501 43.6471C20.9979 43.7536 21.4472 43.4769 21.5536 43.0292C21.6602 42.5815 21.3835 42.1322 20.9357 42.0258Z" fill="#343EA8"/>
<path d="M28.7947 42.0876C27.7767 42.3126 26.7354 42.4467 25.6796 42.487C25.2197 42.5046 24.8611 42.8916 24.8786 43.3514C24.8961 43.8113 25.2832 44.1699 25.7431 44.1524C26.8987 44.1083 28.0391 43.9614 29.1544 43.7149C29.6038 43.6156 29.8876 43.1708 29.7882 42.7214C29.6888 42.2719 29.244 41.9882 28.7947 42.0876Z" fill="#343EA8"/>
</g>
<defs>
<clipPath id="clip0_425_1331">
<rect width="50" height="50" fill="white"/>
</clipPath>
</defs>
</svg>
