<svg width="53" height="53" viewBox="0 0 53 53" fill="none" xmlns="http://www.w3.org/2000/svg">
<g clip-path="url(#clip0_425_1298)">
<path d="M52.2706 38.504L50.9734 38.2552C50.3653 38.1384 49.8865 37.7405 49.6601 37.1628C49.4328 36.5861 49.5137 35.969 49.8802 35.4695L50.695 34.3592C50.9573 34.0017 50.9195 33.5058 50.6051 33.1923L48.8453 31.4335C48.5408 31.1289 48.062 31.0849 47.7063 31.3248L46.6131 32.065C46.1001 32.4135 45.4803 32.4701 44.9108 32.2222C44.343 31.9751 43.9631 31.4811 43.8687 30.8675L43.6594 29.5066C43.593 29.0691 43.2157 28.7457 42.7728 28.7457H40.2845C39.8542 28.7457 39.4832 29.052 39.4024 29.4752L39.0808 31.1505C38.9667 31.7452 38.5795 32.2195 38.0199 32.4512C37.4584 32.6848 36.8512 32.621 36.349 32.2815L34.9369 31.3257C34.5812 31.0858 34.1024 31.1298 33.7978 31.4344L32.0381 33.1932C31.7237 33.5067 31.6859 34.0017 31.9482 34.3601L32.763 35.4704C33.1295 35.9699 33.2103 36.587 32.9831 37.1637C32.7567 37.7414 32.2779 38.1393 31.6698 38.2561L30.3726 38.5049C29.9504 38.5858 29.6441 38.9559 29.6441 39.387V41.8754C29.6441 42.3182 29.9675 42.6955 30.4058 42.7629L31.7668 42.9722C32.3803 43.0665 32.8735 43.4465 33.1214 44.0142C33.3693 44.5828 33.3119 45.2027 32.9642 45.7165L32.224 46.8097C31.9824 47.1655 32.0282 47.6443 32.3327 47.9488L34.0916 49.7086C34.4042 50.0221 34.8992 50.0598 35.2585 49.7984L36.3688 48.9836C36.8682 48.618 37.4872 48.5354 38.0621 48.7636C38.6397 48.9899 39.0377 49.4687 39.1544 50.0769L39.4033 51.374C39.4841 51.7953 39.8542 52.1017 40.2854 52.1017H42.7737C43.2166 52.1017 43.5939 51.7783 43.6612 51.3399L43.8085 50.3832C43.9029 49.7652 44.3044 49.2549 44.8802 49.016C45.4587 48.777 46.1019 48.8552 46.6059 49.2244L47.3865 49.7975C47.7449 50.0607 48.2408 50.0221 48.5534 49.7077L50.3123 47.9479C50.6168 47.6434 50.6626 47.1655 50.421 46.8088L49.6808 45.7156C49.3331 45.2027 49.2756 44.5819 49.5236 44.0133C49.7706 43.4456 50.2647 43.0656 50.8782 42.9713L52.2391 42.762C52.6766 42.6946 53 42.3173 53 41.8745V39.3862C53 38.9559 52.6937 38.5858 52.2706 38.504ZM51.2034 41.1046L50.6042 41.1971C49.3879 41.384 48.3683 42.1691 47.877 43.2965C47.3847 44.4247 47.5033 45.7057 48.1932 46.7235L48.5175 47.2023L47.8276 47.8922L47.6686 47.7754C46.6535 47.0325 45.3554 46.8762 44.193 47.3559C43.0306 47.8374 42.2239 48.8669 42.0326 50.1092L42.003 50.305H41.0274L40.9187 49.7364C40.686 48.5273 39.8632 47.5383 38.7188 47.0891C37.5725 46.64 36.2969 46.8071 35.3052 47.5329L34.8165 47.8913L34.1266 47.2014L34.4509 46.7226C35.1408 45.7039 35.2585 44.4229 34.7671 43.2956C34.2757 42.1682 33.2553 41.3831 32.0399 41.1962L31.4407 41.1046V40.1291L32.0093 40.0204C33.2184 39.7877 34.2075 38.9648 34.6566 37.8204C35.1058 36.6751 34.9396 35.3995 34.2129 34.4068L33.8544 33.9182L34.5443 33.2283L35.3429 33.769C36.3382 34.4446 37.5986 34.5712 38.7089 34.1113C39.8201 33.6505 40.6196 32.6704 40.8468 31.4892L41.0274 30.5423H42.003L42.0955 31.1415C42.2823 32.3578 43.0674 33.3774 44.1948 33.8688C45.3222 34.361 46.6041 34.2425 47.6219 33.5526L48.1007 33.2283L48.7905 33.9182L48.4321 34.4068C47.7045 35.3986 47.5392 36.6742 47.9884 37.8204C48.4375 38.9648 49.4274 39.7877 50.6357 40.0204L51.2034 40.1291V41.1046Z" fill="#343EA8"/>
<path d="M41.322 35.9323C38.8454 35.9323 36.8305 37.9471 36.8305 40.4238C36.8305 42.9004 38.8454 44.9153 41.322 44.9153C43.7987 44.9153 45.8136 42.9004 45.8136 40.4238C45.8136 37.9471 43.7987 35.9323 41.322 35.9323ZM41.322 43.1187C39.8362 43.1187 38.6271 41.9096 38.6271 40.4238C38.6271 38.938 39.8362 37.7289 41.322 37.7289C42.8078 37.7289 44.0169 38.938 44.0169 40.4238C44.0169 41.9096 42.8078 43.1187 41.322 43.1187Z" fill="#343EA8"/>
<path d="M27.5816 28.9964C27.3749 28.7341 26.6132 27.728 25.8739 26.2575L25.8326 26.1748C25.8281 26.1667 25.8245 26.1578 25.82 26.1497C25.7221 25.9529 25.6259 25.7445 25.5289 25.5289L25.484 25.4274C25.4337 25.3133 25.3834 25.1957 25.3331 25.0726C25.316 25.0304 25.299 24.9882 25.2819 24.945C25.2343 24.8265 25.1867 24.7061 25.1355 24.5678C25.0429 24.3234 24.9585 24.0683 24.8759 23.8069L24.8112 23.5949C24.7267 23.3164 24.6486 23.0317 24.5803 22.7379C24.5794 22.7316 24.5767 22.7262 24.5758 22.7199L24.5606 22.6544L24.495 22.3642L24.1878 22.1657C23.6667 21.8306 23.3559 21.2683 23.3559 20.661V17.0678C23.3559 16.5639 23.5697 16.0931 23.9578 15.7428L24.2542 15.476V9.88137V9.56336L24.23 9.5445C24.1985 8.89682 24.2381 6.90798 25.6879 5.2533C27.1764 3.5555 29.7168 2.69493 33.2373 2.69493C36.7452 2.69493 39.2802 3.54921 40.7705 5.23533C42.5195 7.2125 42.2311 9.74213 42.2284 9.76369L42.2203 15.476L42.5168 15.7437C42.9048 16.0931 43.1186 16.5639 43.1186 17.0678V20.661C43.1186 21.4452 42.6057 22.1316 41.8413 22.3669C41.3678 22.5124 41.1019 23.0164 41.2484 23.4898C41.3939 23.9632 41.8943 24.2273 42.3713 24.0827C43.893 23.6138 44.9153 22.2384 44.9153 20.661V17.0678C44.9153 16.2027 44.5928 15.3637 44.0169 14.7098V9.93167C44.0681 9.4376 44.2649 6.49655 42.1377 4.07023C40.2926 1.9655 37.2985 0.898315 33.2373 0.898315C29.1761 0.898315 26.182 1.9655 24.3369 4.06933C23.0478 5.53986 22.6148 7.19633 22.4828 8.38569C20.9422 7.58979 19.1285 7.18645 17.0678 7.18645C7.7353 7.18645 7.19273 15.1409 7.18644 15.2712V19.3845C6.60434 20.0196 6.28814 20.7509 6.28814 21.4776V24.5803C6.28814 25.5496 6.72202 26.4533 7.46581 27.0641C8.20602 29.8579 10.0296 31.9689 10.7392 32.71V35.174C10.7392 35.881 10.3539 36.5296 9.68732 36.8943L3.71269 40.6429C1.42202 41.8916 0 44.2873 0 46.8942V50.3051H12.5763H14.3729H24.2542C24.751 50.3051 25.1525 49.9035 25.1525 49.4068C25.1525 48.91 24.751 48.5085 24.2542 48.5085H14.3729V46.4981C14.3729 44.1885 15.6323 42.0658 17.6589 40.9609L25.6745 36.5898C27.0147 35.8577 27.8475 34.4536 27.8475 32.9274V29.3171L27.639 29.0674C27.6364 29.0656 27.6139 29.0368 27.5816 28.9964ZM26.0508 32.9274C26.0508 33.7969 25.5765 34.5946 24.8139 35.0114L22.437 36.3077L21.854 36.6257L16.7992 39.3826C14.1941 40.8037 12.5763 43.5292 12.5763 46.4972V48.5085H1.79661V46.8942C1.79661 44.9449 2.8602 43.1537 4.61908 42.1934L10.5937 38.4448C11.7912 37.7917 12.5349 36.5395 12.5349 35.174L12.5341 31.9491L12.2511 31.6823C12.2268 31.6608 9.83644 29.3863 9.13486 26.332L9.05312 25.9763L8.7459 25.7787C8.33178 25.511 8.08475 25.0627 8.08475 24.5803V21.4776C8.08475 21.1551 8.30393 20.7697 8.68751 20.423L8.98305 20.1562L8.98125 15.3242C8.99832 15.0655 9.46454 8.98306 17.0678 8.98306C19.2183 8.98306 21.0284 9.47982 22.4576 10.4599V14.7098C21.8818 15.3637 21.5593 16.2027 21.5593 17.0678V20.661C21.5593 21.3042 21.7489 21.9124 22.0633 22.4504C22.2834 22.8268 22.5546 23.1736 22.9041 23.4539C22.9104 23.4772 22.9176 23.4988 22.9238 23.5212C22.9759 23.7198 23.0298 23.9156 23.0873 24.1042L23.1619 24.3486C23.1763 24.3935 23.1915 24.4402 23.2068 24.4851C23.2365 24.5767 23.2652 24.6675 23.2966 24.7573C23.3505 24.9163 23.408 25.0798 23.4745 25.2577C23.5015 25.3286 23.5302 25.3906 23.5572 25.4598C23.6335 25.6556 23.7108 25.8451 23.7916 26.032C23.8069 26.067 23.8213 26.1074 23.8365 26.1425L23.8904 26.2647C23.9147 26.3194 23.9398 26.368 23.965 26.4219C24.0494 26.606 24.133 26.7857 24.2183 26.959C24.2345 26.9914 24.2497 27.0282 24.2659 27.0606L24.3333 27.1917C24.3504 27.2249 24.3665 27.251 24.3836 27.2833C24.5291 27.5636 24.6719 27.8259 24.8139 28.0711C24.8327 28.1044 24.8516 28.1376 24.8705 28.1709C25.0241 28.4332 25.1714 28.6739 25.3115 28.8904C25.3178 28.9003 25.325 28.9111 25.3313 28.9218C25.6277 29.3791 25.8847 29.7375 26.0517 29.9558V32.9274H26.0508Z" fill="#343EA8"/>
</g>
<defs>
<clipPath id="clip0_425_1298">
<rect width="53" height="53" fill="white"/>
</clipPath>
</defs>
</svg>
