<svg width="50" height="50" viewBox="0 0 50 50" fill="none" xmlns="http://www.w3.org/2000/svg">
<g clip-path="url(#clip0_425_1366)">
<path d="M42.6777 7.32231C37.9557 2.60044 31.6778 0 25 0C18.3222 0 12.0443 2.60044 7.32231 7.32231C2.60044 12.0442 0 18.3222 0 25C0 31.6778 2.60044 37.9557 7.32231 42.6777C12.0443 47.3996 18.3222 50 25 50C31.6778 50 37.9557 47.3996 42.6777 42.6777C47.3996 37.9557 50 31.6778 50 25C50 18.3222 47.3996 12.0442 42.6777 7.32231ZM25 48.3517C12.1238 48.3517 1.64835 37.8762 1.64835 25C1.64835 12.1238 12.1238 1.64835 25 1.64835C37.8762 1.64835 48.3517 12.1238 48.3517 25C48.3517 37.8762 37.8762 48.3517 25 48.3517Z" fill="#343EA8"/>
<path d="M44.8868 31.5953C42.9 30.6871 40.4614 29.943 37.7129 29.385C37.8442 27.9483 37.9121 26.4813 37.9121 25C37.9121 23.5188 37.8442 22.0518 37.7129 20.615C40.4614 20.0571 42.9 19.3129 44.8868 18.4047C45.3008 18.2154 45.483 17.7264 45.2937 17.3125C45.1044 16.8985 44.6157 16.7163 44.2015 16.9055C42.3839 17.7364 40.1066 18.43 37.5309 18.9597C37.1818 16.2242 36.6001 13.6252 35.8147 11.279C36.8279 10.7917 37.812 10.2351 38.7595 9.60917C39.1392 9.35829 39.2437 8.84697 38.9929 8.46719C38.742 8.08741 38.2306 7.98291 37.8509 8.23379C37.012 8.78796 36.1426 9.28467 35.2482 9.72258C34.5296 7.89708 33.68 6.25752 32.7135 4.87126C32.4533 4.49796 31.9396 4.40609 31.5662 4.66642C31.1929 4.92675 31.1011 5.44038 31.3614 5.81379C32.27 7.11719 33.0692 8.66477 33.7456 10.3929C31.2369 11.4074 28.5621 11.9779 25.8243 12.0732V4.12093C25.8243 3.66576 25.4554 3.29675 25.0001 3.29675C24.5448 3.29675 24.1759 3.66576 24.1759 4.12093V12.0733C21.4381 11.978 18.7633 11.4075 16.2546 10.393C16.931 8.66488 17.7302 7.11741 18.6388 5.8139C18.8991 5.44049 18.8074 4.92675 18.4341 4.66653C18.0606 4.4062 17.5469 4.49796 17.2867 4.87137C16.3203 6.25763 15.4707 7.89708 14.752 9.72269C13.8576 9.28488 12.9882 8.78818 12.1493 8.2339C11.7697 7.98302 11.2584 8.08752 11.0074 8.4673C10.7565 8.84708 10.861 9.3584 11.2408 9.60928C12.1882 10.2352 13.1723 10.7919 14.1855 11.2791C13.4001 13.6254 12.8185 16.2243 12.4693 18.9598C9.89363 18.4302 7.61638 17.7365 5.79869 16.9057C5.38473 16.7164 4.89561 16.8986 4.70649 17.3126C4.51737 17.7265 4.69956 18.2155 5.11341 18.4048C7.10022 19.313 9.53879 20.0571 12.2874 20.6151C12.1558 22.0518 12.0879 23.5188 12.0879 25C12.0879 26.4813 12.1558 27.9483 12.2871 29.3851C9.53858 29.943 7.1 30.6872 5.11319 31.5954C4.69923 31.7847 4.51704 32.2737 4.70627 32.6876C4.89561 33.1016 5.38451 33.2839 5.79847 33.0946C7.61616 32.2637 9.89341 31.5701 12.4691 31.0404C12.8182 33.7759 13.3999 36.3749 14.1853 38.7211C13.1721 39.2084 12.1881 39.765 11.2406 40.3909C10.8608 40.6418 10.7563 41.1531 11.0071 41.5329C11.2579 41.9127 11.7693 42.0172 12.1491 41.7663C12.988 41.2121 13.8574 40.7154 14.7518 40.2775C15.4704 42.1031 16.32 43.7426 17.2865 45.1288C17.4467 45.3586 17.7029 45.4817 17.9633 45.4817C18.1258 45.4817 18.2903 45.4337 18.4338 45.3336C18.8071 45.0732 18.8989 44.5596 18.6386 44.1861C17.73 42.8826 16.9308 41.3351 16.2544 39.607C18.7631 38.5925 21.4379 38.022 24.1757 37.9266V45.8792C24.1757 46.3343 24.5446 46.7033 24.9999 46.7033C25.4552 46.7033 25.8241 46.3343 25.8241 45.8792V37.9268C28.5619 38.0221 31.2367 38.5926 33.7454 39.6071C33.069 41.3352 32.2698 42.8827 31.3612 44.1862C31.1009 44.5596 31.1926 45.0733 31.5659 45.3337C31.7096 45.4338 31.8738 45.4818 32.0365 45.4818C32.2969 45.4818 32.5531 45.3587 32.7133 45.129C33.6797 43.7427 34.5293 42.1031 35.248 40.2776C36.1424 40.7154 37.0118 41.2121 37.8507 41.7664C37.9904 41.8588 38.1482 41.903 38.3042 41.903C38.5718 41.903 38.8341 41.7729 38.9926 41.533C39.2435 41.1532 39.139 40.6419 38.7592 40.391C37.8117 39.7651 36.8277 39.2085 35.8145 38.7213C36.5999 36.3749 37.1815 33.776 37.5307 31.0405C40.1064 31.5702 42.3836 32.2638 44.2013 33.0947C44.3124 33.1454 44.4288 33.1695 44.5434 33.1695C44.856 33.1695 45.1551 32.9907 45.2935 32.6877C45.483 32.2736 45.3007 31.7846 44.8868 31.5953ZM36.2637 25C36.2637 26.3799 36.2026 27.745 36.0857 29.0821C32.9458 28.5506 29.4643 28.2496 25.8242 28.2101V21.7902C29.4643 21.7506 32.9458 21.4495 36.0857 20.9181C36.2026 22.2551 36.2637 23.6202 36.2637 25ZM34.3043 11.9452C35.0401 14.1768 35.5848 16.6527 35.9104 19.2642C32.8185 19.7941 29.3758 20.1002 25.8242 20.1413V13.7221C28.7541 13.6269 31.6175 13.0238 34.3043 11.9452ZM15.6957 11.9452C18.3825 13.0238 21.2459 13.6268 24.1758 13.7222V20.1414C20.6242 20.1003 17.1815 19.7942 14.0896 19.2643C14.4153 16.6527 14.96 14.1768 15.6957 11.9452ZM13.7363 25C13.7363 23.6202 13.7974 22.2551 13.9143 20.918C17.0542 21.4495 20.5357 21.7505 24.1758 21.7901V28.2099C20.5357 28.2495 17.0542 28.5506 13.9143 29.082C13.7974 27.745 13.7363 26.3799 13.7363 25ZM15.6958 38.0549C14.96 35.8233 14.4153 33.3474 14.0896 30.7359C17.1815 30.206 20.6242 29.8999 24.1758 29.8588V36.278C21.2459 36.3732 18.3825 36.9763 15.6958 38.0549ZM34.3042 38.0549C31.6175 36.9763 28.754 36.3733 25.8242 36.2779V29.8587C29.3758 29.8998 32.8185 30.2059 35.9104 30.7358C35.5847 33.3474 35.04 35.8233 34.3042 38.0549Z" fill="#343EA8"/>
</g>
<defs>
<clipPath id="clip0_425_1366">
<rect width="50" height="50" fill="white"/>
</clipPath>
</defs>
</svg>
