<svg width="17" height="17" viewBox="0 0 17 17" fill="none" xmlns="http://www.w3.org/2000/svg">
<path d="M8.5 1.0625C4.39277 1.0625 1.0625 4.39277 1.0625 8.5C1.0625 12.6072 4.39277 15.9375 8.5 15.9375C12.6072 15.9375 15.9375 12.6072 15.9375 8.5C15.9375 4.39277 12.6072 1.0625 8.5 1.0625ZM11.7124 6.07119L8.21611 10.9188C8.16725 10.9871 8.10283 11.0426 8.02819 11.081C7.95356 11.1193 7.87087 11.1393 7.78696 11.1393C7.70306 11.1393 7.62036 11.1193 7.54573 11.081C7.4711 11.0426 7.40668 10.9871 7.35781 10.9188L5.2876 8.0501C5.22451 7.96211 5.2876 7.83926 5.39551 7.83926H6.17412C6.34346 7.83926 6.50449 7.92061 6.6041 8.06006L7.78613 9.70029L10.3959 6.08115C10.4955 5.94336 10.6549 5.86035 10.8259 5.86035H11.6045C11.7124 5.86035 11.7755 5.9832 11.7124 6.07119Z" fill="#343EA8"/>
</svg>
