<svg width="27" height="27" viewBox="0 0 27 27" fill="none" xmlns="http://www.w3.org/2000/svg">
<circle cx="13.5" cy="13.5" r="13" stroke="#A3A3A3"/>
<g clip-path="url(#clip0_587_2636)">
<path d="M14.8614 14L19.3164 9.545C19.4165 9.42809 19.4689 9.27771 19.4629 9.12391C19.457 8.97011 19.3932 8.82421 19.2844 8.71538C19.1756 8.60654 19.0297 8.54278 18.8759 8.53684C18.7221 8.5309 18.5717 8.58321 18.4548 8.68333L13.9998 13.1383L9.54477 8.67722C9.42786 8.5771 9.27748 8.52479 9.12368 8.53073C8.96988 8.53667 8.82398 8.60043 8.71515 8.70926C8.60631 8.8181 8.54255 8.964 8.53661 9.1178C8.53067 9.2716 8.58298 9.42198 8.6831 9.53889L13.1381 14L8.67699 18.455C8.61302 18.5098 8.56106 18.5772 8.52438 18.653C8.4877 18.7288 8.46709 18.8114 8.46383 18.8956C8.46058 18.9797 8.47476 19.0637 8.50549 19.1421C8.53621 19.2205 8.58281 19.2917 8.64237 19.3513C8.70193 19.4108 8.77315 19.4574 8.85157 19.4882C8.92999 19.5189 9.01392 19.5331 9.09808 19.5298C9.18224 19.5266 9.26482 19.506 9.34064 19.4693C9.41645 19.4326 9.48387 19.3806 9.53866 19.3167L13.9998 14.8617L18.4548 19.3167C18.5717 19.4168 18.7221 19.4691 18.8759 19.4632C19.0297 19.4572 19.1756 19.3935 19.2844 19.2846C19.3932 19.1758 19.457 19.0299 19.4629 18.8761C19.4689 18.7223 19.4165 18.5719 19.3164 18.455L14.8614 14Z" fill="#A3A3A3"/>
</g>
<defs>
<clipPath id="clip0_587_2636">
<rect width="22" height="22" fill="white" transform="translate(3 3)"/>
</clipPath>
</defs>
</svg>
