<svg width="42" height="42" viewBox="0 0 42 42" fill="none" xmlns="http://www.w3.org/2000/svg">
<g clip-path="url(#clip0_587_2531)">
<path d="M38.3218 2.7031C38.7497 2.7031 39.0509 2.78258 39.2078 2.84296C39.3961 3.34433 39.6488 5.14111 37.7916 6.99961L28.3173 16.4732L28.3856 17.6486C28.5293 20.1082 28.7957 24.5162 29.0254 28.2949C29.2282 31.6582 29.4205 34.8344 29.4329 35.1048C29.4395 35.2905 29.4422 35.3345 29.2689 35.5432C28.8817 36.0137 28.1592 36.8111 27.5502 37.4719C26.6059 34.9276 24.6213 29.5536 23.5254 26.5454L22.1171 22.6748L19.204 25.5879L13.847 30.7388L13.1009 31.4836L13.0779 32.5369C13.0602 33.3776 13.0641 34.8863 13.0661 36.2165C13.0687 37.1431 13.0714 37.9851 13.0648 38.4491C13.053 38.4707 13.244 38.4963 13.2263 38.5272C13.1121 38.3441 12.9894 38.1465 12.8594 37.9411C11.7792 36.2185 10.2843 33.8356 9.8282 33.0921L9.49483 32.5474L8.94752 32.2166C6.95711 31.0144 4.75211 29.6264 3.4068 28.7595C3.45339 28.7326 3.49141 28.875 3.52226 28.8586H3.60954C4.03282 28.8586 4.73238 28.8678 5.5166 28.8789C6.54232 28.8927 7.70585 28.9098 8.59638 28.9098C8.93763 28.9098 9.24082 28.9072 9.48494 28.9019L10.5382 28.8776L11.2831 28.1328L16.4405 22.8126L19.3438 19.9106L15.491 18.4931C12.5956 17.4281 7.04964 15.3569 4.45548 14.3824C5.12088 13.7694 5.92282 13.0417 6.39073 12.6544C6.52132 12.5468 6.62308 12.4917 6.69326 12.4917L6.78579 12.4943C7.07519 12.5081 10.6695 12.7431 14.1443 12.9701C17.8331 13.211 21.9963 13.4827 24.3634 13.6329L25.5466 13.7071L35.0222 4.23085C36.3531 2.90194 37.6603 2.7031 38.3218 2.7031ZM38.3219 0.0782194C36.7712 0.0782194 34.8675 0.674012 33.1671 2.37501L24.5289 11.0126C19.6635 10.7048 7.20259 9.88054 6.8935 9.87201C6.82683 9.86863 6.76009 9.86687 6.69334 9.86672C6.27268 9.86672 5.54621 9.94744 4.71934 10.6306C3.74874 11.4332 1.72487 13.3364 1.72487 13.3364C1.23662 13.8259 0.989214 14.4323 1.04828 15.0026C1.08437 15.3471 1.2714 15.9751 2.11731 16.3059C2.63115 16.5074 10.8087 19.5668 14.5848 20.9561L9.42732 26.2763C9.1989 26.2816 8.91606 26.2842 8.59646 26.2842C7.02409 26.2842 4.58612 26.233 3.60892 26.233C3.47964 26.233 3.37595 26.233 3.30241 26.2356C3.00513 26.2448 2.38957 26.0985 0.766006 27.4556L0.650507 27.5632C0.163569 28.0502 0.0493815 28.5358 0.0388815 28.8567C0.0283815 29.1875 0.116975 29.6639 0.595381 30.0471C0.882819 30.2795 4.56766 32.6387 7.58965 34.4637C8.31419 35.6457 11.6479 40.9442 11.8219 41.2316C12.0759 41.6608 12.4912 41.9056 12.988 41.9213H13.0294C13.5124 41.9213 14.0085 41.6818 14.4941 41.21C15.8683 39.6028 15.6787 38.9374 15.6845 38.6578C15.7062 37.7811 15.6694 34.0667 15.7009 32.5941L21.0573 27.4425C22.4262 31.2028 25.4187 39.2963 25.6189 39.8115C25.9522 40.6574 26.5803 40.8431 26.9248 40.8779C26.9812 40.8844 27.039 40.8871 27.0954 40.8871C27.6132 40.8871 28.15 40.6436 28.5897 40.204C28.5897 40.204 30.4869 38.1906 31.2928 37.2108C32.1 36.2317 32.0685 35.3956 32.0528 35.0012C32.0462 34.7282 31.2862 22.3349 31.004 17.4951L39.6442 8.85487C42.7063 5.79145 42.2194 2.10008 41.0821 0.964772C40.5801 0.460116 39.5635 0.0782194 38.3219 0.0781784V0.0782194Z" fill="#343EA8"/>
</g>
<defs>
<clipPath id="clip0_587_2531">
<rect width="42" height="42" fill="white"/>
</clipPath>
</defs>
</svg>
