<svg width="38" height="38" viewBox="0 0 38 38" fill="none" xmlns="http://www.w3.org/2000/svg">
<g clip-path="url(#clip0_587_2577)">
<path d="M38 0V1.1875C38 3.4388 37.8021 5.54167 37.4062 7.49609C37.0104 9.45052 36.3981 11.2998 35.5693 13.0439C34.7406 14.7881 33.7139 16.4456 32.4893 18.0166C31.2646 19.5876 29.8174 21.1276 28.1475 22.6367L24.6035 33.25H19V29.0381C17.293 30.04 15.5674 31.0049 13.8232 31.9326L6.06738 24.1768C6.99512 22.4326 7.95996 20.707 8.96191 19H4.75V13.3965L15.3633 9.87109C16.86 8.20117 18.3939 6.74772 19.9648 5.51074C21.5358 4.27376 23.1995 3.24707 24.9561 2.43066C26.7126 1.61426 28.5618 1.00814 30.5039 0.612305C32.446 0.216471 34.5488 0.0123698 36.8125 0H38ZM10.3535 16.625C10.7122 16.056 11.071 15.4932 11.4297 14.9365C11.7884 14.3799 12.1719 13.8294 12.5801 13.2852L7.125 15.1035V16.625H10.3535ZM14.2686 28.9824C14.8994 28.6237 15.5303 28.2712 16.1611 27.9248C16.792 27.5785 17.4229 27.2197 18.0537 26.8486L11.1514 19.9463C10.7926 20.5771 10.4401 21.208 10.0938 21.8389C9.7474 22.4697 9.38867 23.1068 9.01758 23.75L14.2686 28.9824ZM24.7148 25.4199C24.1706 25.8158 23.6201 26.193 23.0635 26.5518C22.5068 26.9105 21.944 27.2754 21.375 27.6465V30.875H22.8965L24.7148 25.4199ZM28.1104 19.3525C29.335 18.1279 30.3988 16.8848 31.3018 15.623C32.2048 14.3613 32.9717 13.0378 33.6025 11.6523C34.2334 10.2669 34.7034 8.81348 35.0127 7.29199C35.3219 5.77051 35.5199 4.1377 35.6064 2.39355C33.8747 2.4554 32.248 2.64714 30.7266 2.96875C29.2051 3.29036 27.7516 3.7666 26.3662 4.39746C24.9808 5.02832 23.651 5.78906 22.377 6.67969C21.1029 7.57031 19.8473 8.63411 18.6104 9.87109C17.3857 11.071 16.2663 12.3327 15.252 13.6562C14.2376 14.9798 13.2852 16.3776 12.3945 17.8496L20.1504 25.6055C21.61 24.7148 23.0016 23.7624 24.3252 22.748C25.6488 21.7337 26.9105 20.6019 28.1104 19.3525ZM23.75 19C23.0944 19 22.4821 18.8763 21.9131 18.6289C21.3441 18.3815 20.8369 18.0413 20.3916 17.6084C19.9463 17.1755 19.6061 16.6745 19.3711 16.1055C19.1361 15.5365 19.0124 14.918 19 14.25C19 13.5944 19.1237 12.9821 19.3711 12.4131C19.6185 11.8441 19.9587 11.3369 20.3916 10.8916C20.8245 10.4463 21.3255 10.1061 21.8945 9.87109C22.4635 9.63607 23.082 9.51237 23.75 9.5C24.4056 9.5 25.0179 9.6237 25.5869 9.87109C26.1559 10.1185 26.6631 10.4587 27.1084 10.8916C27.5537 11.3245 27.8939 11.8255 28.1289 12.3945C28.3639 12.9635 28.4876 13.582 28.5 14.25C28.5 14.9056 28.3763 15.5179 28.1289 16.0869C27.8815 16.6559 27.5413 17.1631 27.1084 17.6084C26.6755 18.0537 26.1745 18.3939 25.6055 18.6289C25.0365 18.8639 24.418 18.9876 23.75 19ZM23.75 11.875C23.416 11.875 23.1068 11.9368 22.8223 12.0605C22.5378 12.1842 22.2904 12.3512 22.0801 12.5615C21.8698 12.7718 21.6966 13.0254 21.5605 13.3223C21.4245 13.6191 21.3626 13.9284 21.375 14.25C21.375 14.584 21.4368 14.8932 21.5605 15.1777C21.6842 15.4622 21.8512 15.7096 22.0615 15.9199C22.2718 16.1302 22.5254 16.3034 22.8223 16.4395C23.1191 16.5755 23.4284 16.6374 23.75 16.625C24.084 16.625 24.3932 16.5632 24.6777 16.4395C24.9622 16.3158 25.2096 16.1488 25.4199 15.9385C25.6302 15.7282 25.8034 15.4746 25.9395 15.1777C26.0755 14.8809 26.1374 14.5716 26.125 14.25C26.125 13.916 26.0632 13.6068 25.9395 13.3223C25.8158 13.0378 25.6488 12.7904 25.4385 12.5801C25.2282 12.3698 24.9746 12.1966 24.6777 12.0605C24.3809 11.9245 24.0716 11.8626 23.75 11.875ZM4.75 28.5C5.4056 28.5 6.0179 28.6237 6.58691 28.8711C7.15592 29.1185 7.66309 29.4587 8.1084 29.8916C8.55371 30.3245 8.89388 30.8255 9.12891 31.3945C9.36393 31.9635 9.48763 32.582 9.5 33.25C9.5 33.9056 9.3763 34.5179 9.12891 35.0869C8.88151 35.6559 8.54134 36.1631 8.1084 36.6084C7.67546 37.0537 7.17448 37.3939 6.60547 37.6289C6.03646 37.8639 5.41797 37.9876 4.75 38H0V33.25C0 32.5944 0.123698 31.9821 0.371094 31.4131C0.61849 30.8441 0.958659 30.3369 1.3916 29.8916C1.82454 29.4463 2.32552 29.1061 2.89453 28.8711C3.46354 28.6361 4.08203 28.5124 4.75 28.5ZM4.75 35.625C5.08398 35.625 5.39323 35.5632 5.67773 35.4395C5.96224 35.3158 6.20964 35.1488 6.41992 34.9385C6.63021 34.7282 6.80339 34.4746 6.93945 34.1777C7.07552 33.8809 7.13737 33.5716 7.125 33.25C7.125 32.916 7.06315 32.6068 6.93945 32.3223C6.81576 32.0378 6.64876 31.7904 6.43848 31.5801C6.22819 31.3698 5.97461 31.1966 5.67773 31.0605C5.38086 30.9245 5.07161 30.8626 4.75 30.875C4.41602 30.875 4.10677 30.9368 3.82227 31.0605C3.53776 31.1842 3.29036 31.3512 3.08008 31.5615C2.86979 31.7718 2.69661 32.0254 2.56055 32.3223C2.42448 32.6191 2.36263 32.9284 2.375 33.25V35.625H4.75Z" fill="white"/>
</g>
<defs>
<clipPath id="clip0_587_2577">
<rect width="38" height="38" fill="white"/>
</clipPath>
</defs>
</svg>
