<svg width="52" height="52" viewBox="0 0 52 52" fill="none" xmlns="http://www.w3.org/2000/svg">
<g clip-path="url(#clip0_587_2892)">
<path d="M51.9992 20.7642C51.9992 11.6058 45.0451 4.00749 36.0249 3.12591C35.6983 2.00403 34.6626 1.18115 33.4367 1.18115H18.5632C17.3372 1.18115 16.3017 2.00403 15.9751 3.12591C6.95461 4.00863 0 11.6071 0 20.7642V34.9171C0 37.9225 2.44508 40.3676 5.45033 40.3676H9.69333C10.956 40.3676 11.9833 39.3403 11.9833 38.0776V23.0384C11.9833 21.7757 10.956 20.7484 9.69333 20.7484H5.45033C4.09975 20.7484 2.86327 21.2432 1.91012 22.0597V20.7642C1.91012 12.6054 8.09698 5.83318 16.1281 5.03004C16.5612 5.9418 17.4884 6.57519 18.5632 6.57519H33.4367C34.5115 6.57519 35.4387 5.9418 35.8719 5.03004C43.9026 5.83216 50.0891 12.6044 50.0891 20.7643V22.0592C49.136 21.2431 47.8997 20.7484 46.5495 20.7484H42.3065C41.0438 20.7484 40.0166 21.7757 40.0166 23.0384V38.0775C40.0166 39.3402 41.0438 40.3675 42.3065 40.3675H46.5495C47.9001 40.3675 49.1366 39.8726 50.0899 39.056V39.7511C50.0899 43.3598 47.1539 46.2958 43.5452 46.2958H31.9718C31.5531 44.7909 30.1712 43.683 28.5347 43.683H25.0511C23.0838 43.683 21.4832 45.2836 21.4832 47.2509C21.4832 49.2182 23.0838 50.8187 25.0511 50.8187H28.5347C30.1712 50.8187 31.5531 49.7109 31.9718 48.2059H43.5452C48.2071 48.2059 52 44.4132 52 39.7511L51.9992 20.7642ZM10.0733 23.0384V38.0775C10.0733 38.287 9.90294 38.4573 9.69346 38.4573H9.3136V22.6585H9.69346C9.90294 22.6585 10.0733 22.8289 10.0733 23.0384ZM5.45033 22.6585H7.40336V38.4575H5.45033C3.49819 38.4575 1.91012 36.8693 1.91012 34.9171V26.1987C1.91012 24.2466 3.49832 22.6585 5.45033 22.6585ZM33.4367 4.66495H18.5632C18.1293 4.66495 17.7763 4.31196 17.7763 3.87811C17.7763 3.44426 18.1293 3.09127 18.5632 3.09127H33.4367C33.8706 3.09127 34.2237 3.44426 34.2237 3.87811C34.2237 4.31196 33.8706 4.66495 33.4367 4.66495ZM41.9266 38.0775V23.0384C41.9266 22.8289 42.0969 22.6585 42.3064 22.6585H42.6863V38.4575H42.3064C42.0969 38.4575 41.9266 38.287 41.9266 38.0775ZM28.5347 48.9087H25.0511C24.137 48.9087 23.3933 48.1651 23.3933 47.251C23.3933 46.337 24.137 45.5933 25.0511 45.5933H28.5347C29.4489 45.5933 30.1926 46.337 30.1926 47.251C30.1926 48.1651 29.4489 48.9087 28.5347 48.9087ZM46.5495 38.4575H44.5965V22.6585H46.5495C48.5017 22.6585 50.0899 24.2467 50.0899 26.1987V34.9171C50.0899 36.8693 48.5017 38.4575 46.5495 38.4575Z" fill="white"/>
</g>
<defs>
<clipPath id="clip0_587_2892">
<rect width="52" height="52" fill="white"/>
</clipPath>
</defs>
</svg>
