<svg width="15" height="15" viewBox="0 0 15 15" fill="none" xmlns="http://www.w3.org/2000/svg">
<path d="M12.0469 4.35938L8.76563 1.07812C8.67188 0.984375 8.57812 0.9375 8.4375 0.9375H3.75C3.23438 0.9375 2.8125 1.35938 2.8125 1.875V13.125C2.8125 13.6406 3.23438 14.0625 3.75 14.0625H11.25C11.7656 14.0625 12.1875 13.6406 12.1875 13.125V4.6875C12.1875 4.54688 12.1406 4.45312 12.0469 4.35938ZM8.4375 2.0625L11.0625 4.6875H8.4375V2.0625ZM11.25 13.125H3.75V1.875H7.5V4.6875C7.5 5.20312 7.92188 5.625 8.4375 5.625H11.25V13.125Z" fill="#343EA8"/>
<path d="M4.6875 10.3125H10.3125V11.25H4.6875V10.3125ZM4.6875 7.5H10.3125V8.4375H4.6875V7.5Z" fill="#343EA8"/>
</svg>
