<svg width="80" height="80" viewBox="0 0 80 80" fill="none" xmlns="http://www.w3.org/2000/svg">
<circle cx="40" cy="40" r="40" fill="white"/>
<path d="M54.9721 27.7924L47.3695 20.1898C47.248 20.0683 47.0832 20 46.9113 20H26.8681C25.7486 20 24.8379 20.9108 24.8379 22.0302V57.9698C24.8379 59.0892 25.7486 60 26.8681 60H53.1316C54.2511 60 55.1619 59.0892 55.1619 57.9698V28.2505C55.1619 28.0787 55.0936 27.9139 54.9721 27.7924ZM47.5593 22.2122L52.9497 27.6026H48.2936C47.8887 27.6026 47.5593 27.2732 47.5593 26.8683V22.2122ZM53.1316 58.7041H26.8681C26.4632 58.7041 26.1338 58.3747 26.1338 57.9698V22.0302C26.1338 21.6253 26.4632 21.2959 26.8681 21.2959H46.2634V26.8683C46.2634 27.9877 47.1741 28.8985 48.2936 28.8985H53.866V57.9698C53.866 58.3747 53.5366 58.7041 53.1316 58.7041Z" fill="#343EA8"/>
<path d="M29.6328 25.4427H34.4708C34.8287 25.4427 35.1188 25.1526 35.1188 24.7948C35.1188 24.437 34.8287 24.1469 34.4708 24.1469H29.6328C29.275 24.1469 28.9849 24.437 28.9849 24.7948C28.9849 25.1526 29.275 25.4427 29.6328 25.4427Z" fill="#343EA8"/>
<path d="M29.6328 28.8984H37.2354C37.5932 28.8984 37.8834 28.6083 37.8834 28.2505C37.8834 27.8926 37.5932 27.6025 37.2354 27.6025H29.6328C29.275 27.6025 28.9849 27.8926 28.9849 28.2505C28.9849 28.6083 29.275 28.8984 29.6328 28.8984Z" fill="#343EA8"/>
<path d="M35.2051 33.7797C35.2051 34.1375 35.4952 34.4276 35.853 34.4276H44.1468C44.5046 34.4276 44.7947 34.1375 44.7947 33.7797C44.7947 33.4218 44.5046 33.1317 44.1468 33.1317H35.853C35.4952 33.1317 35.2051 33.4218 35.2051 33.7797Z" fill="#343EA8"/>
<path d="M50.3672 36.5875H29.6328C29.275 36.5875 28.9849 36.8776 28.9849 37.2355C28.9849 37.5933 29.275 37.8834 29.6328 37.8834H50.3672C50.725 37.8834 51.0151 37.5933 51.0151 37.2355C51.0151 36.8776 50.725 36.5875 50.3672 36.5875Z" fill="#343EA8"/>
<path d="M42.0734 49.0281H37.2354C36.8775 49.0281 36.5874 49.3182 36.5874 49.676C36.5874 50.0339 36.8775 50.324 37.2354 50.324H42.0734C42.4312 50.324 42.7213 50.0339 42.7213 49.676C42.7213 49.3182 42.4312 49.0281 42.0734 49.0281Z" fill="#343EA8"/>
<path d="M42.0734 52.4838H37.2354C36.8775 52.4838 36.5874 52.7739 36.5874 53.1317C36.5874 53.4896 36.8775 53.7797 37.2354 53.7797H42.0734C42.4312 53.7797 42.7213 53.4896 42.7213 53.1317C42.7213 52.7739 42.4312 52.4838 42.0734 52.4838Z" fill="#343EA8"/>
<path d="M50.3672 40.0432H29.6328C29.275 40.0432 28.9849 40.3333 28.9849 40.6912C28.9849 41.049 29.275 41.3391 29.6328 41.3391H50.3672C50.725 41.3391 51.0151 41.049 51.0151 40.6912C51.0151 40.3333 50.725 40.0432 50.3672 40.0432Z" fill="#343EA8"/>
<path d="M50.3672 43.4989H29.6328C29.275 43.4989 28.9849 43.789 28.9849 44.1468C28.9849 44.5047 29.275 44.7948 29.6328 44.7948H50.3672C50.725 44.7948 51.0151 44.5047 51.0151 44.1468C51.0151 43.789 50.725 43.4989 50.3672 43.4989Z" fill="#343EA8"/>
<path d="M47.6025 48.3369C45.7208 48.3369 44.1899 49.8678 44.1899 51.7494C44.1899 53.6311 45.7208 55.162 47.6025 55.162C49.4841 55.162 51.015 53.6311 51.015 51.7494C51.015 49.8678 49.4841 48.3369 47.6025 48.3369ZM47.6025 53.8661C46.4354 53.8661 45.4858 52.9165 45.4858 51.7494C45.4858 50.5824 46.4354 49.6328 47.6025 49.6328C48.7696 49.6328 49.7191 50.5824 49.7191 51.7494C49.7191 52.9165 48.7696 53.8661 47.6025 53.8661Z" fill="#343EA8"/>
<path d="M47.6023 50.5831C46.9592 50.5831 46.436 51.1063 46.436 51.7494C46.436 52.3925 46.9592 52.9157 47.6023 52.9157C48.2455 52.9157 48.7686 52.3925 48.7686 51.7494C48.7686 51.1063 48.2455 50.5831 47.6023 50.5831Z" fill="#343EA8"/>
</svg>
