<svg width="80" height="80" viewBox="0 0 80 80" fill="none" xmlns="http://www.w3.org/2000/svg">
<circle cx="40" cy="40" r="40" fill="white"/>
<g clip-path="url(#clip0_1_1025)">
<path d="M58.7628 36.7956H43.921C43.9721 36.5241 43.9991 36.2471 43.9991 35.965V26.8475C43.9991 24.3829 41.994 22.3779 39.5295 22.3779H22.4686C20.0045 22.3779 18 24.3829 18 26.8475V35.965C18 38.429 20.0045 40.4335 22.4686 40.4335H25.0939L24.9522 43.7341C24.9394 44.032 25.0939 44.312 25.3526 44.46C25.4754 44.5303 25.6119 44.5652 25.7484 44.5652C25.8992 44.5652 26.0499 44.5223 26.1814 44.4373L32.3676 40.4334H33.1514C32.9895 40.9375 32.9011 41.4742 32.9011 42.0313V53.053C32.9011 55.9401 35.2499 58.2889 38.137 58.2889H40.3991L45.3867 63.3826C45.5392 63.5384 45.7455 63.622 45.956 63.622C46.0445 63.622 46.1338 63.6072 46.2202 63.5768C46.5122 63.4742 46.7183 63.2117 46.7488 62.9038L47.2068 58.2889H58.7629C61.6508 58.2889 64.0001 55.9401 64.0001 53.053V42.0314C64 39.1443 61.6506 36.7956 58.7628 36.7956ZM33.9904 38.8398H32.1322C31.9785 38.8398 31.8282 38.8842 31.6992 38.9678L26.6105 42.2613L26.7218 39.6709C26.7311 39.4538 26.6513 39.2424 26.5011 39.0855C26.3508 38.9285 26.143 38.8398 25.9257 38.8398H22.4686C20.8834 38.8398 19.5936 37.5502 19.5936 35.965V26.8475C19.5936 25.2616 20.8834 23.9716 22.4686 23.9716H39.5297C41.1155 23.9716 42.4056 25.2617 42.4056 26.8475V35.965C42.4056 36.2504 42.3644 36.5283 42.2834 36.7956H38.1369C36.4505 36.7956 34.9488 37.5978 33.9904 38.8398ZM62.4065 53.053C62.4065 55.0614 60.772 56.6954 58.7629 56.6954H46.485C46.0754 56.6954 45.7324 57.0059 45.692 57.4136L45.3315 61.0486L41.3034 56.9348C41.1536 56.7817 40.9483 56.6955 40.7341 56.6955H38.1371C36.1288 56.6955 34.4948 55.0615 34.4948 53.0531V42.0314C34.4948 40.0231 36.1288 38.3892 38.1371 38.3892H58.763V38.3891C60.7721 38.3891 62.4066 40.023 62.4066 42.0313V53.053H62.4065Z" fill="#343EA8"/>
<path d="M34.4693 28.4234C34.361 26.6793 32.964 25.2823 31.2198 25.174C30.2489 25.114 29.3254 25.4461 28.619 26.11C27.9223 26.7647 27.5229 27.6882 27.5229 28.6437C27.5229 29.0839 27.8794 29.4406 28.3197 29.4406C28.7599 29.4406 29.1165 29.0839 29.1165 28.6438C29.1165 28.1186 29.3274 27.6313 29.7103 27.2713C30.0928 26.9117 30.594 26.7317 31.121 26.7644C32.049 26.822 32.821 27.5941 32.8787 28.522C32.9222 29.2229 32.5781 29.8855 31.9805 30.2514C30.8673 30.9328 30.2026 32.1105 30.2026 33.4017C30.2026 33.8418 30.5593 34.1986 30.9995 34.1986C31.4396 34.1986 31.7963 33.8418 31.7963 33.4017C31.7963 32.6696 32.1762 32.0001 32.8126 31.6105C33.9145 30.9361 34.5494 29.7147 34.4693 28.4234Z" fill="#343EA8"/>
<path d="M48.4501 41.5984C48.01 41.5984 47.6533 41.9552 47.6533 42.3952V49.1392C47.6533 49.5792 48.0101 49.936 48.4501 49.936C48.8903 49.936 49.247 49.5792 49.247 49.1392V42.3952C49.2469 41.9552 48.8903 41.5984 48.4501 41.5984Z" fill="#343EA8"/>
<path d="M48.4497 53.506C48.8897 53.506 49.2465 53.1493 49.2465 52.7092C49.2465 52.2691 48.8897 51.9124 48.4497 51.9124C48.0096 51.9124 47.6528 52.2691 47.6528 52.7092C47.6528 53.1493 48.0096 53.506 48.4497 53.506Z" fill="#343EA8"/>
<path d="M30.9985 37.1525C31.4386 37.1525 31.7953 36.7957 31.7953 36.3557C31.7953 35.9156 31.4386 35.5588 30.9985 35.5588C30.5584 35.5588 30.2017 35.9156 30.2017 36.3557C30.2017 36.7957 30.5584 37.1525 30.9985 37.1525Z" fill="#343EA8"/>
</g>
<defs>
<clipPath id="clip0_1_1025">
<rect width="46" height="46" fill="white" transform="translate(18 20)"/>
</clipPath>
</defs>
</svg>
