<svg width="11" height="15" viewBox="0 0 11 15" fill="none" xmlns="http://www.w3.org/2000/svg">
<path d="M2.7374 4.52501C2.90648 4.52501 3.06863 4.45785 3.18818 4.33829C3.30774 4.21874 3.3749 4.05659 3.3749 3.88751C3.3749 3.71844 3.30774 3.55629 3.18818 3.43673C3.06863 3.31718 2.90648 3.25001 2.7374 3.25001C2.56833 3.25001 2.40618 3.31718 2.28662 3.43673C2.16707 3.55629 2.0999 3.71844 2.0999 3.88751C2.0999 4.05659 2.16707 4.21874 2.28662 4.33829C2.40618 4.45785 2.56833 4.52501 2.7374 4.52501ZM3.3749 6.43751C3.3749 6.60659 3.30774 6.76874 3.18818 6.88829C3.06863 7.00785 2.90648 7.07501 2.7374 7.07501C2.56833 7.07501 2.40618 7.00785 2.28662 6.88829C2.16707 6.76874 2.0999 6.60659 2.0999 6.43751C2.0999 6.26844 2.16707 6.10629 2.28662 5.98673C2.40618 5.86718 2.56833 5.80001 2.7374 5.80001C2.90648 5.80001 3.06863 5.86718 3.18818 5.98673C3.30774 6.10629 3.3749 6.26844 3.3749 6.43751ZM2.7374 9.62501C2.82112 9.62501 2.90402 9.60852 2.98136 9.57648C3.05871 9.54445 3.12899 9.49749 3.18818 9.43829C3.24738 9.3791 3.29434 9.30882 3.32638 9.23147C3.35841 9.15413 3.3749 9.07123 3.3749 8.98751C3.3749 8.90379 3.35841 8.8209 3.32638 8.74355C3.29434 8.66621 3.24738 8.59593 3.18818 8.53673C3.12899 8.47753 3.05871 8.43058 2.98136 8.39854C2.90402 8.3665 2.82112 8.35001 2.7374 8.35001C2.56833 8.35001 2.40618 8.41718 2.28662 8.53673C2.16707 8.65629 2.0999 8.81844 2.0999 8.98751C2.0999 9.15659 2.16707 9.31874 2.28662 9.43829C2.40618 9.55785 2.56833 9.62501 2.7374 9.62501ZM5.9249 3.88751C5.9249 4.05659 5.85774 4.21874 5.73818 4.33829C5.61863 4.45785 5.45648 4.52501 5.2874 4.52501C5.11833 4.52501 4.95618 4.45785 4.83662 4.33829C4.71707 4.21874 4.6499 4.05659 4.6499 3.88751C4.6499 3.71844 4.71707 3.55629 4.83662 3.43673C4.95618 3.31718 5.11833 3.25001 5.2874 3.25001C5.45648 3.25001 5.61863 3.31718 5.73818 3.43673C5.85774 3.55629 5.9249 3.71844 5.9249 3.88751ZM5.2874 7.07501C5.45648 7.07501 5.61863 7.00785 5.73818 6.88829C5.85774 6.76874 5.9249 6.60659 5.9249 6.43751C5.9249 6.26844 5.85774 6.10629 5.73818 5.98673C5.61863 5.86718 5.45648 5.80001 5.2874 5.80001C5.11833 5.80001 4.95618 5.86718 4.83662 5.98673C4.71707 6.10629 4.6499 6.26844 4.6499 6.43751C4.6499 6.60659 4.71707 6.76874 4.83662 6.88829C4.95618 7.00785 5.11833 7.07501 5.2874 7.07501ZM5.9249 8.98751C5.9249 9.15659 5.85774 9.31874 5.73818 9.43829C5.61863 9.55785 5.45648 9.62501 5.2874 9.62501C5.11833 9.62501 4.95618 9.55785 4.83662 9.43829C4.71707 9.31874 4.6499 9.15659 4.6499 8.98751C4.6499 8.81844 4.71707 8.65629 4.83662 8.53673C4.95618 8.41718 5.11833 8.35001 5.2874 8.35001C5.45648 8.35001 5.61863 8.41718 5.73818 8.53673C5.85774 8.65629 5.9249 8.81844 5.9249 8.98751ZM7.8374 9.62501C7.92112 9.62501 8.00402 9.60852 8.08136 9.57648C8.15871 9.54445 8.22898 9.49749 8.28818 9.43829C8.34738 9.3791 8.39434 9.30882 8.42637 9.23147C8.45841 9.15413 8.4749 9.07123 8.4749 8.98751C8.4749 8.90379 8.45841 8.8209 8.42637 8.74355C8.39434 8.66621 8.34738 8.59593 8.28818 8.53673C8.22898 8.47753 8.15871 8.43058 8.08136 8.39854C8.00402 8.3665 7.92112 8.35001 7.8374 8.35001C7.66833 8.35001 7.50618 8.41718 7.38662 8.53673C7.26707 8.65629 7.1999 8.81844 7.1999 8.98751C7.1999 9.15659 7.26707 9.31874 7.38662 9.43829C7.50618 9.55785 7.66833 9.62501 7.8374 9.62501ZM0.824902 14.3C0.712185 14.3 0.604085 14.2552 0.524382 14.1755C0.444679 14.0958 0.399902 13.9877 0.399902 13.875V1.97501C0.399902 1.63686 0.534232 1.31256 0.773341 1.07345C1.01245 0.834342 1.33675 0.700012 1.6749 0.700012H6.7749C7.11305 0.700012 7.43735 0.834342 7.67646 1.07345C7.91557 1.31256 8.0499 1.63686 8.0499 1.97501V5.80001H9.3249C9.66305 5.80001 9.98735 5.93434 10.2265 6.17345C10.4656 6.41256 10.5999 6.73686 10.5999 7.07501V13.875C10.5999 13.9877 10.5551 14.0958 10.4754 14.1755C10.3957 14.2552 10.2876 14.3 10.1749 14.3H0.824902ZM1.2499 1.97501V13.45H2.9499V11.325C2.9499 11.2123 2.99468 11.1042 3.07438 11.0245C3.15408 10.9448 3.26219 10.9 3.3749 10.9H7.6249C7.73762 10.9 7.84572 10.9448 7.92542 11.0245C8.00513 11.1042 8.0499 11.2123 8.0499 11.325V13.45H9.7499V7.07501C9.7499 6.9623 9.70513 6.85419 9.62542 6.77449C9.54572 6.69479 9.43762 6.65001 9.3249 6.65001H7.6249C7.51219 6.65001 7.40408 6.60524 7.32438 6.52553C7.24468 6.44583 7.1999 6.33773 7.1999 6.22501V1.97501C7.1999 1.8623 7.15513 1.75419 7.07542 1.67449C6.99572 1.59479 6.88762 1.55001 6.7749 1.55001H1.6749C1.56219 1.55001 1.45408 1.59479 1.37438 1.67449C1.29468 1.75419 1.2499 1.8623 1.2499 1.97501ZM7.1999 11.75H5.9249V13.45H7.1999V11.75ZM5.0749 11.75H3.7999V13.45H5.0749V11.75Z" fill="#343EA8"/>
</svg>
