<svg width="13" height="13" viewBox="0 0 13 13" fill="none" xmlns="http://www.w3.org/2000/svg">
<path d="M8.09375 12.875H4.90625C4.62454 12.8747 4.35446 12.7627 4.15526 12.5635C3.95606 12.3643 3.84403 12.0942 3.84375 11.8125V9.15625H1.1875C0.905794 9.15597 0.635706 9.04394 0.43651 8.84474C0.237313 8.64554 0.125281 8.37546 0.125 8.09375V4.90625C0.125281 4.62454 0.237313 4.35446 0.43651 4.15526C0.635706 3.95606 0.905794 3.84403 1.1875 3.84375H3.84375V1.1875C3.84403 0.905794 3.95606 0.635706 4.15526 0.43651C4.35446 0.237313 4.62454 0.125281 4.90625 0.125H8.09375C8.37546 0.125281 8.64554 0.237313 8.84474 0.43651C9.04394 0.635706 9.15597 0.905794 9.15625 1.1875V3.84375H11.8125C12.0942 3.84403 12.3643 3.95606 12.5635 4.15526C12.7627 4.35446 12.8747 4.62454 12.875 4.90625V8.09375C12.8746 8.37541 12.7625 8.64542 12.5633 8.84459C12.3642 9.04375 12.0942 9.15583 11.8125 9.15625H9.15625V11.8125C9.15583 12.0942 9.04375 12.3642 8.84459 12.5633C8.64542 12.7625 8.37541 12.8746 8.09375 12.875ZM1.1875 4.90625V8.09375H4.90625V11.8125H8.09375V8.09375H11.8125V4.90625H8.09375V1.1875H4.90625V4.90625H1.1875Z" fill="#343EA8"/>
</svg>
