<svg width="16" height="16" viewBox="0 0 16 16" fill="none" xmlns="http://www.w3.org/2000/svg">
<path d="M8 8.99994C7.50555 8.99994 7.0222 8.85332 6.61108 8.57861C6.19995 8.30391 5.87952 7.91346 5.6903 7.45665C5.50108 6.99983 5.45157 6.49717 5.54804 6.01221C5.6445 5.52726 5.8826 5.0818 6.23223 4.73217C6.58187 4.38254 7.02732 4.14444 7.51228 4.04798C7.99723 3.95151 8.4999 4.00102 8.95671 4.19024C9.41353 4.37946 9.80397 4.69989 10.0787 5.11101C10.3534 5.52214 10.5 6.00549 10.5 6.49994C10.4992 7.16274 10.2356 7.79816 9.76689 8.26683C9.29822 8.7355 8.6628 8.99915 8 8.99994ZM8 4.99994C7.70333 4.99994 7.41332 5.08791 7.16665 5.25274C6.91997 5.41756 6.72771 5.65183 6.61418 5.92592C6.50065 6.2 6.47095 6.5016 6.52882 6.79258C6.5867 7.08355 6.72956 7.35082 6.93934 7.5606C7.14912 7.77038 7.41639 7.91324 7.70737 7.97112C7.99834 8.029 8.29994 7.99929 8.57403 7.88576C8.84812 7.77223 9.08238 7.57997 9.24721 7.3333C9.41203 7.08662 9.5 6.79661 9.5 6.49994C9.4996 6.10224 9.34144 5.72094 9.06022 5.43972C8.779 5.1585 8.3977 5.00034 8 4.99994Z" fill="#343EA8"/>
<path d="M8.00001 14.9999L3.78201 10.0254C3.7234 9.95074 3.66539 9.87558 3.60801 9.79994C2.8875 8.85083 2.49826 7.69155 2.50001 6.49994C2.50001 5.04125 3.07947 3.6423 4.11092 2.61085C5.14237 1.5794 6.54132 0.999939 8.00001 0.999939C9.4587 0.999939 10.8576 1.5794 11.8891 2.61085C12.9205 3.6423 13.5 5.04125 13.5 6.49994C13.5018 7.69101 13.1127 8.84976 12.3925 9.79844L12.392 9.79994C12.392 9.79994 12.242 9.99694 12.2195 10.0234L8.00001 14.9999ZM4.40601 9.19744C4.40701 9.19744 4.52301 9.35144 4.54951 9.38444L8.00001 13.4539L11.455 9.37894C11.477 9.35144 11.594 9.19644 11.5945 9.19594C12.1831 8.4205 12.5012 7.47345 12.5 6.49994C12.5 5.30646 12.0259 4.16187 11.182 3.31796C10.3381 2.47404 9.19348 1.99994 8.00001 1.99994C6.80653 1.99994 5.66194 2.47404 4.81803 3.31796C3.97411 4.16187 3.50001 5.30646 3.50001 6.49994C3.49896 7.47406 3.81739 8.42164 4.40651 9.19744H4.40601Z" fill="#343EA8"/>
</svg>
