<svg width="15" height="15" viewBox="0 0 15 15" fill="none" xmlns="http://www.w3.org/2000/svg">
<path d="M3.75 9.375V12.1875H13.125V5.625H11.25V4.6875H13.4616C13.6706 4.6875 13.7466 4.70906 13.8225 4.75031C13.8984 4.79011 13.9604 4.85186 14.0006 4.9275C14.0409 5.00344 14.0625 5.07937 14.0625 5.28844V12.5241C14.0625 12.7331 14.0409 12.8091 13.9997 12.885C13.9599 12.9609 13.8981 13.0229 13.8225 13.0631C13.7466 13.1034 13.6706 13.125 13.4616 13.125H3.41344C3.20438 13.125 3.12844 13.1034 3.0525 13.0622C2.97665 13.0224 2.91457 12.9606 2.87437 12.885C2.835 12.8091 2.8125 12.7331 2.8125 12.525V9.375H3.75Z" fill="#343EA8"/>
<path d="M11.25 2.8125H1.875V9.375H11.25V2.8125ZM12.1875 2.47594V9.71156C12.1875 9.92062 12.1659 9.99656 12.1247 10.0725C12.0849 10.1484 12.0231 10.2104 11.9475 10.2506C11.8716 10.2909 11.7956 10.3125 11.5866 10.3125H1.53844C1.32938 10.3125 1.25344 10.2909 1.1775 10.2497C1.10165 10.2099 1.03957 10.1481 0.999375 10.0725C0.96 9.99656 0.9375 9.92062 0.9375 9.7125V2.47594C0.9375 2.26688 0.959063 2.19094 1.00031 2.115C1.04011 2.03915 1.10186 1.97707 1.1775 1.93687C1.25344 1.8975 1.32937 1.875 1.5375 1.875H11.5856C11.7947 1.875 11.8706 1.89656 11.9466 1.93781C12.0224 1.97761 12.0845 2.03936 12.1247 2.115C12.165 2.19094 12.1866 2.26688 12.1866 2.47594H12.1875Z" fill="#343EA8"/>
<path d="M6.5625 8.4375C5.9409 8.4375 5.34476 8.19057 4.90522 7.75103C4.46568 7.31149 4.21875 6.71535 4.21875 6.09375C4.21875 5.47215 4.46568 4.87601 4.90522 4.43647C5.34476 3.99693 5.9409 3.75 6.5625 3.75C7.1841 3.75 7.78024 3.99693 8.21978 4.43647C8.65932 4.87601 8.90625 5.47215 8.90625 6.09375C8.90625 6.71535 8.65932 7.31149 8.21978 7.75103C7.78024 8.19057 7.1841 8.4375 6.5625 8.4375ZM6.5625 7.5C6.93546 7.5 7.29315 7.35184 7.55687 7.08812C7.82059 6.8244 7.96875 6.46671 7.96875 6.09375C7.96875 5.72079 7.82059 5.3631 7.55687 5.09938C7.29315 4.83566 6.93546 4.6875 6.5625 4.6875C6.18954 4.6875 5.83185 4.83566 5.56813 5.09938C5.30441 5.3631 5.15625 5.72079 5.15625 6.09375C5.15625 6.46671 5.30441 6.8244 5.56813 7.08812C5.83185 7.35184 6.18954 7.5 6.5625 7.5Z" fill="#343EA8"/>
</svg>
