<svg width="14" height="12" viewBox="0 0 14 12" fill="none" xmlns="http://www.w3.org/2000/svg">
<path d="M8.169 4.97583C8.11354 4.97545 8.06019 4.99703 8.02059 5.03585C7.98098 5.07467 7.95834 5.12758 7.9576 5.18303V6.73143C7.95834 6.787 7.98108 6.84002 8.02083 6.87886C8.06059 6.91769 8.11412 6.93919 8.1697 6.93863H12.8338C12.8894 6.93919 12.9429 6.91769 12.9827 6.87886C13.0224 6.84002 13.0452 6.787 13.0459 6.73143V5.18303C13.0452 5.12745 13.0224 5.07444 12.9827 5.0356C12.9429 4.99676 12.8894 4.97527 12.8338 4.97583H8.1697H8.169ZM11.0292 0.0506268C11.6746 0.0814268 12.1387 0.208827 12.4327 0.479027C12.7232 0.746427 12.8723 1.13353 12.9017 1.64593V3.11383C12.9002 3.23884 12.8492 3.35815 12.7598 3.44556C12.6704 3.53297 12.55 3.58133 12.425 3.58003C12.363 3.58077 12.3015 3.56929 12.244 3.54627C12.1865 3.52324 12.1341 3.4891 12.0897 3.44581C12.0454 3.40252 12.01 3.35092 11.9856 3.29396C11.9613 3.23699 11.9483 3.17579 11.9476 3.11383L11.9483 1.67253C11.9329 1.40653 11.8692 1.24133 11.7782 1.15733C11.69 1.07613 11.4212 1.00333 11.0061 0.982327H1.8529C1.477 0.996327 1.2327 1.06773 1.1144 1.16923C1.0234 1.24693 0.9548 1.46113 0.9541 1.83143L0.952 10.0704C0.987 10.4302 1.0661 10.6703 1.1676 10.79C1.2446 10.881 1.4833 10.972 1.8347 11.0168H11.0159C11.4457 11.0252 11.6991 10.9608 11.7845 10.8747C11.879 10.7788 11.9476 10.5268 11.9476 10.1145V8.68303C11.9476 8.42613 12.1611 8.21683 12.425 8.21683C12.6882 8.21683 12.9017 8.42613 12.9017 8.68303V10.1145C12.9017 10.7445 12.7729 11.2156 12.4712 11.5215C12.1604 11.8365 11.6662 11.9625 11.0061 11.9485L1.778 11.9464C1.1501 11.8736 0.7 11.7014 0.4319 11.3843C0.189 11.0973 0.0539 10.6878 0 10.1152V1.83073C0.0014 1.21753 0.1484 0.756227 0.4858 0.467827C0.7952 0.201827 1.2418 0.0723268 1.8347 0.0499268H11.0292V0.0506268ZM12.8338 4.04343C13.4778 4.04343 14 4.55373 14 5.18303V6.73143C14 7.36073 13.4778 7.87103 12.8338 7.87103H8.1697C7.5257 7.87103 7.0035 7.36003 7.0035 6.73143V5.18303C7.0035 4.55373 7.5257 4.04343 8.1697 4.04343H12.8338ZM9.3359 5.40143C9.0139 5.40143 8.7528 5.65343 8.7528 5.96353C8.7528 6.27433 9.0139 6.52563 9.3359 6.52563C9.6579 6.52563 9.919 6.27363 9.919 5.96353C9.919 5.65273 9.6579 5.40073 9.3359 5.40073V5.40143Z" fill="#343EA8"/>
</svg>
