<svg width="14" height="16" viewBox="0 0 14 16" fill="none" xmlns="http://www.w3.org/2000/svg">
<path d="M7.00024 0.799988C6.30365 0.799891 5.62667 1.03063 5.07514 1.45612C4.52361 1.88162 4.12862 2.47788 3.95194 3.15169C3.18886 3.35163 2.52853 3.83052 2.10143 4.49374C1.67434 5.15696 1.51155 5.95626 1.64524 6.73369C1.08426 7.10983 0.659037 7.65633 0.432304 8.29255C0.205571 8.92877 0.189336 9.62102 0.385995 10.2672C0.582653 10.9133 0.98179 11.4791 1.52452 11.8812C2.06725 12.2832 2.72483 12.5001 3.40024 12.5H5.20024V14.075C5.20024 14.696 5.70424 15.2 6.32524 15.2H7.67524C8.29624 15.2 8.80024 14.696 8.80024 14.075V12.5H10.6002C11.2757 12.5001 11.9332 12.2832 12.476 11.8812C13.0187 11.4791 13.4178 10.9133 13.6145 10.2672C13.8111 9.62102 13.7949 8.92877 13.5682 8.29255C13.3414 7.65633 12.9162 7.10983 12.3552 6.73369C12.4889 5.95626 12.3261 5.15696 11.899 4.49374C11.472 3.83052 10.8116 3.35163 10.0485 3.15169C9.87186 2.47788 9.47687 1.88162 8.92534 1.45612C8.37381 1.03063 7.69683 0.799891 7.00024 0.799988ZM7.90024 12.5V14.075C7.90024 14.1347 7.87653 14.1919 7.83434 14.2341C7.79214 14.2763 7.73491 14.3 7.67524 14.3H6.32524C6.26557 14.3 6.20834 14.2763 6.16614 14.2341C6.12394 14.1919 6.10024 14.1347 6.10024 14.075V12.5H7.90024ZM4.77724 3.60079C4.86011 3.07072 5.12965 2.5877 5.53727 2.23886C5.94488 1.89002 6.46373 1.69831 7.00024 1.69831C7.53675 1.69831 8.0556 1.89002 8.46321 2.23886C8.87083 2.5877 9.14037 3.07072 9.22324 3.60079C9.23776 3.69521 9.28196 3.78257 9.34943 3.8502C9.4169 3.91783 9.50415 3.96224 9.59854 3.97699C9.91435 4.02633 10.216 4.14239 10.4835 4.31744C10.7509 4.4925 10.978 4.72252 11.1496 4.99221C11.3212 5.26189 11.4333 5.56504 11.4786 5.88146C11.5238 6.19789 11.5012 6.52032 11.412 6.82729C11.3831 6.92727 11.3897 7.03421 11.4307 7.12989C11.4717 7.22556 11.5446 7.30405 11.637 7.35199C12.0849 7.58389 12.4418 7.95952 12.6506 8.41859C12.8593 8.87766 12.9078 9.39355 12.7882 9.88348C12.6687 10.3734 12.388 10.809 11.9912 11.1202C11.5944 11.4315 11.1045 11.6005 10.6002 11.6H3.40024C2.89601 11.6003 2.4063 11.4312 2.00967 11.1198C1.61305 10.8085 1.3325 10.3729 1.21304 9.88304C1.09358 9.39317 1.14214 8.87736 1.35091 8.41838C1.55969 7.9594 1.91658 7.58385 2.36434 7.35199C2.45674 7.30405 2.52967 7.22556 2.5707 7.12989C2.61173 7.03421 2.61831 6.92727 2.58934 6.82729C2.50052 6.52052 2.47798 6.19836 2.52321 5.88221C2.56843 5.56606 2.68039 5.26315 2.85164 4.99358C3.0229 4.72401 3.24954 4.49395 3.51652 4.31868C3.78349 4.14341 4.0847 4.02694 4.40014 3.97699C4.49469 3.96241 4.58214 3.91809 4.64979 3.85044C4.71744 3.78279 4.76177 3.69534 4.77634 3.60079H4.77724Z" fill="#343EA8"/>
</svg>
