<svg width="13" height="13" viewBox="0 0 13 13" fill="none" xmlns="http://www.w3.org/2000/svg">
<path d="M2.23438 1.82812V9.85156C2.23438 9.98624 2.18087 10.1154 2.08564 10.2106C1.99041 10.3059 1.86124 10.3594 1.72656 10.3594C1.59188 10.3594 1.46272 10.3059 1.36748 10.2106C1.27225 10.1154 1.21875 9.98624 1.21875 9.85156V3.85938H0.40625V9.85156C0.406646 10.2016 0.545878 10.5372 0.793398 10.7847C1.04092 11.0322 1.37652 11.1715 1.72656 11.1719H11.2734C11.6235 11.1715 11.9591 11.0322 12.2066 10.7847C12.4541 10.5372 12.5934 10.2016 12.5938 9.85156V1.82812H2.23438ZM11.7812 9.85156C11.7811 9.9862 11.7275 10.1153 11.6323 10.2105C11.5371 10.3057 11.4081 10.3592 11.2734 10.3594H2.94531C3.01254 10.1985 3.04706 10.0259 3.04688 9.85156V2.64062H11.7812V9.85156Z" fill="#343EA8"/>
<path d="M7.51562 3.45312H3.85938V7.51562H7.51562V3.45312ZM6.70312 6.70312H4.67188V4.26562H6.70312V6.70312ZM8.32812 3.45312H10.9688V4.26562H8.32812V3.45312ZM8.32812 5.07812H10.9688V5.89062H8.32812V5.07812ZM8.32812 6.70312H10.9688V7.51562H8.32812V6.70312Z" fill="#343EA8"/>
</svg>
