<svg width="13" height="13" viewBox="0 0 13 13" fill="none" xmlns="http://www.w3.org/2000/svg">
<path d="M11.6562 2.86719H9.19531V2.28125C9.19377 1.93984 9.05746 1.61286 8.81605 1.37145C8.57464 1.13004 8.24766 0.993729 7.90625 0.992188H5.09375C4.75234 0.993729 4.42536 1.13004 4.18395 1.37145C3.94254 1.61286 3.80623 1.93984 3.80469 2.28125V2.86719H1.34375C1.12619 2.86719 0.91754 2.95361 0.763702 3.10745C0.609863 3.26129 0.523438 3.46994 0.523438 3.6875V11.1875C0.523438 11.4051 0.609863 11.6137 0.763702 11.7675C0.91754 11.9214 1.12619 12.0078 1.34375 12.0078H11.6562C11.8738 12.0078 12.0825 11.9214 12.2363 11.7675C12.3901 11.6137 12.4766 11.4051 12.4766 11.1875V3.6875C12.4766 3.46994 12.3901 3.26129 12.2363 3.10745C12.0825 2.95361 11.8738 2.86719 11.6562 2.86719ZM4.50781 2.28125C4.50781 2.12585 4.56954 1.97681 4.67943 1.86693C4.78931 1.75705 4.93835 1.69531 5.09375 1.69531H7.90625C8.06165 1.69531 8.21069 1.75705 8.32057 1.86693C8.43046 1.97681 8.49219 2.12585 8.49219 2.28125V2.86719H4.50781V2.28125ZM8.49219 3.57031V11.3047H4.50781V3.57031H8.49219ZM1.22656 11.1875V3.6875C1.22656 3.65642 1.23891 3.62661 1.26089 3.60464C1.28286 3.58266 1.31267 3.57031 1.34375 3.57031H3.80469V11.3047H1.34375C1.31267 11.3047 1.28286 11.2923 1.26089 11.2704C1.23891 11.2484 1.22656 11.2186 1.22656 11.1875ZM11.7734 11.1875C11.7734 11.2186 11.7611 11.2484 11.7391 11.2704C11.7171 11.2923 11.6873 11.3047 11.6562 11.3047H9.19531V3.57031H11.6562C11.6873 3.57031 11.7171 3.58266 11.7391 3.60464C11.7611 3.62661 11.7734 3.65642 11.7734 3.6875V11.1875Z" fill="#343EA8"/>
</svg>
