<svg width="16" height="13" viewBox="0 0 16 13" fill="none" xmlns="http://www.w3.org/2000/svg">
<path d="M3.0501 3.0749C3.0501 2.53784 3.26345 2.02277 3.64321 1.64301C4.02297 1.26325 4.53803 1.0499 5.0751 1.0499C5.61216 1.0499 6.12723 1.26325 6.50699 1.64301C6.88675 2.02277 7.1001 2.53784 7.1001 3.0749C7.1001 3.61197 6.88675 4.12703 6.50699 4.50679C6.12723 4.88655 5.61216 5.0999 5.0751 5.0999C4.53803 5.0999 4.02297 4.88655 3.64321 4.50679C3.26345 4.12703 3.0501 3.61197 3.0501 3.0749ZM5.0751 0.149902C4.29934 0.149902 3.55535 0.458071 3.00681 1.00661C2.45827 1.55516 2.1501 2.29914 2.1501 3.0749C2.1501 3.85066 2.45827 4.59465 3.00681 5.14319C3.55535 5.69173 4.29934 5.9999 5.0751 5.9999C5.85086 5.9999 6.59484 5.69173 7.14338 5.14319C7.69193 4.59465 8.0001 3.85066 8.0001 3.0749C8.0001 2.29914 7.69193 1.55516 7.14338 1.00661C6.59484 0.458071 5.85086 0.149902 5.0751 0.149902ZM10.1934 10.6304C10.6776 10.8284 11.2869 10.9499 12.0501 10.9499C13.743 10.9499 14.679 10.3487 15.1722 9.6593C15.4295 9.29753 15.5908 8.8764 15.6411 8.4353C15.6456 8.39433 15.6486 8.3532 15.6501 8.312V8.2499C15.6501 8.07262 15.6152 7.89707 15.5473 7.73328C15.4795 7.56949 15.3801 7.42067 15.2547 7.29531C15.1293 7.16995 14.9805 7.07051 14.8167 7.00266C14.6529 6.93482 14.4774 6.8999 14.3001 6.8999H10.1331C10.3491 7.1609 10.5111 7.466 10.6056 7.7999H14.3001C14.4194 7.7999 14.5339 7.84731 14.6183 7.9317C14.7027 8.0161 14.7501 8.13055 14.7501 8.2499V8.2985L14.7456 8.3435C14.7111 8.62886 14.6059 8.9011 14.4396 9.1355C14.1453 9.5486 13.5063 10.0499 12.0501 10.0499C11.3913 10.0499 10.8999 9.9473 10.5318 9.797C10.458 10.049 10.3509 10.3334 10.1934 10.6304ZM0.350098 8.6999C0.350098 8.22251 0.53974 7.76468 0.877305 7.42711C1.21487 7.08954 1.67271 6.8999 2.1501 6.8999H8.0001C8.47749 6.8999 8.93532 7.08954 9.27289 7.42711C9.61046 7.76468 9.8001 8.22251 9.8001 8.6999V8.7755C9.8001 8.7845 9.8001 8.7962 9.7983 8.8115C9.78735 8.9897 9.76176 9.1667 9.7218 9.3407C9.6453 9.6719 9.4932 10.1147 9.1863 10.5593C8.5554 11.4719 7.3368 12.2999 5.0751 12.2999C2.8134 12.2999 1.5948 11.4719 0.963898 10.5593C0.631639 10.0753 0.424467 9.51659 0.360898 8.933C0.35552 8.88064 0.351918 8.82811 0.350098 8.7755V8.6999ZM1.2501 8.7539V8.7701L1.2564 8.8448C1.30516 9.27624 1.45906 9.68911 1.7046 10.0472C2.1429 10.6808 3.0618 11.3999 5.0751 11.3999C7.0884 11.3999 8.0073 10.6808 8.4456 10.0472C8.6912 9.68915 8.8451 9.27625 8.8938 8.8448C8.89675 8.82 8.89855 8.79507 8.8992 8.7701L8.9001 8.7548V8.6999C8.9001 8.46121 8.80528 8.23229 8.63649 8.06351C8.46771 7.89472 8.23879 7.7999 8.0001 7.7999H2.1501C1.9114 7.7999 1.68248 7.89472 1.5137 8.06351C1.34492 8.23229 1.2501 8.46121 1.2501 8.6999V8.7539ZM10.7001 3.7499C10.7001 3.39186 10.8423 3.04848 11.0955 2.79531C11.3487 2.54213 11.6921 2.3999 12.0501 2.3999C12.4081 2.3999 12.7515 2.54213 13.0047 2.79531C13.2579 3.04848 13.4001 3.39186 13.4001 3.7499C13.4001 4.10794 13.2579 4.45132 13.0047 4.7045C12.7515 4.95767 12.4081 5.0999 12.0501 5.0999C11.6921 5.0999 11.3487 4.95767 11.0955 4.7045C10.8423 4.45132 10.7001 4.10794 10.7001 3.7499ZM12.0501 1.4999C11.4534 1.4999 10.8811 1.73696 10.4591 2.15891C10.0372 2.58087 9.8001 3.15317 9.8001 3.7499C9.8001 4.34664 10.0372 4.91894 10.4591 5.34089C10.8811 5.76285 11.4534 5.9999 12.0501 5.9999C12.6468 5.9999 13.2191 5.76285 13.6411 5.34089C14.063 4.91894 14.3001 4.34664 14.3001 3.7499C14.3001 3.15317 14.063 2.58087 13.6411 2.15891C13.2191 1.73696 12.6468 1.4999 12.0501 1.4999Z" fill="#343EA8"/>
</svg>
