<svg width="13" height="11" viewBox="0 0 13 11" fill="none" xmlns="http://www.w3.org/2000/svg">
<path d="M6.5 0.916667C5.51339 0.916667 4.59087 1.08257 3.73242 1.41439C2.87398 1.7462 2.19206 2.19379 1.68666 2.75716C1.18127 3.32053 0.928571 3.92925 0.928571 4.58333C0.928571 5.11806 1.10147 5.62771 1.44727 6.1123C1.79306 6.5969 2.28032 7.01584 2.90904 7.36914L3.54018 7.72721L3.34431 8.41471C3.22824 8.84918 3.05897 9.25977 2.8365 9.64648C3.57161 9.3457 4.23661 8.9375 4.83147 8.42188L5.14341 8.14974L5.55692 8.19271C5.89062 8.2309 6.20499 8.25 6.5 8.25C7.48661 8.25 8.40913 8.08409 9.26758 7.75228C10.126 7.42046 10.8079 6.97287 11.3133 6.40951C11.8187 5.84614 12.0714 5.23741 12.0714 4.58333C12.0714 3.92925 11.8187 3.32053 11.3133 2.75716C10.8079 2.19379 10.126 1.7462 9.26758 1.41439C8.40913 1.08257 7.48661 0.916667 6.5 0.916667ZM13 4.58333C13 5.41406 12.7098 6.18153 12.1295 6.88574C11.5491 7.58995 10.7608 8.14616 9.76451 8.55436C8.76823 8.96257 7.68006 9.16667 6.5 9.16667C6.16146 9.16667 5.81083 9.14757 5.4481 9.10938C4.49051 9.94488 3.37816 10.5226 2.11105 10.8424C1.87407 10.9093 1.5984 10.9618 1.28404 11H1.24777C1.17522 11 1.10993 10.9749 1.0519 10.9248C0.993862 10.8747 0.955171 10.809 0.935826 10.7279V10.7207C0.921317 10.7016 0.920108 10.673 0.932199 10.6348C0.944289 10.5966 0.949126 10.5727 0.946708 10.5632C0.944289 10.5536 0.955171 10.5309 0.979353 10.4951L1.02288 10.4307L1.07366 10.3698L1.1317 10.3053C1.16555 10.2671 1.24051 10.1848 1.35658 10.0583C1.47266 9.93175 1.55608 9.84104 1.60686 9.78613C1.65764 9.73123 1.73261 9.63694 1.83175 9.50326C1.9309 9.36957 2.00949 9.24783 2.06752 9.13802C2.12556 9.02821 2.19085 8.88737 2.26339 8.7155C2.33594 8.54362 2.39881 8.3622 2.45201 8.17122C1.69271 7.74631 1.09422 7.22114 0.656529 6.5957C0.218843 5.97027 0 5.29948 0 4.58333C0 3.7526 0.290179 2.98513 0.870536 2.28092C1.45089 1.57671 2.23921 1.02051 3.23549 0.612305C4.23177 0.204102 5.31994 0 6.5 0C7.68006 0 8.76823 0.204102 9.76451 0.612305C10.7608 1.02051 11.5491 1.57671 12.1295 2.28092C12.7098 2.98513 13 3.7526 13 4.58333Z" fill="#343EA8"/>
</svg>
