<svg width="25" height="25" viewBox="0 0 25 25" fill="none" xmlns="http://www.w3.org/2000/svg">
<path d="M3.125 1.5625H1.5625V21.875C1.5625 22.2894 1.72712 22.6868 2.02015 22.9799C2.31317 23.2729 2.7106 23.4375 3.125 23.4375H23.4375V21.875H3.125V1.5625Z" fill="#343EA8"/>
<path d="M23.4375 7.03125H17.9688V8.59375H20.7734L14.8438 14.5234L11.4922 11.1641C11.4196 11.0908 11.3332 11.0327 11.238 10.9931C11.1427 10.9534 11.0406 10.933 10.9375 10.933C10.8344 10.933 10.7323 10.9534 10.637 10.9931C10.5418 11.0327 10.4554 11.0908 10.3828 11.1641L4.6875 16.8672L5.78906 17.9688L10.9375 12.8203L14.2891 16.1797C14.3617 16.2529 14.4481 16.311 14.5433 16.3507C14.6385 16.3904 14.7406 16.4108 14.8438 16.4108C14.9469 16.4108 15.049 16.3904 15.1442 16.3507C15.2394 16.311 15.3258 16.2529 15.3984 16.1797L21.875 9.69531V12.5H23.4375V7.03125Z" fill="#343EA8"/>
</svg>
