<svg width="28" height="28" viewBox="0 0 28 28" fill="none" xmlns="http://www.w3.org/2000/svg">
<g clip-path="url(#clip0_5_174)">
<path d="M26.2188 13.4478L14.5522 1.7811C14.4064 1.63624 14.2093 1.55493 14.0038 1.55493C13.7984 1.55493 13.6012 1.63624 13.4555 1.7811L1.78883 13.4478C1.66141 13.5966 1.59483 13.788 1.60239 13.9837C1.60995 14.1794 1.6911 14.3651 1.82961 14.5037C1.96813 14.6422 2.15382 14.7233 2.34957 14.7309C2.54531 14.7384 2.73671 14.6719 2.8855 14.5444L13.9999 3.42999L25.1144 14.5522C25.2632 14.6796 25.4546 14.7462 25.6503 14.7387C25.8461 14.7311 26.0317 14.6499 26.1703 14.5114C26.3088 14.3729 26.3899 14.1872 26.3975 13.9915C26.4051 13.7957 26.3385 13.6043 26.2111 13.4555L26.2188 13.4478Z" fill="#343EA8"/>
<path d="M21.7779 24.8888H17.889V17.111H10.1112V24.8888H6.2223V13.9999L4.66675 15.5555V24.8888C4.66675 25.3013 4.83064 25.697 5.12236 25.9887C5.41408 26.2805 5.80974 26.4443 6.2223 26.4443H11.6667V18.6666H16.3334V26.4443H21.7779C22.1904 26.4443 22.5861 26.2805 22.8778 25.9887C23.1695 25.697 23.3334 25.3013 23.3334 24.8888V15.3688L21.7779 13.8132V24.8888Z" fill="#343EA8"/>
</g>
<defs>
<clipPath id="clip0_5_174">
<rect width="28" height="28" fill="white"/>
</clipPath>
</defs>
</svg>
