<svg width="25" height="27" viewBox="0 0 25 27" fill="none" xmlns="http://www.w3.org/2000/svg">
<path d="M22.625 15.1874C22.625 14.4931 22.4932 13.8383 22.2295 13.2231C21.9658 12.6078 21.6055 12.0717 21.1484 11.6147C20.6914 11.1576 20.1509 10.7929 19.5269 10.5204C18.9028 10.248 18.248 10.1161 17.5625 10.1249C16.8594 10.1249 16.2046 10.2568 15.5981 10.5204C14.9917 10.7841 14.4556 11.1445 13.9897 11.6015C13.5239 12.0585 13.1592 12.599 12.8955 13.2231C12.6318 13.8471 12.5 14.5019 12.5 15.1874C12.5 15.996 12.3198 16.7563 11.9595 17.4682C11.5991 18.1801 11.0938 18.7778 10.4434 19.2612C11.0146 19.5512 11.5288 19.9071 11.9858 20.329C12.4429 20.7509 12.8384 21.2255 13.1724 21.7529C13.5063 22.2802 13.7568 22.8427 13.9238 23.4404C14.0908 24.038 14.1787 24.662 14.1875 25.3124H12.5C12.5 24.6181 12.3682 23.9633 12.1045 23.3481C11.8408 22.7328 11.4805 22.1967 11.0234 21.7397C10.5664 21.2826 10.0259 20.9179 9.40186 20.6454C8.77783 20.373 8.12305 20.2411 7.4375 20.2499C6.73438 20.2499 6.07959 20.3818 5.47314 20.6454C4.8667 20.9091 4.33057 21.2695 3.86475 21.7265C3.39893 22.1835 3.03418 22.724 2.77051 23.3481C2.50684 23.9721 2.375 24.6269 2.375 25.3124H0.6875C0.6875 24.6708 0.775391 24.0512 0.951172 23.4535C1.12695 22.8559 1.37744 22.2934 1.70264 21.766C2.02783 21.2387 2.41895 20.7641 2.87598 20.3422C3.33301 19.9203 3.85156 19.56 4.43164 19.2612C3.78125 18.7778 3.27588 18.1801 2.91553 17.4682C2.55518 16.7563 2.375 15.996 2.375 15.1874C2.375 14.4931 2.50684 13.8383 2.77051 13.2231C3.03418 12.6078 3.39453 12.0717 3.85156 11.6147C4.30859 11.1576 4.84473 10.7929 5.45996 10.5204C6.0752 10.248 6.73438 10.1161 7.4375 10.1249C8.24609 10.1249 9.00635 10.3051 9.71826 10.6655C10.4302 11.0258 11.0278 11.5312 11.5112 12.1816C11.8452 11.5224 12.2715 10.9335 12.79 10.415C13.3086 9.89641 13.8975 9.47014 14.5566 9.13615C13.9062 8.65275 13.4009 8.0551 13.0405 7.34318C12.6802 6.63127 12.5 5.87102 12.5 5.06242C12.5 4.36809 12.6318 3.7133 12.8955 3.09807C13.1592 2.48283 13.5195 1.9467 13.9766 1.48967C14.4336 1.03264 14.9697 0.667892 15.585 0.395431C16.2002 0.122971 16.8594 -0.00886536 17.5625 -7.6294e-05C18.2568 -7.6294e-05 18.9116 0.13176 19.5269 0.395431C20.1421 0.659103 20.6782 1.01945 21.1353 1.47649C21.5923 1.93352 21.957 2.47404 22.2295 3.09807C22.502 3.72209 22.6338 4.37688 22.625 5.06242C22.625 5.87102 22.4448 6.63127 22.0845 7.34318C21.7241 8.0551 21.2188 8.65275 20.5684 9.13615C21.1396 9.42619 21.6538 9.78215 22.1108 10.204C22.5679 10.6259 22.9634 11.1005 23.2974 11.6279C23.6313 12.1552 23.8818 12.7177 24.0488 13.3154C24.2158 13.913 24.3037 14.537 24.3125 15.1874H22.625ZM7.4375 18.5624C7.90332 18.5624 8.33838 18.4745 8.74268 18.2987C9.14697 18.123 9.50732 17.8813 9.82373 17.5737C10.1401 17.266 10.3818 16.9101 10.5488 16.5058C10.7158 16.1015 10.8037 15.662 10.8125 15.1874C10.8125 14.7216 10.7246 14.2865 10.5488 13.8822C10.373 13.478 10.1313 13.1176 9.82373 12.8012C9.51611 12.4848 9.16016 12.2431 8.75586 12.0761C8.35156 11.9091 7.91211 11.8212 7.4375 11.8124C6.97168 11.8124 6.53662 11.9003 6.13232 12.0761C5.72803 12.2519 5.36768 12.4936 5.05127 12.8012C4.73486 13.1088 4.49316 13.4648 4.32617 13.8691C4.15918 14.2734 4.07129 14.7128 4.0625 15.1874C4.0625 15.6532 4.15039 16.0883 4.32617 16.4926C4.50195 16.8969 4.74365 17.2572 5.05127 17.5737C5.35889 17.8901 5.71484 18.1318 6.11914 18.2987C6.52344 18.4657 6.96289 18.5536 7.4375 18.5624ZM14.1875 5.06242C14.1875 5.52824 14.2754 5.9633 14.4512 6.3676C14.627 6.7719 14.8687 7.13225 15.1763 7.44865C15.4839 7.76506 15.8398 8.00676 16.2441 8.17375C16.6484 8.34074 17.0879 8.42863 17.5625 8.43742C18.0283 8.43742 18.4634 8.34953 18.8677 8.17375C19.272 7.99797 19.6323 7.75627 19.9487 7.44865C20.2651 7.14104 20.5068 6.78508 20.6738 6.38078C20.8408 5.97649 20.9287 5.53703 20.9375 5.06242C20.9375 4.5966 20.8496 4.16154 20.6738 3.75725C20.498 3.35295 20.2563 2.9926 19.9487 2.67619C19.6411 2.35979 19.2852 2.11809 18.8809 1.9511C18.4766 1.7841 18.0371 1.69621 17.5625 1.68742C17.0967 1.68742 16.6616 1.77531 16.2573 1.9511C15.853 2.12688 15.4927 2.36858 15.1763 2.67619C14.8599 2.98381 14.6182 3.33977 14.4512 3.74406C14.2842 4.14836 14.1963 4.58781 14.1875 5.06242ZM22.625 16.8749H24.3125V26.9999H22.625V16.8749ZM17.5625 16.8749H19.25V26.9999H17.5625V16.8749Z" fill="#343EA8"/>
</svg>
