<svg width="17" height="27" viewBox="0 0 17 27" fill="none" xmlns="http://www.w3.org/2000/svg">
<path d="M14.5858 1.69988C14.5858 1.51044 14.661 1.32876 14.795 1.19481C14.9289 1.06085 15.1106 0.985596 15.3 0.985596C15.4895 0.985596 15.6712 1.06085 15.8051 1.19481C15.9391 1.32876 16.0143 1.51044 16.0143 1.69988V25.9856C16.0143 26.175 15.9391 26.3567 15.8051 26.4907C15.6712 26.6246 15.4895 26.6999 15.3 26.6999C15.1106 26.6999 14.9289 26.6246 14.795 26.4907C14.661 26.3567 14.5858 26.175 14.5858 25.9856V1.69988ZM0.300049 1.69988C0.300049 1.51044 0.375303 1.32876 0.509258 1.19481C0.643212 1.06085 0.824894 0.985596 1.01433 0.985596C1.20377 0.985596 1.38546 1.06085 1.51941 1.19481C1.65337 1.32876 1.72862 1.51044 1.72862 1.69988V25.9856C1.72862 26.175 1.65337 26.3567 1.51941 26.4907C1.38546 26.6246 1.20377 26.6999 1.01433 26.6999C0.824894 26.6999 0.643212 26.6246 0.509258 26.4907C0.375303 26.3567 0.300049 26.175 0.300049 25.9856V1.69988ZM7.44291 4.55702C7.44291 4.36758 7.51816 4.1859 7.65211 4.05195C7.78607 3.91799 7.96775 3.84274 8.15719 3.84274C8.34663 3.84274 8.52831 3.91799 8.66227 4.05195C8.79622 4.1859 8.87148 4.36758 8.87148 4.55702V7.41417C8.87148 7.60361 8.79622 7.78529 8.66227 7.91924C8.52831 8.0532 8.34663 8.12845 8.15719 8.12845C7.96775 8.12845 7.78607 8.0532 7.65211 7.91924C7.51816 7.78529 7.44291 7.60361 7.44291 7.41417V4.55702ZM7.44291 12.4142C7.44291 12.2247 7.51816 12.043 7.65211 11.9091C7.78607 11.7751 7.96775 11.6999 8.15719 11.6999C8.34663 11.6999 8.52831 11.7751 8.66227 11.9091C8.79622 12.043 8.87148 12.2247 8.87148 12.4142V15.2713C8.87148 15.4607 8.79622 15.6424 8.66227 15.7764C8.52831 15.9103 8.34663 15.9856 8.15719 15.9856C7.96775 15.9856 7.78607 15.9103 7.65211 15.7764C7.51816 15.6424 7.44291 15.4607 7.44291 15.2713V12.4142ZM7.44291 20.2713C7.44291 20.0819 7.51816 19.9002 7.65211 19.7662C7.78607 19.6323 7.96775 19.557 8.15719 19.557C8.34663 19.557 8.52831 19.6323 8.66227 19.7662C8.79622 19.9002 8.87148 20.0819 8.87148 20.2713V23.1285C8.87148 23.3179 8.79622 23.4996 8.66227 23.6335C8.52831 23.7675 8.34663 23.8427 8.15719 23.8427C7.96775 23.8427 7.78607 23.7675 7.65211 23.6335C7.51816 23.4996 7.44291 23.3179 7.44291 23.1285V20.2713Z" fill="#343EA8"/>
</svg>
