<svg width="25" height="14" viewBox="0 0 25 14" fill="none" xmlns="http://www.w3.org/2000/svg">
<path fill-rule="evenodd" clip-rule="evenodd" d="M12.072 13.848H13.512C13.512 13.848 13.944 13.776 14.16 13.56C14.376 13.344 14.376 12.912 14.376 12.912C14.376 12.912 14.376 11.04 15.24 10.752C16.104 10.464 17.256 12.624 18.408 13.416C19.272 14.064 19.92 13.92 19.92 13.92L23.088 13.848C23.088 13.848 24.744 13.776 23.952 12.408C23.88 12.336 23.52 11.472 21.576 9.67201C19.56 7.80001 19.848 8.16001 22.224 4.92001C23.664 2.97601 24.24 1.82401 24.096 1.24801C23.952 0.744011 22.872 0.888011 22.872 0.888011H19.272C19.272 0.888011 18.984 0.816011 18.84 0.960011C18.624 1.10401 18.552 1.32001 18.552 1.32001C18.552 1.32001 17.976 2.83201 17.256 4.12801C15.672 6.79201 15.024 6.93601 14.808 6.79201C14.232 6.43201 14.376 5.20801 14.376 4.41601C14.376 1.82401 14.808 0.744011 13.584 0.456011C13.224 0.384011 12.936 0.312012 11.928 0.312012C10.632 0.312012 9.55202 0.312011 8.97602 0.600011C8.54401 0.816011 8.25602 1.24801 8.47202 1.24801C8.68802 1.24801 9.26402 1.39201 9.55202 1.75201C9.84002 2.40001 9.84002 3.48001 9.84002 3.48001C9.84002 3.48001 10.056 6.57601 9.33601 6.93601C8.83202 7.22401 8.18402 6.64801 6.74402 4.20001C6.02402 2.97601 5.44802 1.53601 5.44802 1.53601C5.44802 1.53601 5.37602 1.24801 5.16002 1.10401C4.94402 0.960012 4.58402 0.888011 4.58402 0.888011H1.20002C1.20002 0.888011 0.696016 0.888012 0.480016 1.10401C0.336016 1.32001 0.480016 1.68001 0.480016 1.68001C0.480016 1.68001 3.14402 7.87201 6.16802 11.04C8.97602 14.064 12.072 13.848 12.072 13.848Z" fill="#6D6D6D"/>
</svg>
