<?xml version="1.0" encoding="UTF-8"?>
<!DOCTYPE svg PUBLIC "-//W3C//DTD SVG 1.1//EN" "http://www.w3.org/Graphics/SVG/1.1/DTD/svg11.dtd">
<!-- Creator: CorelDRAW X7 -->
<svg xmlns="http://www.w3.org/2000/svg" xml:space="preserve" width="297mm" height="110mm" version="1.1" style="shape-rendering:geometricPrecision; text-rendering:geometricPrecision; image-rendering:optimizeQuality; fill-rule:evenodd; clip-rule:evenodd"
viewBox="0 0 29700 11000"
 xmlns:xlink="http://www.w3.org/1999/xlink">
 <defs>
  <style type="text/css">
   <![CDATA[
    .fil0 {fill:#1A1A1A;fill-rule:nonzero}
    .fil1 {fill:red;fill-rule:nonzero}
   ]]>
  </style>
 </defs>
 <g id="Слой_x0020_1">
  <metadata id="CorelCorpID_0Corel-Layer"/>
  <g id="_1630751857152">
   <polygon class="fil0" points="14684,4061 13603,4061 12463,5107 11920,5603 11318,6152 11318,4061 10588,4061 10588,8151 11318,8151 11318,7140 12352,6199 13766,8151 14666,8151 12896,5703 "/>
   <polygon class="fil0" points="20877,4061 20877,6663 23506,4638 24237,4078 24237,8151 23506,8151 23506,5566 20877,7591 20147,8151 20147,4067 "/>
   <path class="fil0" d="M18898 4382c-199,-199 -474,-321 -777,-321l-2577 0 0 0 0 0 0 4090 730 0 0 -1882 1958 0 0 -5c11,0 23,0 35,0 111,-12 216,-41 315,-88 380,-175 643,-561 643,-1005 0,-304 -123,-579 -321,-777l-6 -12zm-620 1134c-46,23 -99,35 -152,35l-1852 0 0 -754 1852 0c129,0 217,58 263,105 41,41 111,135 111,269 0,146 -87,280 -222,339l0 6z"/>
   <polygon class="fil0" points="25118,4061 25118,4791 26794,4791 26794,8151 27525,8151 27525,4791 29202,4791 29202,4061 "/>
  </g>
  <path class="fil1" d="M6504 3833c527,-449 988,-734 1342,-843 193,-59 361,-69 500,-28 159,48 275,155 339,324 55,143 68,332 36,566 -88,633 -505,1548 -1110,2515 -599,957 -1383,1971 -2212,2817 -767,783 -1445,1289 -1941,1490 -218,89 -409,121 -567,97 -188,-30 -325,-132 -404,-310 -65,-148 -84,-346 -49,-597 30,-214 96,-458 194,-724 64,-175 142,-360 233,-553l454 0c-99,201 -183,392 -251,571 -75,200 -128,379 -155,534l0 0c-30,169 -27,290 4,365 16,39 46,62 87,67 74,11 179,-13 312,-69 413,-176 1007,-640 1702,-1364 753,-783 1474,-1716 2031,-2591 551,-866 939,-1669 1032,-2203l0 -1c28,-159 28,-276 1,-352 -13,-40 -35,-64 -65,-74 -49,-16 -121,-10 -214,18 -251,75 -599,292 -1015,642l-89 74 -131 -68 -266 -131 202 -172z"/>
  <path class="fil1" d="M7772 7598c691,45 1231,-2 1580,-127 189,-68 330,-161 417,-277 99,-133 127,-288 78,-462 -42,-148 -144,-307 -310,-475 -449,-455 -1331,-939 -2394,-1352 -1052,-408 -2287,-752 -3457,-934 -1083,-169 -1929,-169 -2447,-34 -228,60 -401,148 -512,262 -133,136 -182,301 -139,491 36,156 140,327 318,507 152,154 351,310 588,464 233,152 504,303 804,451l170 -373c-235,-116 -449,-235 -635,-353 -180,-115 -330,-227 -444,-335l0 -1c-125,-117 -195,-215 -215,-294 -11,-41 0,-77 30,-106 53,-53 152,-97 291,-131 436,-106 1190,-90 2180,74 1072,177 2207,494 3177,862 960,364 1751,776 2145,1148l1 1c118,111 187,205 212,282 12,40 9,72 -9,98 -29,42 -91,80 -182,114 -246,90 -654,124 -1197,92l-116 -6 -65 133 -134 264 265 17z"/>
  <path class="fil1" d="M5209 1459l-3058 6696 382 0 339 0 3374 0 359 -533 -2209 0 2389 -767 46 -161 139 45 130 -406 -2461 -791 1728 -519 720 0 -1633 -3564 -245 0zm-2082 6123l808 -1819c808,261 1617,520 2426,780l-3234 1039zm1042 -2346l524 -1177 1107 -356 394 922 -2025 611zm756 -1700l410 -923 297 696 -707 227z"/>
 </g>
</svg>
