<svg width="80" height="80" viewBox="0 0 80 80" fill="none" xmlns="http://www.w3.org/2000/svg">
<circle cx="40" cy="40" r="40" fill="white"/>
<g clip-path="url(#clip0_1_1048)">
<path d="M40.5002 19C29.1184 19 19.8589 28.2597 19.8589 39.6415C19.8589 44.8629 21.8006 49.8192 25.3352 53.6438L24.184 61.0632C24.1371 61.3656 24.264 61.6685 24.5124 61.8472C24.6532 61.9486 24.8195 62.0001 24.9866 62.0001C25.1143 62.0001 25.2425 61.9701 25.3601 61.9091L32.0151 58.4627C34.6879 59.6709 37.5403 60.2831 40.5002 60.2831C51.8819 60.2831 61.1417 51.0234 61.1417 39.6416C61.1417 28.2597 51.882 19 40.5002 19ZM40.5002 58.6583C37.647 58.6583 34.903 58.0413 32.3442 56.8245C32.1148 56.7154 31.8475 56.72 31.6218 56.8368L26.0348 59.7301L27.0015 53.5004C27.0404 53.2499 26.9601 52.9959 26.7847 52.813C23.3662 49.2544 21.4835 44.5765 21.4835 39.6413C21.4835 29.1556 30.0144 20.6246 40.5002 20.6246C50.9861 20.6246 59.5171 29.1555 59.5171 39.6414C59.5171 50.1274 50.9862 58.6583 40.5002 58.6583Z" fill="#343EA8"/>
<path d="M40.4999 24.9384C38.1285 24.9384 36.1992 26.8676 36.1992 29.239C36.1992 31.6104 38.1285 33.5397 40.4999 33.5397C42.8714 33.5397 44.8006 31.6104 44.8006 29.239C44.8006 26.8675 42.8713 24.9384 40.4999 24.9384ZM40.4999 31.9151C39.0243 31.9151 37.8238 30.7146 37.8238 29.239C37.8238 27.7634 39.0243 26.5629 40.4999 26.5629C41.9756 26.5629 43.176 27.7634 43.176 29.239C43.176 30.7146 41.9755 31.9151 40.4999 31.9151Z" fill="#343EA8"/>
<path d="M45.267 49.0445H44.3421V35.7253C44.3421 35.2766 43.9783 34.913 43.5298 34.913H35.7337C35.285 34.913 34.9214 35.2767 34.9214 35.7253V38.4248C34.9214 38.8734 35.2851 39.2371 35.7337 39.2371H36.6586V49.0445H35.7337C35.285 49.0445 34.9214 49.4082 34.9214 49.8568V52.5563C34.9214 53.005 35.2851 53.3687 35.7337 53.3687H45.2671C45.7157 53.3687 46.0794 53.005 46.0794 52.5564V49.8569C46.0793 49.4082 45.7156 49.0445 45.267 49.0445ZM44.4546 51.7441H36.5458V50.6691H37.4707C37.9194 50.6691 38.283 50.3054 38.283 49.8568V38.4248C38.283 37.9761 37.9193 37.6125 37.4707 37.6125H36.5458V36.5376H42.7174V49.857C42.7174 50.3056 43.0811 50.6693 43.5297 50.6693H44.4546V51.7441Z" fill="#343EA8"/>
</g>
<defs>
<clipPath id="clip0_1_1048">
<rect width="43" height="43" fill="white" transform="translate(19 19)"/>
</clipPath>
</defs>
</svg>
