<?xml version="1.0" standalone="no"?>
<!DOCTYPE svg PUBLIC "-//W3C//DTD SVG 20010904//EN"
 "http://www.w3.org/TR/2001/REC-SVG-20010904/DTD/svg10.dtd">
<svg version="1.0" xmlns="http://www.w3.org/2000/svg"
 width="163.000000pt" height="163.000000pt" viewBox="0 0 163.000000 163.000000"
 preserveAspectRatio="xMidYMid meet">
<metadata>
Created by potrace 1.14, written by Peter Selinger 2001-2017
</metadata>
<g transform="translate(0.000000,163.000000) scale(0.100000,-0.100000)"
fill="#000000" stroke="none">
<path d="M578 1555 c-2 -2 -19 -6 -40 -9 -155 -24 -308 -128 -406 -276 -134
-201 -169 -474 -91 -705 64 -188 221 -378 370 -448 94 -44 113 -21 79 95 -26
90 -86 247 -101 263 -18 18 -8 50 43 137 29 48 55 88 58 88 3 0 16 -20 29 -45
64 -121 229 -197 361 -166 24 5 46 8 48 7 1 -2 -6 -37 -18 -77 -11 -43 -20
-103 -20 -144 1 -116 41 -176 126 -188 81 -11 271 69 367 154 105 93 198 261
230 414 20 94 16 279 -7 370 -52 203 -207 409 -371 491 -85 42 -119 41 -123
-4 -4 -42 30 -153 90 -296 l51 -119 -33 -61 c-18 -34 -42 -76 -52 -94 l-20
-33 -28 58 c-15 32 -45 75 -66 96 -72 70 -190 111 -277 96 -21 -3 -40 -3 -42
1 -2 4 3 31 11 61 18 67 20 171 5 224 -20 69 -64 108 -126 111 -24 1 -45 1
-47 -1z"/>
</g>
</svg>
