<svg width="51" height="51" viewBox="0 0 51 51" fill="none" xmlns="http://www.w3.org/2000/svg">
<path d="M45.1194 51C45.1191 51 45.1185 51 45.1179 51L26.1636 50.9638H5.88068C5.48051 50.9638 5.15625 50.6395 5.15625 50.2393V17.6483C5.15625 17.2481 5.48051 16.9239 5.88068 16.9239H15.9969V0.724432C15.9969 0.324256 16.3212 0 16.7214 0H45.1191C45.5193 0 45.8435 0.324256 45.8435 0.724432V50.2756C45.8435 50.468 45.767 50.6523 45.6308 50.7885C45.4952 50.9238 45.3112 51 45.1194 51ZM26.8892 49.5164L44.3947 49.5497V1.44886H17.4458V16.9239H26.1648C26.5649 16.9239 26.8892 17.2481 26.8892 17.6483V49.5164ZM6.60511 49.5149H25.4403V18.3727H6.60511V49.5149ZM23.2039 44.8087H17.4725C17.0723 44.8087 16.748 44.4845 16.748 44.0843V40.7302C16.748 40.33 17.0723 40.0057 17.4725 40.0057H23.2039C23.604 40.0057 23.9283 40.33 23.9283 40.7302V44.0843C23.9283 44.4845 23.604 44.8087 23.2039 44.8087ZM18.1969 43.3599H22.4794V41.4546H18.1969V43.3599ZM14.5733 44.8087H8.84187C8.44169 44.8087 8.11744 44.4845 8.11744 44.0843V40.7302C8.11744 40.33 8.44169 40.0057 8.84187 40.0057H14.5733C14.9735 40.0057 15.2977 40.33 15.2977 40.7302V44.0843C15.2977 44.4845 14.9735 44.8087 14.5733 44.8087ZM9.5663 43.3599H13.8489V41.4546H9.5663V43.3599ZM40.1956 44.4366H37.4245C37.0243 44.4366 36.7 44.1124 36.7 43.7122V40.7009C36.7 40.3007 37.0243 39.9765 37.4245 39.9765H40.1956C40.5957 39.9765 40.92 40.3007 40.92 40.7009V43.7122C40.92 44.1124 40.5957 44.4366 40.1956 44.4366ZM38.1492 42.9878H39.4714V41.4253H38.1492V42.9878ZM32.2039 44.4366H29.4328C29.0327 44.4366 28.7084 44.1124 28.7084 43.7122V40.7009C28.7084 40.3007 29.0327 39.9765 29.4328 39.9765H32.2039C32.6041 39.9765 32.9284 40.3007 32.9284 40.7009V43.7122C32.9284 44.1124 32.6041 44.4366 32.2039 44.4366ZM30.1573 42.9878H31.4795V41.4253H30.1573V42.9878ZM23.2039 38.2549H17.4725C17.0723 38.2549 16.748 37.9307 16.748 37.5305V34.1764C16.748 33.7762 17.0723 33.4519 17.4725 33.4519H23.2039C23.604 33.4519 23.9283 33.7762 23.9283 34.1764V37.5305C23.9283 37.9304 23.604 38.2549 23.2039 38.2549ZM18.1969 36.8061H22.4794V34.9008H18.1969V36.8061ZM14.5733 38.2549H8.84187C8.44169 38.2549 8.11744 37.9307 8.11744 37.5305V34.1764C8.11744 33.7762 8.44169 33.4519 8.84187 33.4519H14.5733C14.9735 33.4519 15.2977 33.7762 15.2977 34.1764V37.5305C15.2977 37.9304 14.9735 38.2549 14.5733 38.2549ZM9.5663 36.8061H13.8489V34.9008H9.5663V36.8061ZM40.1956 37.2181H37.4245C37.0243 37.2181 36.7 36.8939 36.7 36.4937V33.4827C36.7 33.0825 37.0243 32.7582 37.4245 32.7582H40.1956C40.5957 32.7582 40.92 33.0825 40.92 33.4827V36.4937C40.92 36.8939 40.5957 37.2181 40.1956 37.2181ZM38.1492 35.7693H39.4714V34.2071H38.1492V35.7693ZM32.2039 37.2181H29.4328C29.0327 37.2181 28.7084 36.8939 28.7084 36.4937V33.4827C28.7084 33.0825 29.0327 32.7582 29.4328 32.7582H32.2039C32.6041 32.7582 32.9284 33.0825 32.9284 33.4827V36.4937C32.9284 36.8939 32.6041 37.2181 32.2039 37.2181ZM30.1573 35.7693H31.4795V34.2071H30.1573V35.7693ZM23.2039 31.7008H17.4725C17.0723 31.7008 16.748 31.3766 16.748 30.9764V27.6223C16.748 27.2221 17.0723 26.8979 17.4725 26.8979H23.2039C23.604 26.8979 23.9283 27.2221 23.9283 27.6223V30.9764C23.9283 31.3766 23.604 31.7008 23.2039 31.7008ZM18.1969 30.252H22.4794V28.3467H18.1969V30.252ZM14.5733 31.7008H8.84187C8.44169 31.7008 8.11744 31.3766 8.11744 30.9764V27.6223C8.11744 27.2221 8.44169 26.8979 8.84187 26.8979H14.5733C14.9735 26.8979 15.2977 27.2221 15.2977 27.6223V30.9764C15.2977 31.3766 14.9735 31.7008 14.5733 31.7008ZM9.5663 30.252H13.8489V28.3467H9.5663V30.252ZM40.1956 29.9996H37.4245C37.0243 29.9996 36.7 29.6753 36.7 29.2752V26.2641C36.7 25.864 37.0243 25.5397 37.4245 25.5397H40.1956C40.5957 25.5397 40.92 25.864 40.92 26.2641V29.2754C40.92 29.6753 40.5957 29.9996 40.1956 29.9996ZM38.1492 28.5507H39.4714V26.9883H38.1492V28.5507ZM32.2039 29.9996H29.4328C29.0327 29.9996 28.7084 29.6753 28.7084 29.2752V26.2641C28.7084 25.864 29.0327 25.5397 29.4328 25.5397H32.2039C32.6041 25.5397 32.9284 25.864 32.9284 26.2641V29.2754C32.9284 29.6753 32.6041 29.9996 32.2039 29.9996ZM30.1573 28.5507H31.4795V26.9883H30.1573V28.5507ZM23.2039 25.1468H17.4725C17.0723 25.1468 16.748 24.8225 16.748 24.4223V21.0682C16.748 20.668 17.0723 20.3438 17.4725 20.3438H23.2039C23.604 20.3438 23.9283 20.668 23.9283 21.0682V24.4226C23.9283 24.8225 23.604 25.1468 23.2039 25.1468ZM18.1969 23.6979H22.4794V21.7924H18.1969V23.6979ZM14.5733 25.1468H8.84187C8.44169 25.1468 8.11744 24.8225 8.11744 24.4223V21.0682C8.11744 20.668 8.44169 20.3438 8.84187 20.3438H14.5733C14.9735 20.3438 15.2977 20.668 15.2977 21.0682V24.4226C15.2977 24.8225 14.9735 25.1468 14.5733 25.1468ZM9.5663 23.6979H13.8489V21.7924H9.5663V23.6979ZM40.1956 22.7811H37.4245C37.0243 22.7811 36.7 22.4568 36.7 22.0566V19.0456C36.7 18.6454 37.0243 18.3212 37.4245 18.3212H40.1956C40.5957 18.3212 40.92 18.6454 40.92 19.0456V22.0566C40.92 22.4568 40.5957 22.7811 40.1956 22.7811ZM38.1492 21.3322H39.4714V19.77H38.1492V21.3322ZM32.2039 22.7811H29.4328C29.0327 22.7811 28.7084 22.4568 28.7084 22.0566V19.0456C28.7084 18.6454 29.0327 18.3212 29.4328 18.3212H32.2039C32.6041 18.3212 32.9284 18.6454 32.9284 19.0456V22.0566C32.9284 22.4568 32.6041 22.7811 32.2039 22.7811ZM30.1573 21.3322H31.4795V19.77H30.1573V21.3322ZM40.1956 15.5628H37.4245C37.0243 15.5628 36.7 15.2386 36.7 14.8384V11.8271C36.7 11.4269 37.0243 11.1026 37.4245 11.1026H40.1956C40.5957 11.1026 40.92 11.4269 40.92 11.8271V14.8384C40.92 15.2383 40.5957 15.5628 40.1956 15.5628ZM38.1492 14.114H39.4714V12.5515H38.1492V14.114ZM32.2039 15.5628H29.4328C29.0327 15.5628 28.7084 15.2386 28.7084 14.8384V11.8271C28.7084 11.4269 29.0327 11.1026 29.4328 11.1026H32.2039C32.6041 11.1026 32.9284 11.4269 32.9284 11.8271V14.8384C32.9284 15.2383 32.6041 15.5628 32.2039 15.5628ZM30.1573 14.114H31.4795V12.5515H30.1573V14.114ZM24.212 15.5628H21.4409C21.0407 15.5628 20.7165 15.2386 20.7165 14.8384V11.8271C20.7165 11.4269 21.0407 11.1026 21.4409 11.1026H24.212C24.6122 11.1026 24.9364 11.4269 24.9364 11.8271V14.8384C24.9364 15.2383 24.6122 15.5628 24.212 15.5628ZM22.1656 14.114H23.4879V12.5515H22.1656V14.114ZM40.1956 8.34401H37.4245C37.0243 8.34401 36.7 8.01975 36.7 7.61957V4.60855C36.7 4.20837 37.0243 3.88411 37.4245 3.88411H40.1956C40.5957 3.88411 40.92 4.20837 40.92 4.60855V7.61986C40.92 8.01975 40.5957 8.34401 40.1956 8.34401ZM38.1492 6.89514H39.4714V5.33269H38.1492V6.89514ZM32.2039 8.34401H29.4328C29.0327 8.34401 28.7084 8.01975 28.7084 7.61957V4.60855C28.7084 4.20837 29.0327 3.88411 29.4328 3.88411H32.2039C32.6041 3.88411 32.9284 4.20837 32.9284 4.60855V7.61986C32.9284 8.01975 32.6041 8.34401 32.2039 8.34401ZM30.1573 6.89514H31.4795V5.33269H30.1573V6.89514ZM24.212 8.34401H21.4409C21.0407 8.34401 20.7165 8.01975 20.7165 7.61957V4.60855C20.7165 4.20837 21.0407 3.88411 21.4409 3.88411H24.212C24.6122 3.88411 24.9364 4.20837 24.9364 4.60855V7.61986C24.9364 8.01975 24.6122 8.34401 24.212 8.34401ZM22.1656 6.89514H23.4879V5.33269H22.1656V6.89514Z" fill="#343EA8"/>
</svg>
