<svg width="63" height="45" viewBox="0 0 63 45" fill="none" xmlns="http://www.w3.org/2000/svg">
<path d="M16.9137 39.101C19.5005 39.101 21.6051 36.9964 21.6051 34.4095C21.6051 31.8226 19.5005 29.718 16.9137 29.718C14.3268 29.718 12.2222 31.8226 12.2222 34.4095C12.2222 36.9964 14.3268 39.101 16.9137 39.101ZM16.9137 31.7287C18.3919 31.7287 19.5945 32.9313 19.5945 34.4095C19.5945 35.8877 18.3919 37.0904 16.9137 37.0904C15.4354 37.0904 14.2328 35.8877 14.2328 34.4095C14.2328 32.9313 15.4353 31.7287 16.9137 31.7287Z" fill="#343EA8"/>
<path d="M46.0855 29.718C43.4986 29.718 41.394 31.8226 41.394 34.4095C41.394 36.9964 43.4986 39.101 46.0855 39.101C48.6724 39.101 50.777 36.9964 50.777 34.4095C50.777 31.8226 48.6724 29.718 46.0855 29.718ZM46.0855 37.0904C44.6073 37.0904 43.4047 35.8877 43.4047 34.4095C43.4047 32.9313 44.6073 31.7287 46.0855 31.7287C47.5638 31.7287 48.7664 32.9313 48.7664 34.4095C48.7664 35.8877 47.5639 37.0904 46.0855 37.0904Z" fill="#343EA8"/>
<path d="M18.4312 6.54189H21.6186C22.1739 6.54189 22.6239 6.09177 22.6239 5.53657C22.6239 4.98136 22.1739 4.53125 21.6186 4.53125H18.4312C17.0341 4.53125 14.8079 5.49314 13.85 6.51066L5.79566 15.0686C5.52074 15.3607 5.44594 15.7881 5.60492 16.1564C5.76403 16.5246 6.12674 16.7629 6.5278 16.7629H45.4365C45.7799 16.7629 46.0993 16.5877 46.284 16.2982C46.4686 16.0088 46.4929 15.645 46.3481 15.3337L42.2123 6.43801C41.768 5.49354 40.2516 4.53125 39.2078 4.53125H25.6399C25.0845 4.53125 24.6345 4.98136 24.6345 5.53657L24.6344 14.7523H8.85464L15.3142 7.88875C15.8829 7.28448 17.6017 6.54189 18.4312 6.54189ZM26.6452 6.54189H39.205C39.5003 6.55569 40.2561 7.0353 40.3911 7.28998L43.8605 14.7523H26.645L26.6452 6.54189Z" fill="#343EA8"/>
<path d="M63 25.528C63 21.9583 60.2448 18.1357 56.8583 17.0069C56.856 17.0061 52.1564 15.4395 52.1564 15.4395C51.3717 15.178 50.3366 14.2584 49.9845 13.5101L45.8506 4.72566C44.7382 2.36169 41.8202 0.509888 39.2074 0.509888H18.4309C15.9324 0.509888 12.6339 1.93503 10.9215 3.75452L1.6514 13.6042C0.725304 14.5881 0 16.417 0 17.7681V30.3882C0 33.16 2.25486 35.4148 5.0266 35.4148H6.91123C7.41724 40.4878 11.71 44.4627 16.914 44.4627C22.1181 44.4627 26.4108 40.4878 26.9168 35.4148H33.017C33.5723 35.4148 34.0223 34.9647 34.0223 34.4095C34.0223 33.8543 33.5723 33.4042 33.017 33.4042H26.9168C26.4108 28.3312 22.1181 24.3563 16.914 24.3563C11.71 24.3563 7.41724 28.3312 6.91123 33.4042H5.0266C3.36366 33.4042 2.01064 32.0513 2.01064 30.3882V17.7681C2.01064 16.9245 2.53729 15.5966 3.11542 14.9823L12.3857 5.13248C13.7182 3.71659 16.4866 2.52053 18.4309 2.52053H39.2074C41.0414 2.52053 43.2504 3.92234 44.0312 5.58179L48.1651 14.3663C48.7577 15.6256 50.2001 16.907 51.5203 17.3471L55.3403 18.6204C55.2743 19.0012 55.24 19.3883 55.24 19.7788C55.24 23.1617 57.7399 25.9713 60.9894 26.4582V30.3884C60.9894 32.0514 59.8692 33.4043 58.492 33.4043H56.0888C55.5828 28.3314 51.29 24.3565 46.086 24.3565C40.5426 24.3565 36.0328 28.8663 36.0328 34.4096C36.0328 39.953 40.5426 44.4628 46.086 44.4628C51.29 44.4628 55.5828 40.4879 56.0888 35.415H58.492C60.9777 35.415 63 33.1601 63 30.3884V25.528ZM16.914 26.367C21.3487 26.367 24.9566 29.9748 24.9566 34.4095C24.9566 38.8442 21.3487 42.4521 16.914 42.4521C12.4794 42.4521 8.87147 38.8442 8.87147 34.4095C8.87147 29.9748 12.4794 26.367 16.914 26.367ZM46.086 42.4521C41.6513 42.4521 38.0434 38.8442 38.0434 34.4095C38.0434 29.9748 41.6513 26.367 46.086 26.367C50.5206 26.367 54.1285 29.9748 54.1285 34.4095C54.1285 38.8442 50.5206 42.4521 46.086 42.4521ZM57.2506 19.7788C57.2506 19.6489 57.256 19.5195 57.2663 19.391C59.0303 20.4133 60.4548 22.3895 60.8672 24.3862C58.7941 23.8789 57.2506 22.0062 57.2506 19.7788Z" fill="#343EA8"/>
</svg>
