<svg width="53" height="53" viewBox="0 0 53 53" fill="none" xmlns="http://www.w3.org/2000/svg">
<path d="M10.3173 11.4834L9.58152 7.06669H6.94035C6.54638 5.54735 5.17545 4.41669 3.53333 4.41669C1.5847 4.41669 0 6.00139 0 7.95002C0 9.89865 1.5847 11.4834 3.53333 11.4834C5.17545 11.4834 6.54638 10.3527 6.94123 8.83335H8.08427L8.52593 11.4834H8.49237L13.0601 34.4642C10.8827 34.6302 9.06918 36.3068 8.85542 38.4162C8.72998 39.6573 9.13808 40.9001 9.97548 41.8241C10.8138 42.7507 12.008 43.2834 13.25 43.2834H15.0167C15.0167 46.2063 17.3937 48.5834 20.3167 48.5834C23.2396 48.5834 25.6167 46.2063 25.6167 43.2834H35.3333C35.3333 46.2063 37.7104 48.5834 40.6333 48.5834C43.5563 48.5834 45.9333 46.2063 45.9333 43.2834H49.4667C49.9552 43.2834 50.35 42.8885 50.35 42.4C50.35 41.9115 49.9552 41.5167 49.4667 41.5167H45.6242C44.8945 39.4612 42.9362 37.9834 40.6333 37.9834C38.3305 37.9834 36.3721 39.4612 35.6425 41.5167H25.3075C24.5779 39.4612 22.6195 37.9834 20.3167 37.9834C18.0138 37.9834 16.0555 39.4612 15.3258 41.5167H13.25C12.5062 41.5167 11.7907 41.1969 11.2855 40.6395C10.7758 40.0751 10.5364 39.349 10.6132 38.5937C10.7475 37.2608 11.9789 36.2176 13.4161 36.2176H14.1148C14.1271 36.2176 14.1369 36.2176 14.1492 36.2176H48.5939C51.024 36.2167 53 34.2407 53 31.8115V11.4834H10.3173ZM3.53333 9.71669C2.55902 9.71669 1.76667 8.92434 1.76667 7.95002C1.76667 6.9757 2.55902 6.18335 3.53333 6.18335C4.50765 6.18335 5.3 6.9757 5.3 7.95002C5.3 8.92434 4.50765 9.71669 3.53333 9.71669ZM40.6333 39.75C42.582 39.75 44.1667 41.3347 44.1667 43.2834C44.1667 45.232 42.582 46.8167 40.6333 46.8167C38.6847 46.8167 37.1 45.232 37.1 43.2834C37.1 41.3347 38.6847 39.75 40.6333 39.75ZM20.3167 39.75C22.2653 39.75 23.85 41.3347 23.85 43.2834C23.85 45.232 22.2653 46.8167 20.3167 46.8167C18.368 46.8167 16.7833 45.232 16.7833 43.2834C16.7833 41.3347 18.368 39.75 20.3167 39.75ZM51.2333 31.8115C51.2333 33.2664 50.0497 34.45 48.5948 34.45H14.8585L10.6451 13.25H51.2333V31.8115Z" fill="#343EA8"/>
</svg>
