<svg width="49" height="49" viewBox="0 0 49 49" fill="none" xmlns="http://www.w3.org/2000/svg">
<g clip-path="url(#clip0_587_1788)">
<path d="M4.146 32.2031C3.607 32.2031 3.16992 32.6401 3.16992 33.1791V34.047C3.16992 34.586 3.607 35.023 4.146 35.023C4.685 35.023 5.12207 34.586 5.12207 34.047V33.1791C5.12207 32.6401 4.685 32.2031 4.146 32.2031Z" fill="#343EA8"/>
<path d="M4.146 36.639C3.607 36.639 3.16992 37.0761 3.16992 37.6151V44.7512C3.16992 45.2902 3.607 45.7272 4.146 45.7272C4.685 45.7272 5.12207 45.2902 5.12207 44.7512V37.6152C5.12207 37.0762 4.685 36.639 4.146 36.639Z" fill="#343EA8"/>
<path d="M48.0239 16.2751H32.7997L17.4703 0.577272C17.2873 0.389886 17.0368 0.283847 16.7747 0.283081C16.7738 0.283081 16.7729 0.283081 16.772 0.283081C16.5111 0.283081 16.261 0.387493 16.0776 0.573253L9.62802 7.10289V3.7907C9.62802 3.2517 9.19095 2.81462 8.65195 2.81462C8.11295 2.81462 7.67587 3.2517 7.67587 3.7907V9.07935L0.281654 16.5653C0.28108 16.5659 0.28108 16.5664 0.280602 16.567C0.107187 16.7432 0 16.9845 0 17.2512V47.7408C0 48.2798 0.437076 48.7169 0.976076 48.7169H48.0239C48.5629 48.7169 49 48.2798 49 47.7408V17.2512C49 16.7122 48.5629 16.2751 48.0239 16.2751ZM16.768 2.65221L30.0711 16.2751H3.31219L16.768 2.65221ZM21.5066 46.7647H11.8581V31.7993H21.5066V46.7647ZM31.4124 46.7647H23.4587V30.8231C23.4587 30.2841 23.0217 29.847 22.4827 29.847H10.882C10.343 29.847 9.90594 30.2841 9.90594 30.8231V46.7647H1.95215V18.2273H31.4123V46.7647H31.4124ZM47.0478 46.7647H33.3646V26.8262H47.0478V46.7647ZM47.0478 24.8739H33.3646V18.2273H47.0478V24.8739Z" fill="#343EA8"/>
</g>
<defs>
<clipPath id="clip0_587_1788">
<rect width="49" height="49" fill="white"/>
</clipPath>
</defs>
</svg>
