<svg width="51" height="51" viewBox="0 0 51 51" fill="none" xmlns="http://www.w3.org/2000/svg">
<path d="M25.5 0C15.1088 0 6.65479 8.45386 6.65479 18.8452C6.65479 28.9057 23.835 49.6826 24.5663 50.562C24.797 50.8394 25.1391 51 25.5 51C25.8607 51 26.203 50.8396 26.4337 50.562C27.1652 49.6824 44.3452 28.9057 44.3452 18.8452C44.3452 8.45386 35.8914 0 25.5 0ZM25.5 47.8587C23.9767 45.9565 20.8116 41.9037 17.6795 37.2706C12.0559 28.9521 9.08336 22.5807 9.08336 18.8452C9.08336 9.79297 16.4479 2.42857 25.5 2.42857C34.5521 2.42857 41.9167 9.79297 41.9167 18.8452C41.9167 22.5805 38.9443 28.952 33.3205 37.2706C30.1883 41.9037 27.0234 45.9565 25.5 47.8587Z" fill="#343EA8"/>
<path d="M31.6778 34.6406C31.1222 34.2651 30.3672 34.4115 29.9919 34.9671C28.3533 37.3928 26.5176 39.935 24.5359 42.5232C24.1282 43.0557 24.2292 43.8178 24.7617 44.2255C24.9819 44.3942 25.2415 44.4758 25.4991 44.4758C25.864 44.4758 26.225 44.3118 26.464 43.9996C28.4749 41.3735 30.3389 38.792 32.0042 36.3266C32.3797 35.771 32.2336 35.016 31.6778 34.6406Z" fill="#343EA8"/>
<path d="M25.5001 9.30957C20.0098 9.30957 15.543 13.7764 15.543 19.2667C15.543 24.7571 20.0098 29.2239 25.5001 29.2239C30.9905 29.2239 35.4573 24.7571 35.4573 19.2667C35.4573 13.7764 30.9905 9.30957 25.5001 9.30957ZM25.5001 26.7953C21.3489 26.7953 17.9715 23.418 17.9715 19.2667C17.9715 15.1155 21.3489 11.7381 25.5001 11.7381C29.6515 11.7381 33.0287 15.1155 33.0287 19.2667C33.0287 23.418 29.6515 26.7953 25.5001 26.7953Z" fill="#343EA8"/>
</svg>
