<svg width="54" height="54" viewBox="0 0 54 54" fill="none" xmlns="http://www.w3.org/2000/svg">
<g clip-path="url(#clip0_587_1849)">
<path d="M31.9022 44.1945C31.4585 43.9731 30.9248 44.1594 30.7035 44.604C30.5657 44.8785 30.5847 45.1917 30.7241 45.4438C30.5711 45.7048 30.5532 46.036 30.7052 46.3231C30.8672 46.6272 31.1787 46.8001 31.5008 46.8001C31.643 46.8001 31.7879 46.7659 31.9229 46.6948C32.6834 46.2898 32.7914 45.7381 32.7878 45.4457C32.7797 44.8461 32.3252 44.4061 31.9022 44.1945Z" fill="#343EA8"/>
<path d="M30.1887 16.6905C30.528 16.9669 30.6009 17.1289 30.6 17.1054C30.5955 17.4582 30.2175 18.0054 29.9314 18.298L28.7523 19.6075C28.4202 19.9765 28.45 20.5453 28.8189 20.8783C28.9908 21.0331 29.2068 21.1096 29.421 21.1096C29.6676 21.1096 29.9124 21.0087 30.0906 20.8116L31.2363 19.5363C31.3551 19.4175 32.4001 18.3375 32.4001 17.1C32.4001 16.4754 32.0491 15.885 31.3273 15.2963C30.9421 14.9823 30.3751 15.0398 30.061 15.4242C29.7468 15.8094 29.8044 16.3764 30.1887 16.6905Z" fill="#343EA8"/>
<path d="M21.9456 38.7621C20.9664 37.7163 19.7999 36.0764 19.7999 34.2C19.7999 33.0795 20.2194 31.915 21.0473 30.7377C21.3335 30.3309 21.2354 29.7703 20.8295 29.484C20.4227 29.1978 19.8611 29.295 19.575 29.7018C18.5301 31.1886 18 32.7015 18 34.2C18 36.6642 19.431 38.71 20.6315 39.9925C20.8088 40.1815 21.0491 40.2768 21.2885 40.2768C21.5091 40.2768 21.7304 40.1968 21.9041 40.0338C22.2668 39.6945 22.2857 39.1248 21.9456 38.7621Z" fill="#343EA8"/>
<path d="M12.3156 20.7459C9.64354 21.6377 8.10717 21.4722 7.03255 20.1753L6.15959 18.7776L9.97471 18.4608C10.4697 18.4203 10.8378 17.9847 10.7973 17.4898C10.7558 16.9948 10.322 16.6248 9.82526 16.6672L5.08581 17.0605L3.83495 15.0588L10.0602 13.9356C10.549 13.8474 10.8738 13.3793 10.7857 12.8897C10.6975 12.401 10.233 12.0744 9.73983 12.1643L2.808 13.4153L2.58388 13.058C2.00159 12.0248 1.79993 11.626 1.79993 10.7999C1.79993 10.4723 2.27602 10.0798 2.9141 9.87555L22.661 6.2855C23.1498 6.19638 23.4746 5.72747 23.3855 5.23883C23.2964 4.75019 22.8292 4.42704 22.3388 4.51437L2.53895 8.11444C2.50562 8.12076 2.47324 8.12888 2.43991 8.13785C0.957551 8.58599 0 9.63002 0 10.8C0 12.0789 0.367242 12.7917 1.03676 13.977L5.53679 21.1771C5.55567 21.2076 5.57634 21.2374 5.59891 21.2644C6.71847 22.6531 8.10633 23.1085 9.51486 23.1085C10.6695 23.1085 11.8387 22.8025 12.8845 22.4542C13.356 22.2967 13.6117 21.7873 13.4542 21.3156C13.2966 20.8449 12.789 20.5875 12.3156 20.7459Z" fill="#343EA8"/>
<path d="M34.6023 8.19454C33.9363 7.86158 32.8257 7.62037 31.5559 7.53399C31.0708 7.50699 30.6307 7.87423 30.5964 8.37004C30.5622 8.86596 30.9366 9.29521 31.4325 9.32949C32.5647 9.4069 33.4358 9.62375 33.7977 9.80558C35.2845 10.5481 37.8 12.9213 37.8 17.1001C37.8 21.1051 33.5223 24.589 33.4791 24.6241C33.0921 24.9356 33.029 25.5016 33.3395 25.8886C33.5178 26.1109 33.7787 26.2261 34.0425 26.2261C34.2396 26.2261 34.4385 26.1614 34.6041 26.029C34.8076 25.866 39.6001 21.9762 39.6001 17.1001C39.6001 12.043 36.459 9.1233 34.6023 8.19454Z" fill="#343EA8"/>
<path d="M51.56 8.13771C51.5267 8.12875 51.4943 8.12063 51.461 8.1143L31.661 4.51434C31.1696 4.42796 30.7034 4.75101 30.6143 5.2388C30.5252 5.72754 30.8502 6.19635 31.3388 6.28547L51.0857 9.87552C51.7238 10.0798 52.1999 10.4723 52.1999 10.7999C52.1999 11.6261 51.9983 12.0248 51.4367 13.0228L51.191 13.4153L44.2601 12.1643C43.7687 12.0743 43.3025 12.401 43.2143 12.8897C43.1261 13.3793 43.4509 13.8473 43.9397 13.9355L50.1641 15.0588L48.914 17.0604L44.1745 16.6671C43.6796 16.6248 43.244 16.9947 43.2025 17.4896C43.162 17.9846 43.5301 18.4202 44.0251 18.4607L47.8402 18.7766L46.9673 20.1752C45.8936 21.4721 44.3582 21.6377 41.6842 20.7458C41.2108 20.5874 40.7033 20.8448 40.5457 21.3155C40.3882 21.7871 40.6438 22.2965 41.1154 22.454C42.1613 22.8023 43.3304 23.1084 44.485 23.1084C45.8936 23.1084 47.2813 22.653 48.4009 21.2642C48.4234 21.2372 48.4441 21.2075 48.463 21.1769L52.9837 13.9419C53.6327 12.7916 53.9998 12.0789 53.9998 10.8C53.9999 9.62999 53.0424 8.58596 51.56 8.13771Z" fill="#343EA8"/>
<path d="M24.785 32.6942C24.3242 32.5062 23.7995 32.7284 23.6123 33.1883C23.471 33.5348 23.3999 33.875 23.3999 34.1999C23.3999 34.7057 23.5727 35.2412 23.9137 35.7938C24.0839 36.0692 24.3781 36.2213 24.6805 36.2213C24.8416 36.2213 25.0055 36.1781 25.1521 36.0872C25.5751 35.8254 25.7065 35.2709 25.4455 34.848C25.2322 34.5024 25.1997 34.2935 25.1997 34.2C25.1997 34.11 25.2277 33.9947 25.2789 33.8661C25.4664 33.4061 25.245 32.8814 24.785 32.6942Z" fill="#343EA8"/>
<path d="M24.3271 12.6C24.8248 12.6 25.2271 12.1968 25.2271 11.7C25.2271 11.2033 24.8248 10.8 24.3271 10.8H24.3181C23.8214 10.8 23.4226 11.2033 23.4226 11.7C23.4226 12.1968 23.8304 12.6 24.3271 12.6Z" fill="#343EA8"/>
<path d="M27.9 22.1274V14.8267C28.8855 14.2587 29.7001 13.3597 29.7001 11.7001C29.7001 10.3356 29.061 9.26016 27.9 8.53654V5.23441C28.9459 4.86095 29.7001 3.87176 29.7001 2.7C29.7001 1.21141 28.4887 0 27.0001 0C25.5115 0 24.3001 1.21141 24.3001 2.7C24.3001 3.87176 25.0543 4.86095 26.1001 5.23346V7.80026C25.3099 7.60229 24.4036 7.49788 23.3911 7.49788C21.8126 7.49788 20.2456 7.77146 19.3979 8.1945C17.5412 9.12326 14.4001 12.0429 14.4001 17.1C14.4001 21.9762 19.0406 25.7445 19.2377 25.9029L26.1002 31.392V37.8369L23.6639 40.7637C23.5793 40.8483 21.6002 42.8625 21.6002 45.9C21.6002 49.1562 23.8718 50.292 25.6979 51.2055L25.8734 51.2928C25.949 51.3306 26.0246 51.3685 26.1001 51.4062V53.1C26.1001 53.5968 26.5033 54 27.0001 54C27.4968 54 27.9 53.5968 27.9 53.1V52.2289C28.5147 52.4637 29.1069 52.6231 29.6443 52.6231C30.5389 52.6231 31.0483 52.1992 31.3174 51.8437C32.4163 50.3947 31.187 48.6946 30.2402 47.8801L27.4699 45.8029L32.9797 40.2895C33.1022 40.1851 36.0002 37.71 36.0002 34.2C36.0002 30.2725 33.158 27.3843 33.0365 27.2638L27.9 22.1274ZM27.0001 1.80004C27.496 1.80004 27.9 2.20409 27.9 2.7C27.9 3.19591 27.496 3.59996 27.0001 3.59996C26.5042 3.59996 26.1001 3.19591 26.1001 2.7C26.1001 2.20409 26.5042 1.80004 27.0001 1.80004ZM31.7638 38.9637L25.4638 45.2637C25.2794 45.4482 25.1839 45.7038 25.2019 45.9639C25.2208 46.224 25.3514 46.4634 25.5601 46.62L29.1124 49.2813C29.4374 49.5621 30.1438 50.4126 29.8829 50.7564C29.8666 50.778 29.8324 50.823 29.6444 50.823C28.9541 50.823 27.7463 50.2173 26.6798 49.6836L26.5025 49.5945C24.5791 48.6332 23.4002 47.9403 23.4002 45.9C23.4002 43.6266 24.9239 42.0498 24.9914 41.976L29.4365 36.6364C29.5553 36.5176 30.6003 35.4376 30.6003 34.2C30.6003 32.9625 29.5554 31.8826 29.4365 31.7637C29.4131 31.7403 29.3879 31.7178 29.3627 31.6972L20.3627 24.4981C20.3222 24.4647 16.2002 21.1042 16.2002 17.1001C16.2002 12.9214 18.7157 10.548 20.2025 9.80554C20.7074 9.55262 21.9647 9.29791 23.3913 9.29791C24.4496 9.29791 27.9003 9.47067 27.9003 11.7C27.9003 12.9519 27.1992 13.3101 25.4784 13.8834C24.9509 14.0598 24.4047 14.2416 23.898 14.4945C23.3589 14.7645 21.6003 15.7491 21.6003 17.1C21.6003 18.3374 22.6452 19.4174 22.764 19.5363L26.3253 23.0975C26.3559 23.1327 26.3856 23.1633 26.4207 23.1938L31.764 28.5363C31.7883 28.5605 34.2003 31.0095 34.2003 34.1999C34.2001 36.8604 31.843 38.8917 31.7638 38.9637ZM27.9 35.6751V32.832L28.1925 33.0669C28.4481 33.3396 28.8 33.8616 28.8 34.1999C28.8 34.5527 28.4184 35.1044 28.1088 35.4239L27.9 35.6751ZM26.1001 15.5736V20.3274L24.0391 18.2664C23.7817 18.0046 23.4001 17.4529 23.3957 17.1396C23.465 16.9155 24.113 16.4025 24.7024 16.1055C25.0957 15.9084 25.5575 15.7545 26.0471 15.5915C26.064 15.5853 26.083 15.579 26.1001 15.5736Z" fill="#343EA8"/>
</g>
<defs>
<clipPath id="clip0_587_1849">
<rect width="54" height="54" fill="white"/>
</clipPath>
</defs>
</svg>
