<svg width="52" height="52" viewBox="0 0 52 52" fill="none" xmlns="http://www.w3.org/2000/svg">
<path d="M46.7494 21.1047C46.7494 17.8344 44.2205 15.0922 40.8182 14.6148V2.0414C40.8182 1.31015 39.9143 0.944524 39.2338 1.40156L19.3783 12.8476H6.30723C5.66738 12.8476 5.25098 13.3758 5.25098 13.9039V28.407C5.25098 29.0469 5.7791 29.4633 6.30723 29.4633H8.62285L13.508 50.0094C13.7213 50.4359 14.0361 50.7508 14.5643 50.7508H21.2369C21.8666 50.7508 22.5166 50.2937 22.2932 49.3695L17.54 29.4633H18.8705C18.9111 29.5039 18.9619 29.5344 19.0127 29.5648L39.2338 41.2141C39.965 41.6406 40.8182 41.1836 40.8182 40.2594V27.5945C44.1494 27.107 46.7494 24.3648 46.7494 21.1047ZM7.26191 14.8586H18.4846V27.3508H7.26191V14.8586ZM19.9674 48.6281H15.4174L10.7861 29.4633H15.3361L19.9674 48.6281ZM38.7057 38.4719L20.5971 27.9805V14.3305L38.7057 3.83906V38.4719ZM40.8283 25.4516V16.7578C43.0728 17.1945 44.7486 18.9922 44.7486 21.1047C44.7385 23.2172 43.0627 25.0148 40.8283 25.4516Z" fill="#343EA8"/>
</svg>
