<svg width="54" height="54" viewBox="0 0 54 54" fill="none" xmlns="http://www.w3.org/2000/svg">
<path d="M20.52 25.2891C16.0635 25.2891 12.437 28.9383 12.437 33.4175C12.437 37.8966 16.0635 41.5459 20.52 41.5459C25.0219 41.5459 28.6939 37.8966 28.6939 33.4175C28.6939 28.9383 25.0219 25.2891 20.52 25.2891ZM20.52 39.8406C16.9957 39.8406 14.1423 36.9644 14.1423 33.4175C14.1423 29.8705 17.0071 26.9943 20.52 26.9943C24.0896 26.9943 26.9886 29.8705 26.9886 33.4175C26.9886 36.9644 24.0896 39.8406 20.52 39.8406Z" fill="#343EA8"/>
<path d="M22.8846 34.5771C22.7255 33.4516 21.7705 32.6103 20.6337 32.6103H20.5427C20.2472 32.6103 19.9857 32.3602 19.8834 31.9737C19.8493 31.5644 20.0084 31.212 20.2585 31.0983C20.2699 31.0869 20.2926 31.0869 20.304 31.0756C20.611 30.9164 20.9065 31.0528 21.0202 31.2688C21.2476 31.6781 21.7705 31.8259 22.1798 31.5985C22.5891 31.3712 22.7369 30.8482 22.5095 30.4389C22.248 29.9842 21.8501 29.6432 21.3954 29.4613V28.3358C21.3954 27.8697 21.0089 27.4832 20.5427 27.4832C20.0766 27.4832 19.6901 27.8697 19.6901 28.3358V29.484C19.6446 29.5067 19.5878 29.5295 19.5423 29.5522C18.5987 29.9728 18.0531 31.0415 18.1781 32.2124C18.1781 32.2465 18.1895 32.2693 18.1895 32.3034C18.451 33.4971 19.4059 34.3269 20.52 34.3269H20.611C20.8952 34.3269 21.1453 34.5543 21.1794 34.8385C21.1794 34.8613 21.1907 34.8954 21.1907 34.9181C21.2817 35.3274 21.1339 35.6571 20.7815 35.8503C20.5769 35.9299 20.2585 35.8276 20.1221 35.5775C19.8947 35.1682 19.3718 35.0204 18.9625 35.2478C18.5533 35.4752 18.4055 35.9981 18.6329 36.4074C18.883 36.8507 19.2581 37.1804 19.6901 37.3737V38.5105C19.6901 38.9766 20.0766 39.3632 20.5427 39.3632C21.0089 39.3632 21.3954 38.9766 21.3954 38.5105V37.4419C21.4295 37.4305 21.4522 37.4192 21.4863 37.4078C21.4977 37.3964 21.5204 37.3964 21.5318 37.3851C22.6004 36.8394 23.1234 35.7366 22.8846 34.5771Z" fill="#343EA8"/>
<path d="M46.7014 16.0806H7.6395C7.17339 16.0806 6.78687 16.4672 6.78687 16.9333C6.78687 17.3994 7.17339 17.7859 7.6395 17.7859H45.8601V37.0554C45.8601 37.5215 46.2467 37.908 46.7128 37.908C47.1789 37.908 47.5654 37.5329 47.554 37.0667V16.9333C47.554 16.4672 47.1675 16.0806 46.7014 16.0806Z" fill="#343EA8"/>
<path d="M40.2669 22.3674H0.852632C0.386526 22.3674 0 22.7539 0 23.22V43.6263C0 44.0924 0.386526 44.479 0.852632 44.479H40.2669C40.7331 44.479 41.1196 44.0924 41.1196 43.6263V23.22C41.1196 22.7539 40.7444 22.3674 40.2669 22.3674ZM39.4143 24.0726V27.9606L35.5945 24.0726H39.4143ZM1.70526 24.0726H5.45684L1.70526 27.9493V24.0726ZM1.70526 42.7737V38.8971L5.45684 42.7737H1.70526ZM39.4257 42.7737H35.6059L39.4257 38.8857V42.7737ZM39.4257 36.4415L33.2185 42.7623H7.83284L1.70526 36.4415V30.3935L7.83284 24.0726H33.2185L39.4257 30.3935V36.4415Z" fill="#343EA8"/>
<path d="M53.1474 9.52106H14.0855C13.6194 9.52106 13.2329 9.90758 13.2329 10.3737C13.2329 10.8398 13.6194 11.2263 14.0855 11.2263H52.2948V30.4048C52.2948 30.871 52.6813 31.2575 53.1474 31.2575C53.6135 31.2575 54.0001 30.8823 54.0001 30.4048V10.3737C54.0001 9.90758 53.6135 9.52106 53.1474 9.52106Z" fill="#343EA8"/>
</svg>
