<svg width="54" height="54" viewBox="0 0 54 54" fill="none" xmlns="http://www.w3.org/2000/svg">
<g clip-path="url(#clip0_587_1838)">
<path d="M18.2029 16.6047H22.5429V19.6166H20.9208C20.4398 19.6166 20.0499 20.0064 20.0499 20.4875C20.0499 20.9685 20.4398 21.3583 20.9208 21.3583H33.079C33.5601 21.3583 33.9499 20.9685 33.9499 20.4875C33.9499 20.0064 33.5601 19.6166 33.079 19.6166H31.4569V16.6047H35.7969C37.5071 16.6047 38.8982 15.2135 38.8982 13.5034V3.10461C38.8982 1.39447 37.5071 0.0032959 35.7969 0.0032959H18.2029C16.4927 0.0032959 15.1016 1.39447 15.1016 3.10461V13.5034C15.1016 15.2135 16.4928 16.6047 18.2029 16.6047ZM29.7153 19.6166H24.2846V16.6047H29.7153V19.6166ZM16.8433 3.10461C16.8433 2.35497 17.4531 1.74502 18.2029 1.74502H35.7971C36.5467 1.74502 37.1566 2.35497 37.1566 3.10461V13.5034C37.1566 14.253 36.5467 14.863 35.7971 14.863H18.2029C17.4531 14.863 16.8433 14.253 16.8433 13.5034V3.10461Z" fill="#343EA8"/>
<path d="M20.6955 32.6416H3.10131C1.39117 32.6416 0 34.0329 0 35.7429V46.1417C0 47.8518 1.39117 49.243 3.10131 49.243H7.44133V52.2549H5.81921C5.33826 52.2549 4.94835 52.6447 4.94835 53.1258C4.94835 53.6068 5.33826 53.9966 5.81921 53.9966H17.9774C18.4583 53.9966 18.8482 53.6068 18.8482 53.1258C18.8482 52.6447 18.4583 52.2549 17.9774 52.2549H16.3554V49.243H20.6954C22.4055 49.243 23.7967 47.8518 23.7967 46.1417V35.7429C23.7968 34.0329 22.4055 32.6416 20.6955 32.6416ZM14.6137 52.2549H9.18305V49.243H14.6137V52.2549ZM22.0551 46.1417C22.0551 46.8913 21.4452 47.5013 20.6955 47.5013H3.10131C2.35156 47.5013 1.74172 46.8913 1.74172 46.1417V35.7429C1.74172 34.9933 2.35156 34.3833 3.10131 34.3833H20.6955C21.4452 34.3833 22.0551 34.9933 22.0551 35.7429V46.1417Z" fill="#343EA8"/>
<path d="M50.8987 32.6416H33.3044C31.5943 32.6416 30.2031 34.0328 30.2031 35.7429V46.1417C30.2031 47.8518 31.5943 49.243 33.3044 49.243H37.6445V52.2549H36.0224C35.5414 52.2549 35.1516 52.6447 35.1516 53.1258C35.1516 53.6068 35.5414 53.9966 36.0224 53.9966H48.1806C48.6617 53.9966 49.0515 53.6068 49.0515 53.1258C49.0515 52.6447 48.6617 52.2549 48.1806 52.2549H46.5586V49.243H50.8986C52.6087 49.243 53.9999 47.8518 53.9999 46.1417V35.7429C54 34.0329 52.6087 32.6416 50.8987 32.6416ZM44.817 52.2549H39.3862V49.243H44.817V52.2549ZM52.2583 46.1417C52.2583 46.8913 51.6484 47.5013 50.8987 47.5013H33.3044C32.5548 47.5013 31.9448 46.8913 31.9448 46.1417V35.7429C31.9448 34.9933 32.5548 34.3833 33.3044 34.3833H50.8986C51.6482 34.3833 52.2582 34.9933 52.2582 35.7429V46.1417H52.2583Z" fill="#343EA8"/>
<path d="M41.2305 30.029C41.2305 30.5101 41.6203 30.8999 42.1014 30.8999C42.5825 30.8999 42.9723 30.5101 42.9723 30.029V26.9999C42.9723 26.5189 42.5825 26.1291 42.1014 26.1291H27.8706V23.9708C27.8706 23.4898 27.4808 23.1 26.9997 23.1C26.5188 23.1 26.1289 23.4898 26.1289 23.9708V26.1291H11.8982C11.4173 26.1291 11.0273 26.5189 11.0273 26.9999V30.029C11.0273 30.5101 11.4173 30.8999 11.8982 30.8999C12.3792 30.8999 12.7691 30.5101 12.7691 30.029V27.8708H41.2305V30.029Z" fill="#343EA8"/>
</g>
<defs>
<clipPath id="clip0_587_1838">
<rect width="54" height="54" fill="white"/>
</clipPath>
</defs>
</svg>
