<svg width="47" height="47" viewBox="0 0 47 47" fill="none" xmlns="http://www.w3.org/2000/svg">
<g clip-path="url(#clip0_587_1810)">
<path d="M14.1001 33.6833V35.25C14.1001 35.6824 14.451 36.0333 14.8834 36.0333C15.3158 36.0333 15.6667 35.6824 15.6667 35.25V33.6833C15.6667 33.251 15.3158 32.9 14.8834 32.9C14.451 32.9 14.1001 33.251 14.1001 33.6833Z" fill="#343EA8"/>
<path d="M46.2167 45.4333H45.4334V20.7583C45.4334 20.3259 45.0825 19.975 44.6501 19.975C44.2177 19.975 43.8668 20.3259 43.8668 20.7583V45.4333H3.1333V20.7583C3.1333 20.3259 2.78236 19.975 2.35 19.975C1.91764 19.975 1.5667 20.3259 1.5667 20.7583V45.4333H0.783303C0.350939 45.4333 0 45.7842 0 46.2166C0 46.6489 0.350939 47 0.783303 47H46.2166C46.649 47 46.9999 46.649 46.9999 46.2167C46.9999 45.7843 46.6491 45.4333 46.2167 45.4333Z" fill="#343EA8"/>
<path d="M18.0166 43.8667C18.449 43.8667 18.7999 43.5158 18.7999 43.0834V24.2834C18.7999 23.8511 18.449 23.5001 18.0166 23.5001H7.0499C6.61754 23.5001 6.2666 23.8511 6.2666 24.2834V43.0834C6.2666 43.5158 6.61754 43.8667 7.0499 43.8667C7.48227 43.8667 7.83321 43.5158 7.83321 43.0834V25.0667H17.2332V43.0834C17.2332 43.5158 17.5841 43.8667 18.0166 43.8667Z" fill="#343EA8"/>
<path d="M32.6706 28.4295C32.3643 28.1233 31.8692 28.1233 31.563 28.4295C31.2567 28.7358 31.2567 29.2309 31.563 29.5371L34.6963 32.6704C34.849 32.8232 35.0496 32.8999 35.2501 32.8999C35.4507 32.8999 35.6512 32.8232 35.8039 32.6704C36.1102 32.3641 36.1102 31.869 35.8039 31.5628L32.6706 28.4295Z" fill="#343EA8"/>
<path d="M43.0833 0H3.9167C1.75699 0 0 1.75699 0 3.9167V17.9376C0 18.1734 0.10575 18.3958 0.287508 18.5446C0.469266 18.6927 0.709682 18.7522 0.939266 18.7052C2.19027 18.4514 3.24465 17.7049 3.91596 16.6935C4.75802 17.9625 6.20014 18.7999 7.83339 18.7999C9.46591 18.7999 10.9072 17.9633 11.7501 16.6951C12.593 17.9633 14.0343 18.7999 15.6668 18.7999C17.2993 18.7999 18.7406 17.9633 19.5835 16.6951C20.4262 17.9634 21.8676 18.8 23.5 18.8C25.1325 18.8 26.5738 17.9634 27.4167 16.6952C28.2596 17.9634 29.7009 18.8 31.3334 18.8C32.9658 18.8 34.4072 17.9634 35.2501 16.6952C36.093 17.9634 37.5343 18.8 39.1668 18.8C40.8 18.8 42.2422 17.9626 43.0842 16.6936C43.7555 17.705 44.8099 18.4514 46.0609 18.7053C46.292 18.7531 46.5302 18.6935 46.7127 18.5447C46.8944 18.3959 47.0002 18.1734 47.0002 17.9377V3.9167C47 1.75699 45.243 0 43.0833 0ZM45.4333 16.8134C44.4878 16.2651 43.8666 15.2398 43.8666 14.1V3.9167C43.8666 3.48433 43.5157 3.13339 43.0833 3.13339C42.6509 3.13339 42.3 3.48433 42.3 3.9167V14.1C42.3 15.8281 40.8947 17.2333 39.1667 17.2333C37.4387 17.2333 36.0334 15.828 36.0334 14.1V3.9167C36.0334 3.48433 35.6825 3.13339 35.2501 3.13339C34.8177 3.13339 34.4668 3.48433 34.4668 3.9167V14.1C34.4668 15.8281 33.0615 17.2333 31.3335 17.2333C29.6054 17.2333 28.2002 15.828 28.2002 14.1V3.9167C28.2002 3.48433 27.8492 3.13339 27.4169 3.13339C26.9845 3.13339 26.6336 3.48433 26.6336 3.9167V14.1C26.6336 15.8281 25.2283 17.2333 23.5003 17.2333C21.7722 17.2333 20.367 15.828 20.367 14.1V3.9167C20.367 3.48433 20.016 3.13339 19.5837 3.13339C19.1513 3.13339 18.8004 3.48433 18.8004 3.9167V14.1C18.8004 15.8281 17.3951 17.2333 15.6671 17.2333C13.9391 17.2333 12.5338 15.828 12.5338 14.1V3.9167C12.5338 3.48433 12.1828 3.13339 11.7505 3.13339C11.3181 3.13339 10.9672 3.48433 10.9672 3.9167V14.1C10.9672 15.8281 9.56184 17.2333 7.83385 17.2333C6.10578 17.2333 4.70055 15.828 4.70055 14.1V3.9167C4.70055 3.48433 4.34961 3.13339 3.91725 3.13339C3.48488 3.13339 3.13395 3.48433 3.13395 3.9167V14.1C3.13395 15.2398 2.51276 16.2651 1.56725 16.8134V3.9167C1.56725 2.62108 2.62163 1.5667 3.91725 1.5667H43.0839C44.3796 1.5667 45.4339 2.62108 45.4339 3.9167V16.8134H45.4333Z" fill="#343EA8"/>
<path d="M39.95 40.7333C40.3824 40.7333 40.7333 40.3824 40.7333 39.95V24.2833C40.7333 23.8509 40.3824 23.5 39.95 23.5H21.15C20.7176 23.5 20.3667 23.8509 20.3667 24.2833V39.95C20.3667 40.3824 20.7176 40.7333 21.15 40.7333H39.95ZM21.9333 25.0667H39.1666V39.1667H21.9333V25.0667Z" fill="#343EA8"/>
<path d="M35.8038 26.8629C35.4976 26.5565 35.0025 26.5565 34.6962 26.8629C34.39 27.1692 34.39 27.6642 34.6962 27.9705L36.2629 29.5372C36.4157 29.6899 36.6162 29.7667 36.8167 29.7667C37.0173 29.7667 37.2178 29.6899 37.3705 29.5372C37.6769 29.2309 37.6769 28.7358 37.3705 28.4296L35.8038 26.8629Z" fill="#343EA8"/>
</g>
<defs>
<clipPath id="clip0_587_1810">
<rect width="47" height="47" fill="white"/>
</clipPath>
</defs>
</svg>
