<svg width="56" height="56" viewBox="0 0 56 56" fill="none" xmlns="http://www.w3.org/2000/svg">
<path d="M41.8037 17.4298C42.0531 16.3674 42.1794 15.276 42.1794 14.1792C42.1793 6.36076 35.8186 0 28.0002 0C20.1818 0 13.8211 6.36076 13.8211 14.1792C13.8211 15.2761 13.9474 16.3674 14.1968 17.4298C11.6217 20.5943 10.209 24.5612 10.209 28.654C10.209 32.7455 11.6322 36.7403 14.2164 39.9027C16.7642 43.0205 20.3231 45.2019 24.2376 46.0451C24.7199 46.1491 25.1954 45.8422 25.2993 45.3596C25.4032 44.8772 25.0963 44.4018 24.6139 44.2979C17.3026 42.7231 11.9962 36.1439 11.9962 28.6539C11.9962 24.8319 13.3658 21.1318 15.8526 18.2351C16.0453 18.0107 16.1145 17.7055 16.0373 17.4199C15.7526 16.3667 15.6083 15.2762 15.6083 14.1791C15.6083 7.34625 21.1672 1.78723 28.0002 1.78723C34.8331 1.78723 40.392 7.34625 40.392 14.1792C40.392 15.2763 40.2477 16.3668 39.9631 17.42C39.8859 17.7057 39.9551 18.0108 40.1478 18.2353C42.6347 21.1319 44.0042 24.8321 44.0042 28.654C44.0042 36.1439 38.6976 42.7232 31.3865 44.298C30.9041 44.4019 30.5972 44.8773 30.7011 45.3598C30.7914 45.7788 31.1618 46.0654 31.5738 46.0654C31.6361 46.0654 31.6994 46.0588 31.7628 46.0451C35.6773 45.202 39.2362 43.0205 41.7839 39.9027C44.3682 36.7403 45.7914 32.7453 45.7914 28.654C45.7914 24.5612 44.3786 20.5943 41.8037 17.4298Z" fill="#343EA8"/>
<path d="M35.3883 31.7401C35.7373 31.3911 35.7373 30.8252 35.3883 30.4764C35.0394 30.1274 34.4735 30.1274 34.1247 30.4764L28.8939 35.707V30.4803C28.8939 30.4772 28.8939 15.4059 28.8939 15.4059C28.8939 14.9124 28.4938 14.5123 28.0003 14.5123C27.5068 14.5123 27.1067 14.9124 27.1067 15.4059V28.3213L21.876 23.0907C21.527 22.7417 20.9612 22.7417 20.6123 23.0907C20.2633 23.4397 20.2633 24.0054 20.6123 24.3544L27.1068 30.8488V55.1064C27.1068 55.5999 27.5069 56 28.0004 56C28.4939 56 28.894 55.5999 28.894 55.1064V38.2345L35.3883 31.7401Z" fill="#343EA8"/>
<path d="M19.3618 34.6127C19.3618 35.1383 19.7894 35.5659 20.315 35.5659C20.8406 35.5659 21.2682 35.1383 21.2682 34.6127C21.2682 34.0872 20.8406 33.6595 20.315 33.6595C19.7894 33.6595 19.3618 34.0872 19.3618 34.6127Z" fill="#343EA8"/>
<path d="M35.7096 12.3915C35.7096 11.866 35.282 11.4384 34.7564 11.4384C34.2308 11.4384 33.8032 11.866 33.8032 12.3915C33.8032 12.9171 34.2308 13.3447 34.7564 13.3447C35.282 13.3447 35.7096 12.9171 35.7096 12.3915Z" fill="#343EA8"/>
<path d="M33.4811 8.87665C33.4811 8.35109 33.0535 7.92346 32.5279 7.92346C32.0023 7.92346 31.5747 8.35109 31.5747 8.87665C31.5747 9.40222 32.0023 9.82984 32.5279 9.82984C33.0535 9.82984 33.4811 9.40222 33.4811 8.87665Z" fill="#343EA8"/>
</svg>
