<svg width="44" height="44" viewBox="0 0 44 44" fill="none" xmlns="http://www.w3.org/2000/svg">
<g clip-path="url(#clip0_587_1889)">
<path d="M39.7368 11.2944H39.1084V2.75937C39.1084 1.23649 37.8695 0 36.3491 0H35.1329L34.9994 0.0102514C25.7649 1.53553 4.24372 7.95594 4.03237 8.01832C1.50464 8.75686 1.50464 10.606 1.50464 11.7145V14.054V37.9325V41.2415C1.50464 42.7613 2.74353 44.0002 4.264 44.0002H39.7368C41.259 44.0002 42.4955 42.7613 42.4955 41.2415V34.6407V23.6381V14.054C42.4955 12.5309 41.259 11.2944 39.7368 11.2944ZM4.49979 9.599C4.71376 9.53334 26.0342 3.1716 35.2007 1.64633H36.3489C36.9624 1.64633 37.4628 2.14668 37.4628 2.75937V11.2953H4.264C3.8666 11.2953 3.49275 11.3834 3.15315 11.5341C3.15576 10.5991 3.23363 9.96826 4.49979 9.599ZM40.8492 32.9974H30.0216C29.4089 32.9974 28.9085 32.4947 28.9085 31.882V26.3966C28.9085 25.784 29.4089 25.2836 30.0216 25.2836H40.8492V32.9974ZM30.0216 23.6381C28.5018 23.6381 27.2629 24.877 27.2629 26.3969V31.8822C27.2629 33.4044 28.5018 34.6409 30.0216 34.6409H40.8492V41.2417C40.8492 41.8544 40.3512 42.3548 39.7362 42.3548H4.264C3.65045 42.3548 3.15097 41.8544 3.15097 41.2417V37.9327V14.054C3.15097 13.4404 3.65132 12.9409 4.264 12.9409H39.7368C40.3519 12.9409 40.8499 13.4404 40.8499 14.054V23.6381H30.0216Z" fill="#343EA8"/>
<path d="M31.7426 30.3089C32.4108 30.3089 32.9525 29.7672 32.9525 29.099C32.9525 28.4308 32.4108 27.8892 31.7426 27.8892C31.0744 27.8892 30.5327 28.4308 30.5327 29.099C30.5327 29.7672 31.0744 30.3089 31.7426 30.3089Z" fill="#343EA8"/>
</g>
<defs>
<clipPath id="clip0_587_1889">
<rect width="44" height="44" fill="white"/>
</clipPath>
</defs>
</svg>
