<svg width="47" height="47" viewBox="0 0 47 47" fill="none" xmlns="http://www.w3.org/2000/svg">
<path d="M24.0513 34.404C23.3332 34.404 22.7145 34.2662 22.1985 33.9906C21.6825 33.715 21.2553 33.3199 20.9184 32.8039C20.5815 32.2878 20.335 31.6524 20.1773 30.9021C20.0195 30.1487 19.9414 29.2897 19.9414 28.3234C19.9414 27.3695 20.0195 26.512 20.1773 25.754C20.335 24.996 20.5815 24.359 20.9184 23.8415C21.2553 23.3254 21.6825 22.9288 22.1985 22.6548C22.7145 22.3807 23.3332 22.2413 24.0513 22.2413C24.7695 22.2413 25.3881 22.3791 25.9041 22.6548C26.4202 22.9304 26.8489 23.3254 27.1843 23.8415C27.5211 24.3575 27.7677 24.9945 27.9239 25.754C28.0831 26.512 28.1597 27.3695 28.1597 28.3234C28.1597 29.2897 28.0816 30.1472 27.9239 30.9021C27.7661 31.6524 27.5196 32.2878 27.1843 32.8039C26.8474 33.3214 26.4202 33.7165 25.9041 33.9906C25.3881 34.2662 24.7695 34.404 24.0513 34.404ZM24.0513 33.1744C24.5229 33.1744 24.9272 33.081 25.2641 32.8957C25.601 32.7105 25.8735 32.4502 26.0818 32.1118C26.29 31.7749 26.4431 31.3691 26.5457 30.8913C26.6453 30.4136 26.6973 29.8777 26.6973 29.282V27.3618C26.6973 26.7784 26.6468 26.244 26.5457 25.7617C26.4447 25.2793 26.29 24.8689 26.0818 24.5321C25.8735 24.1952 25.6025 23.9333 25.2641 23.7481C24.9272 23.5628 24.5229 23.4709 24.0513 23.4709C23.5797 23.4709 23.1754 23.5643 22.8386 23.7481C22.5017 23.9333 22.2307 24.1952 22.0224 24.5321C21.8142 24.8689 21.6595 25.2793 21.5584 25.7617C21.4574 26.2425 21.4069 26.7784 21.4069 27.3618V29.282C21.4069 29.8777 21.4574 30.4121 21.5584 30.8913C21.6595 31.3691 21.8142 31.7749 22.0224 32.1118C22.2307 32.4502 22.5017 32.7105 22.8386 32.8957C23.1754 33.0826 23.5797 33.1744 24.0513 33.1744ZM24.0513 29.3172C23.6593 29.3172 23.3868 29.2391 23.2352 29.0814C23.0836 28.9252 23.0085 28.7338 23.0085 28.5102V28.1397C23.0085 27.9161 23.0836 27.7247 23.2352 27.567C23.3868 27.4093 23.6593 27.3327 24.0513 27.3327C24.4449 27.3327 24.7174 27.4108 24.869 27.567C25.0206 27.7232 25.0956 27.9161 25.0956 28.1397V28.5102C25.0956 28.7338 25.0206 28.9252 24.869 29.0814C24.7159 29.2391 24.4433 29.3172 24.0513 29.3172ZM30.5193 34.2019V32.9708H33.8881V23.4893H33.7702L30.8041 26.2517L29.9788 25.3605L33.0949 22.445H35.3014V32.9723H38.3991V34.2034H30.5193V34.2019ZM0.97998 17.375H2.08248V0.53125H0.97998V17.375ZM20.4575 0.53125H19.355V8.1875H20.4575V0.53125ZM7.10498 23.5H8.20748V6.65625H7.10498V23.5ZM0.97998 41.875H2.08248V29.625H0.97998V41.875ZM0.97998 23.5H2.08248V18.9062H0.97998V23.5ZM7.10498 34.2188H8.20748V25.0312H7.10498V34.2188ZM7.10498 46.4688H8.20748V38.8125H7.10498V46.4688ZM7.10498 5.125H8.20748V0.53125H7.10498V5.125ZM14.3325 5.125H13.23V17.375H14.3325V5.125ZM32.7075 0.53125H31.605V9.71875H32.709L32.7075 0.53125ZM13.23 44.9375H14.3325V38.8125H13.23V44.9375ZM0.97998 28.0938H2.08248V25.0312H0.97998V28.0938ZM14.3325 0.53125H13.23V3.59375H14.3325V0.53125ZM26.5825 0.53125H25.48V5.125H26.5825V0.53125ZM26.5825 6.65625H25.48V9.71875H26.5825V6.65625ZM7.10498 37.2812H8.20748V35.75H7.10498V37.2812ZM20.4575 9.71875H19.355V11.25H20.4575V9.71875ZM46.3647 46.1212L40.5888 39.0024C43.4017 36.0394 44.9575 32.1883 44.9575 28.0922C44.9575 19.3457 37.8418 12.2285 29.0937 12.2285C20.3472 12.23 13.23 19.3472 13.23 28.0938C13.23 36.8418 20.3457 43.9575 29.0937 43.9575C33.0964 43.9575 36.8618 42.4676 39.7972 39.7757L45.5103 46.8163L46.3647 46.1212ZM14.3325 28.0938C14.3325 19.9552 20.9551 13.3325 29.0937 13.3325C37.2323 13.3325 43.855 19.9552 43.855 28.0938C43.855 32.0337 42.3191 35.7393 39.5307 38.5292C36.7393 41.3192 33.0336 42.855 29.0937 42.855C20.9551 42.855 14.3325 36.2323 14.3325 28.0938Z" fill="#343EA8"/>
</svg>
