<svg width="49" height="41" viewBox="0 0 49 41" fill="none" xmlns="http://www.w3.org/2000/svg">
<path d="M20.3594 6.19006H9.59381V4.99756H20.3594V6.19006ZM20.3594 19.9038H9.59381V21.0963H20.3594V19.9038ZM9.59381 36.0026H20.3594V34.8101H9.59381V36.0026ZM48.2838 5.59381V20.5001C48.2838 20.8297 48.0172 21.0963 47.6876 21.0963H41.6588V25.4688C41.6588 25.7984 41.3922 26.0651 41.0626 26.0651H7.93756C7.60796 26.0651 7.34131 25.7984 7.34131 25.4688V21.0963H1.90881V34.8101H7.34131V30.4376C7.34131 30.108 7.60796 29.8413 7.93756 29.8413H41.0626C41.3922 29.8413 41.6588 30.108 41.6588 30.4376V40.3751C41.6588 40.7047 41.3922 40.9713 41.0626 40.9713H7.93756C7.60796 40.9713 7.34131 40.7047 7.34131 40.3751V36.0026H1.31256C0.982965 36.0026 0.716309 35.7359 0.716309 35.4063V20.5001C0.716309 20.1705 0.982965 19.9038 1.31256 19.9038H7.34131V15.5313C7.34131 15.2017 7.60796 14.9351 7.93756 14.9351H41.0626C41.3922 14.9351 41.6588 15.2017 41.6588 15.5313V19.9038H47.0897V6.19006H41.6588V10.5626C41.6588 10.8922 41.3922 11.1588 41.0626 11.1588H7.93756C7.60796 11.1588 7.34131 10.8922 7.34131 10.5626V0.625058C7.34131 0.295465 7.60796 0.0288086 7.93756 0.0288086H41.0626C41.3922 0.0288086 41.6588 0.295465 41.6588 0.625058V4.99756H47.6876C48.0172 4.99756 48.2838 5.26421 48.2838 5.59381ZM40.4663 1.22131H8.53381V9.96631H40.4663V1.22131ZM8.53381 39.7788H40.4663V31.0338H8.53381V39.7788ZM40.4663 16.1276H8.53381V24.8726H40.4663V16.1276ZM37.7501 5.59381C37.7501 5.13668 37.3791 4.76568 36.9219 4.76568C36.4648 4.76568 36.0938 5.13668 36.0938 5.59381C36.0938 6.05093 36.4648 6.42193 36.9219 6.42193C37.3791 6.42193 37.7501 6.05093 37.7501 5.59381ZM37.7501 20.5001C37.7501 20.0429 37.3791 19.6719 36.9219 19.6719C36.4648 19.6719 36.0938 20.0429 36.0938 20.5001C36.0938 20.9572 36.4648 21.3282 36.9219 21.3282C37.3791 21.3282 37.7501 20.9572 37.7501 20.5001ZM37.7501 35.4063C37.7501 34.9492 37.3791 34.5782 36.9219 34.5782C36.4648 34.5782 36.0938 34.9492 36.0938 35.4063C36.0938 35.8634 36.4648 36.2344 36.9219 36.2344C37.3791 36.2344 37.7501 35.8634 37.7501 35.4063Z" fill="#343EA8"/>
</svg>
