<svg width="48" height="48" viewBox="0 0 48 48" fill="none" xmlns="http://www.w3.org/2000/svg">
<path d="M24 48C10.7656 48 0 37.2344 0 24C0 10.7656 10.7656 0 24 0C37.2344 0 48 10.7656 48 24C48 37.2344 37.2344 48 24 48ZM23.0391 46.8547C23.3578 46.8687 23.6781 46.875 24 46.875C31.4078 46.875 38.0047 43.3359 42.1875 37.8594V17.7625H43.3141V36.2484C45.5672 32.7047 46.875 28.5031 46.875 24C46.875 20.8766 46.2469 17.9 45.1094 15.1859L27.6922 5.13125L28.2547 4.15625L44.2687 13.4016C40.8719 6.93125 34.4672 2.27812 26.9234 1.31094L9.50469 11.3687L8.94219 10.3937L24.9609 1.14531C24.6437 1.13125 24.3219 1.125 24 1.125C16.5922 1.125 9.99531 4.66562 5.8125 10.1422V30.2391H4.6875V11.7516C2.43281 15.2953 1.125 19.4984 1.125 24C1.125 27.1219 1.75312 30.0984 2.89062 32.8141L20.3078 42.8703L19.7453 43.8438L3.73125 34.5969C7.12812 41.0687 13.5328 45.7219 21.0766 46.6891L38.4953 36.6312L39.0562 37.6047L23.0391 46.8547ZM35.7188 30.8125C34.1172 30.8125 32.8125 29.5078 32.8125 27.9062C32.8125 26.3047 34.1172 25 35.7188 25C37.3203 25 38.625 26.3031 38.625 27.9062C38.625 29.5094 37.3203 30.8125 35.7188 30.8125ZM35.7188 26.125C34.7359 26.125 33.9375 26.9234 33.9375 27.9062C33.9375 28.8891 34.7359 29.6875 35.7188 29.6875C36.7016 29.6875 37.5 28.8891 37.5 27.9062C37.5 26.9234 36.7016 26.125 35.7188 26.125ZM20.0937 30.8125C18.4922 30.8125 17.1875 29.5078 17.1875 27.9062C17.1875 26.3047 18.4906 25 20.0937 25C21.6969 25 23 26.3031 23 27.9062C23 29.5094 21.6953 30.8125 20.0937 30.8125ZM20.0937 26.125C19.1125 26.125 18.3125 26.9234 18.3125 27.9062C18.3125 28.8891 19.1125 29.6875 20.0937 29.6875C21.075 29.6875 21.875 28.8891 21.875 27.9062C21.875 26.9234 21.075 26.125 20.0937 26.125ZM28.4688 30.25H27.3437V25.5625H28.4703L28.4688 30.25ZM12.8437 30.25H11.7188V25.5625H12.8437V30.25ZM27.9062 23C26.3047 23 25 21.6969 25 20.0937C25 18.4906 26.3031 17.1875 27.9062 17.1875C29.5094 17.1875 30.8125 18.4906 30.8125 20.0937C30.8125 21.6969 29.5078 23 27.9062 23ZM27.9062 18.3125C26.9234 18.3125 26.125 19.1125 26.125 20.0937C26.125 21.075 26.9234 21.875 27.9062 21.875C28.8891 21.875 29.6875 21.075 29.6875 20.0937C29.6875 19.1125 28.8891 18.3125 27.9062 18.3125ZM12.2812 23C10.6797 23 9.375 21.6969 9.375 20.0937C9.375 18.4906 10.6781 17.1875 12.2812 17.1875C13.8844 17.1875 15.1875 18.4906 15.1875 20.0937C15.1875 21.6969 13.8828 23 12.2812 23ZM12.2812 18.3125C11.3 18.3125 10.5 19.1125 10.5 20.0937C10.5 21.075 11.3 21.875 12.2812 21.875C13.2625 21.875 14.0625 21.075 14.0625 20.0937C14.0625 19.1125 13.2625 18.3125 12.2812 18.3125ZM36.2812 22.4375H35.1562V17.75H36.2828L36.2812 22.4375ZM20.6562 22.4375H19.5312V17.75H20.6562V22.4375Z" fill="#343EA8"/>
</svg>
