<svg width="14" height="12" viewBox="0 0 14 12" fill="none" xmlns="http://www.w3.org/2000/svg">
<path d="M9.00014 9.5H4.93014C4.88063 9.32465 4.80835 9.15655 4.71514 9L10.0001 3.715C10.3011 3.89969 10.647 3.99827 11.0001 4C11.3745 4.00121 11.7417 3.89734 12.0599 3.7002C12.3781 3.50307 12.6346 3.22057 12.8002 2.88486C12.9659 2.54915 13.0339 2.1737 12.9967 1.80121C12.9595 1.42872 12.8185 1.07415 12.5898 0.777834C12.361 0.481518 12.0537 0.25535 11.7027 0.125059C11.3518 -0.0052326 10.9713 -0.0344178 10.6046 0.0408233C10.2379 0.116064 9.89971 0.292711 9.62844 0.550669C9.35716 0.808628 9.16373 1.13754 9.07014 1.5H4.93014C4.80845 1.02867 4.51903 0.617902 4.11614 0.344696C3.71325 0.0714902 3.22455 -0.0453994 2.74164 0.0159378C2.25874 0.0772751 1.81478 0.312628 1.49298 0.677881C1.17119 1.04313 0.993652 1.51321 0.993652 2C0.993652 2.48678 1.17119 2.95686 1.49298 3.32211C1.81478 3.68737 2.25874 3.92272 2.74164 3.98406C3.22455 4.04539 3.71325 3.9285 4.11614 3.6553C4.51903 3.38209 4.80845 2.97133 4.93014 2.5H9.07014C9.11966 2.67534 9.19194 2.84344 9.28514 3L4.00014 8.285C3.69916 8.1003 3.35327 8.00172 3.00014 8C2.6258 7.99878 2.25864 8.10265 1.94041 8.29979C1.62218 8.49693 1.36567 8.77942 1.20005 9.11513C1.03443 9.45084 0.96635 9.8263 1.00356 10.1988C1.04077 10.5713 1.18177 10.9258 1.41053 11.2222C1.63928 11.5185 1.94661 11.7446 2.29755 11.8749C2.64848 12.0052 3.02894 12.0344 3.39565 11.9592C3.76235 11.8839 4.10057 11.7073 4.37185 11.4493C4.64312 11.1914 4.83656 10.8625 4.93014 10.5H9.00014V12H13.0001V8H9.00014V9.5ZM3.00014 3C2.80236 3 2.60902 2.94135 2.44457 2.83147C2.28012 2.72159 2.15195 2.56541 2.07626 2.38268C2.00058 2.19995 1.98077 1.99889 2.01936 1.80491C2.05794 1.61093 2.15318 1.43274 2.29304 1.29289C2.43289 1.15304 2.61107 1.0578 2.80505 1.01921C2.99903 0.980627 3.2001 1.00043 3.38283 1.07612C3.56555 1.15181 3.72173 1.27998 3.83161 1.44443C3.94149 1.60888 4.00014 1.80222 4.00014 2C4.00014 2.26521 3.89479 2.51957 3.70725 2.7071C3.51971 2.89464 3.26536 3 3.00014 3ZM11.0001 0.999997C11.1979 0.999997 11.3913 1.05865 11.5557 1.16853C11.7202 1.27841 11.8483 1.43459 11.924 1.61731C11.9997 1.80004 12.0195 2.00111 11.9809 2.19509C11.9423 2.38907 11.8471 2.56725 11.7073 2.7071C11.5674 2.84696 11.3892 2.9422 11.1952 2.98078C11.0013 3.01937 10.8002 2.99956 10.6175 2.92388C10.4347 2.84819 10.2786 2.72002 10.1687 2.55557C10.0588 2.39112 10.0001 2.19778 10.0001 2C10.0001 1.73478 10.1055 1.48043 10.293 1.29289C10.4806 1.10535 10.7349 0.999997 11.0001 0.999997ZM3.00014 11C2.80236 11 2.60902 10.9413 2.44457 10.8315C2.28012 10.7216 2.15195 10.5654 2.07626 10.3827C2.00058 10.2 1.98077 9.99889 2.01936 9.80491C2.05794 9.61093 2.15318 9.43274 2.29304 9.29289C2.43289 9.15304 2.61107 9.0578 2.80505 9.01921C2.99903 8.98063 3.2001 9.00043 3.38283 9.07612C3.56555 9.1518 3.72173 9.27998 3.83161 9.44443C3.94149 9.60888 4.00014 9.80222 4.00014 10C4.00014 10.2652 3.89479 10.5196 3.70725 10.7071C3.51971 10.8946 3.26536 11 3.00014 11ZM10.0001 9H12.0001V11H10.0001V9Z" fill="#343EA8"/>
</svg>
