<svg width="47" height="47" viewBox="0 0 47 47" fill="none" xmlns="http://www.w3.org/2000/svg">
<path d="M46.1606 5.875H0.839382C0.375428 5.875 0 6.25043 0 6.71417V40.2856C0 40.7495 0.375428 41.1249 0.839382 41.1249H7.55358H12.5892H16.7857H21.8213H26.0178H31.0535H46.1606C46.6246 41.1249 47 40.7495 47 40.2856V6.71417C47 6.25043 46.6246 5.875 46.1606 5.875ZM11.7501 39.4464H8.39296V29.3833C8.39296 28.453 9.14618 27.6966 10.0715 27.6966C10.9968 27.6966 11.7501 28.453 11.7501 29.3833V39.4464ZM20.9822 39.4464H17.6251V16.7865C17.6251 15.8603 18.3783 15.1071 19.3036 15.1071C20.229 15.1071 20.9822 15.8603 20.9822 16.7865V39.4464ZM30.2143 39.4464H26.8572V21.814C26.8572 20.8928 27.6104 20.1428 28.5358 20.1428C29.4611 20.1428 30.2143 20.8928 30.2143 21.814V39.4464ZM45.3214 39.4464H31.8928V21.814C31.8928 19.9666 30.3873 18.4642 28.5358 18.4642C26.6842 18.4642 25.1787 19.9666 25.1787 21.814V39.4464H22.6607V16.7865C22.6607 14.935 21.1551 13.4286 19.3036 13.4286C17.4521 13.4286 15.9465 14.935 15.9465 16.7865V39.4464H13.4286V29.3833C13.4286 27.5277 11.923 26.018 10.0715 26.018C8.22 26.018 6.71441 27.5277 6.71441 29.3833V39.4464H1.67855V7.55355H45.3214V39.4464Z" fill="#343EA8"/>
<path d="M41.9644 13.4286H33.5714V15.1071H41.9644V13.4286Z" fill="#343EA8"/>
<path d="M12.5895 21.8213H4.19653V23.4998H12.5895V21.8213Z" fill="#343EA8"/>
<path d="M38.6071 16.7856H33.5714V18.4642H38.6071V16.7856Z" fill="#343EA8"/>
</svg>
