<svg width="44" height="44" viewBox="0 0 44 44" fill="none" xmlns="http://www.w3.org/2000/svg">
<path d="M43.1852 8.55551H19.1767L16.1594 4.02922C16.0079 3.8027 15.7536 3.66663 15.4815 3.66663H0.814815C0.364222 3.66663 0 4.03085 0 4.48144V9.37033V12.6296V36.2617C0 38.5073 1.82519 40.3333 4.06919 40.3333H39.9308C42.1748 40.3333 44 38.5073 44 36.2617V12.6296V9.37033C44 8.91974 43.6358 8.55551 43.1852 8.55551ZM42.3704 11.8148H1.62963V10.1851H18.7407H42.3704V11.8148ZM1.62963 5.29626H15.0456L17.2187 8.55551H1.62963V5.29626ZM42.3704 36.2617C42.3704 37.6077 41.2761 38.7037 39.9308 38.7037H4.06919C2.72393 38.7037 1.62963 37.6077 1.62963 36.2617V13.4444H42.3704V36.2617Z" fill="#343EA8"/>
<path d="M22.0004 36.2592C27.3921 36.2592 31.7782 31.873 31.7782 26.4814C31.7782 21.0898 27.3921 16.7036 22.0004 16.7036C16.6088 16.7036 12.2227 21.0898 12.2227 26.4814C12.2227 31.873 16.6088 36.2592 22.0004 36.2592ZM22.0004 18.3332C26.4933 18.3332 30.1486 21.9885 30.1486 26.4814C30.1486 30.9743 26.4933 34.6295 22.0004 34.6295C17.5075 34.6295 13.8523 30.9743 13.8523 26.4814C13.8523 21.9885 17.5075 18.3332 22.0004 18.3332Z" fill="#343EA8"/>
<path d="M21.1032 31.6148C21.245 31.7215 21.4169 31.7778 21.5921 31.7778C21.6459 31.7778 21.7013 31.7721 21.7551 31.7607C21.9824 31.7142 22.1804 31.5724 22.2969 31.3704L26.7784 23.6296C27.0041 23.2401 26.8705 22.7415 26.4818 22.5166C26.0932 22.2893 25.5937 22.4237 25.3688 22.8132L21.3469 29.7595L18.8218 27.8667C18.4624 27.597 17.9523 27.6695 17.6818 28.0296C17.4113 28.389 17.4846 28.8998 17.8448 29.1695L21.1032 31.6148Z" fill="#343EA8"/>
</svg>
