<svg width="50" height="50" viewBox="0 0 50 50" fill="none" xmlns="http://www.w3.org/2000/svg">
<g clip-path="url(#clip0_425_1610)">
<path d="M49.1901 19.8704H46.8174C46.2651 17.5107 45.3368 15.2733 44.051 13.2035L45.7322 11.5222C45.8841 11.3704 45.9694 11.1644 45.9694 10.9496C45.9694 10.7348 45.8841 10.5287 45.7322 10.3769L39.6232 4.26803C39.3069 3.95173 38.7941 3.95173 38.4779 4.26803L36.7967 5.94924C34.7267 4.66328 32.4893 3.73488 30.1296 3.18261V0.809935C30.1296 0.362635 29.767 0 29.3197 0H20.6803C20.233 0 19.8704 0.362635 19.8704 0.809935V3.18261C17.5107 3.73488 15.2733 4.66318 13.2035 5.94903L11.5222 4.26782C11.2059 3.9514 10.6931 3.95151 10.3769 4.26782L4.26793 10.3768C4.11598 10.5286 4.03067 10.7347 4.03067 10.9495C4.03067 11.1643 4.11598 11.3703 4.26793 11.5221L5.94914 13.2033C4.66328 15.2733 3.73488 17.5107 3.18261 19.8704H0.809935C0.362635 19.8704 0 20.233 0 20.6803V29.3197C0 29.767 0.362635 30.1296 0.809935 30.1296H3.18261C3.73488 32.4893 4.66318 34.7267 5.94903 36.7965L4.26782 38.4778C3.95151 38.7941 3.95151 39.3069 4.26782 39.6231L10.3768 45.7321C10.6931 46.0484 11.2059 46.0484 11.5221 45.7321L13.2033 44.0509C15.2732 45.3367 17.5106 46.265 19.8703 46.8173V49.1901C19.8703 49.6374 20.2329 50 20.6802 50H29.3195C29.7668 50 30.1295 49.6374 30.1295 49.1901V46.8174C32.4892 46.2651 34.7266 45.3368 36.7964 44.051L38.4776 45.7322C38.794 46.0485 39.3068 46.0485 39.623 45.7322L45.732 39.6232C46.0483 39.3069 46.0483 38.7941 45.732 38.4779L44.0508 36.7967C45.3366 34.7268 46.2649 32.4894 46.8172 30.1297H49.1901C49.6374 30.1297 50 29.7671 50 29.3198V20.6805C50 20.233 49.6374 19.8704 49.1901 19.8704ZM48.3801 28.5097H46.1653C45.7801 28.5097 45.4482 28.781 45.3716 29.1585C44.8418 31.7684 43.8225 34.2253 42.3418 36.461C42.1292 36.7822 42.172 37.2085 42.4444 37.4809L44.014 39.0505L39.0505 44.014L37.4809 42.4444C37.2086 42.1721 36.7821 42.1292 36.461 42.3418C34.2253 43.8225 31.7684 44.8418 29.1585 45.3716C28.781 45.4482 28.5097 45.7801 28.5097 46.1653V48.3801H21.4903V46.1653C21.4903 45.7801 21.219 45.4482 20.8415 45.3716C18.2316 44.8418 15.7747 43.8225 13.539 42.3418C13.2179 42.1292 12.7915 42.172 12.5191 42.4444L10.9495 44.014L5.98596 39.0504L7.55561 37.4808C7.82797 37.2084 7.87084 36.782 7.65821 36.4609C6.17754 34.2252 5.15821 31.7682 4.6284 29.1584C4.55184 28.7809 4.21987 28.5096 3.83467 28.5096H1.61987V21.4902H3.83467C4.21987 21.4902 4.55184 21.2189 4.6284 20.8414C5.15821 18.2315 6.17754 15.7746 7.65821 13.5389C7.87084 13.2177 7.82797 12.7914 7.55561 12.519L5.98596 10.9495L10.9495 5.98596L12.5191 7.55561C12.7914 7.82786 13.2179 7.87084 13.539 7.65821C15.7747 6.17754 18.2316 5.15821 20.8415 4.6284C21.219 4.55184 21.4903 4.21987 21.4903 3.83467V1.61987H28.5097V3.83467C28.5097 4.21987 28.781 4.55184 29.1585 4.6284C31.7684 5.15821 34.2253 6.17754 36.461 7.65821C36.7822 7.87095 37.2086 7.82797 37.4809 7.55561L39.0505 5.98596L44.014 10.9495L42.4444 12.5191C42.172 12.7915 42.1292 13.2179 42.3418 13.539C43.8224 15.7747 44.8418 18.2316 45.3716 20.8415C45.4482 21.219 45.7801 21.4903 46.1653 21.4903H48.3801V28.5097Z" fill="#343EA8"/>
<path d="M25.0003 7.72144C15.4729 7.72144 7.72168 15.4726 7.72168 25.0001C7.72168 34.5275 15.4729 42.2787 25.0003 42.2787C34.5277 42.2787 42.2789 34.5275 42.2789 25.0001C42.2789 15.4726 34.5277 7.72144 25.0003 7.72144ZM39.6871 25.81H40.6383C40.4485 29.5183 38.9621 32.8897 36.6251 35.4794L35.9582 34.8125C35.6419 34.4962 35.129 34.4962 34.8128 34.8125C34.4965 35.1288 34.4965 35.6416 34.8128 35.9578L35.4798 36.6248C32.8899 38.9617 29.5187 40.4481 25.8103 40.638V39.6869C25.8103 39.2396 25.4477 38.8769 25.0004 38.8769C24.5531 38.8769 24.1905 39.2396 24.1905 39.6869V40.6381C20.4822 40.4482 17.1108 38.9618 14.521 36.6249L15.188 35.9579C15.5043 35.6416 15.5043 35.1288 15.188 34.8126C14.8717 34.4963 14.3588 34.4963 14.0426 34.8126L13.3757 35.4795C11.0387 32.8897 9.55235 29.5184 9.3625 25.8101H10.3135C10.7608 25.8101 11.1234 25.4475 11.1234 25.0002C11.1234 24.5529 10.7608 24.1902 10.3135 24.1902H9.36228C9.55213 20.4819 11.0385 17.1105 13.3755 14.5208L14.0424 15.1877C14.2005 15.3458 14.4079 15.425 14.6151 15.425C14.8223 15.425 15.0297 15.3459 15.1878 15.1877C15.5041 14.8714 15.5041 14.3586 15.1878 14.0424L14.5208 13.3754C17.1107 11.0385 20.4819 9.55211 24.1903 9.36226V10.3132C24.1903 10.7605 24.5529 11.1232 25.0002 11.1232C25.4475 11.1232 25.8101 10.7605 25.8101 10.3132V9.36204C29.5184 9.55189 32.8898 11.0383 35.4796 13.3752L34.8126 14.0422C34.4963 14.3585 34.4963 14.8713 34.8126 15.1875C34.9707 15.3456 35.1781 15.4248 35.3853 15.4248C35.5925 15.4248 35.7999 15.3457 35.958 15.1875L36.6249 14.5206C38.9619 17.1104 40.4482 20.4817 40.6381 24.19H39.6871C39.2398 24.19 38.8772 24.5526 38.8772 24.9999C38.8772 25.4472 39.2398 25.81 39.6871 25.81Z" fill="#343EA8"/>
<path d="M25 15.5508C19.7897 15.5508 15.5508 19.7897 15.5508 25C15.5508 30.2104 19.7897 34.4493 25 34.4493C30.2104 34.4493 34.4493 30.2104 34.4493 25C34.4493 19.7897 30.2104 15.5508 25 15.5508ZM25 32.8294C20.6829 32.8294 17.1707 29.3172 17.1707 25C17.1707 20.6829 20.6829 17.1707 25 17.1707C29.3172 17.1707 32.8294 20.6829 32.8294 25C32.8294 29.3172 29.3172 32.8294 25 32.8294Z" fill="#343EA8"/>
<path d="M25.0004 19.0065C21.6955 19.0065 19.0068 21.6951 19.0068 25C19.0068 28.3049 21.6955 30.9935 25.0004 30.9935C28.3052 30.9935 30.9939 28.3049 30.9939 25C30.9939 21.6951 28.3052 19.0065 25.0004 19.0065ZM25.0004 29.3736C22.5887 29.3736 20.6267 27.4117 20.6267 25C20.6267 22.5883 22.5887 20.6263 25.0004 20.6263C27.412 20.6263 29.374 22.5883 29.374 25C29.374 27.4117 27.412 29.3736 25.0004 29.3736Z" fill="#343EA8"/>
</g>
<defs>
<clipPath id="clip0_425_1610">
<rect width="50" height="50" fill="white"/>
</clipPath>
</defs>
</svg>
