<svg width="48" height="48" viewBox="0 0 48 48" fill="none" xmlns="http://www.w3.org/2000/svg">
<g clip-path="url(#clip0_425_1636)">
<path d="M31.0517 10.155C25.2892 4.39252 15.9128 4.39252 10.1502 10.155C7.3587 12.9464 5.82129 16.6579 5.82129 20.6058C5.82129 24.5536 7.3587 28.2652 10.1501 31.0566C13.0313 33.9378 16.8161 35.3785 20.6008 35.3785C24.3856 35.3785 28.1703 33.9379 31.0516 31.0566C36.8142 25.2939 36.8142 15.9176 31.0517 10.155ZM29.9776 29.9825C24.8074 35.1531 16.3944 35.1528 11.2242 29.9825C8.71948 27.478 7.34014 24.1478 7.34014 20.6058C7.34014 17.0637 8.71958 13.7336 11.2241 11.229C13.8093 8.64381 17.2051 7.35127 20.6009 7.35127C23.9967 7.35127 27.3925 8.6439 29.9777 11.2291C35.148 16.3994 35.148 24.8122 29.9776 29.9825Z" fill="#343EA8"/>
<path d="M36.8205 13.8325C36.6588 13.4455 36.2144 13.2626 35.827 13.4244C35.44 13.5861 35.2574 14.0308 35.4189 14.4179C36.2357 16.3736 36.6498 18.4556 36.6498 20.6057C36.6498 21.0253 36.9897 21.3652 37.4091 21.3652C37.8286 21.3652 38.1686 21.0253 38.1686 20.6057C38.1687 18.2535 37.7151 15.9747 36.8205 13.8325Z" fill="#343EA8"/>
<path d="M34.9369 10.4448C34.3673 9.64458 33.7233 8.88361 33.0228 8.1832C29.7046 4.8651 25.293 3.03772 20.6003 3.03772C20.1809 3.03772 19.8408 3.37766 19.8408 3.7971C19.8408 4.21653 20.1809 4.55657 20.6003 4.55657C24.8872 4.55657 28.9175 6.22598 31.9487 9.25729C32.5897 9.89817 33.1788 10.5941 33.6994 11.3258C33.8477 11.534 34.0814 11.6448 34.3188 11.6448C34.4711 11.6448 34.6249 11.5991 34.7586 11.504C35.1003 11.2607 35.18 10.7865 34.9369 10.4448Z" fill="#343EA8"/>
<path d="M47.7729 43.2668L42.0451 37.539C41.7483 37.2425 41.2676 37.2425 40.971 37.539L39.7896 38.7203L35.6977 34.6284C39.2552 30.8051 41.2067 25.8556 41.2067 20.6057C41.2067 15.1018 39.0633 9.92721 35.1714 6.03526C31.2795 2.14341 26.1049 0 20.6009 0C15.0969 0 9.92241 2.14341 6.03047 6.03526C-2.00364 14.0695 -2.00364 27.142 6.03047 35.1762C9.92232 39.068 15.0969 41.2114 20.6009 41.2114C25.8509 41.2114 30.8002 39.26 34.6235 35.7024L38.7154 39.7943L37.5341 40.9757C37.2376 41.2724 37.2376 41.7531 37.5341 42.0497L43.2619 47.7775C43.4103 47.9258 43.6047 47.9999 43.799 47.9999C43.9934 47.9999 44.1877 47.9258 44.3361 47.7775L47.7729 44.3407C48.0694 44.0443 48.0694 43.5635 47.7729 43.2668ZM34.0973 34.1021C30.4923 37.7073 25.6992 39.6926 20.6009 39.6926C15.5027 39.6926 10.7094 37.7073 7.10447 34.1021C-0.337516 26.6601 -0.337516 14.5512 7.10447 7.10936C10.7095 3.50419 15.5027 1.51885 20.6009 1.51885C25.6992 1.51885 30.4923 3.50419 34.0973 7.10936C37.7025 10.7144 39.6878 15.5076 39.6878 20.6057C39.6878 25.7039 37.7025 30.4971 34.0973 34.1021ZM43.7991 46.1667L39.1452 41.5128L40.3256 40.3324C40.3259 40.3321 40.3263 40.3318 40.3266 40.3314C40.3269 40.3311 40.3272 40.3307 40.3276 40.3304L41.508 39.15L46.1619 43.8039L43.7991 46.1667Z" fill="#343EA8"/>
<path d="M31.0346 24.7066H30.1739V12.9102C30.1739 12.4907 29.8339 12.1508 29.4145 12.1508H25.7692C25.3497 12.1508 25.0098 12.4907 25.0098 12.9102V24.7066H22.8834V16.5554C22.8834 16.1359 22.5434 15.796 22.1239 15.796H18.4787C18.0593 15.796 17.7193 16.136 17.7193 16.5554V24.7066H15.5929V15.3403C15.5929 14.9208 15.2529 14.5809 14.8334 14.5809H11.1883C10.7688 14.5809 10.4288 14.9208 10.4288 15.3403V24.7065H9.56806C9.14863 24.7065 8.80859 25.0465 8.80859 25.4659C8.80859 25.8853 9.14863 26.2254 9.56806 26.2254H11.1882H14.8334H18.4786H22.1238H25.769H29.4143H31.0344C31.454 26.2254 31.7939 25.8854 31.7939 25.4659C31.7939 25.0464 31.4541 24.7066 31.0346 24.7066ZM14.0742 24.7066H11.9478V16.0998H14.0742V24.7066ZM21.3646 24.7066H19.2383V17.3149H21.3646V24.7066ZM28.6551 24.7066H26.5288V13.6696H28.6551V24.7066Z" fill="#343EA8"/>
</g>
<defs>
<clipPath id="clip0_425_1636">
<rect width="48" height="48" fill="white"/>
</clipPath>
</defs>
</svg>
