<svg width="45" height="45" viewBox="0 0 45 45" fill="none" xmlns="http://www.w3.org/2000/svg">
<g clip-path="url(#clip0_425_1576)">
<path d="M33.675 27C31.275 27 29.025 28.275 27.825 30.375C27.675 30.75 27.75 31.2 28.125 31.425C28.5 31.5751 28.95 31.5 29.175 31.1251C30.15 29.4751 31.875 28.5 33.75 28.5C36.675 28.5 38.9999 30.825 38.9999 33.75C38.9999 36.675 36.675 39 33.75 39C31.6836 39 29.8404 37.7762 28.9848 36H30.75V34.5H26.25V39H27.75V36.8502C28.8779 39.0357 31.1828 40.5 33.75 40.5C37.5 40.5 40.425 37.5 40.425 33.75C40.425 30 37.4249 27 33.675 27Z" fill="#343EA8"/>
<path d="M42 26.0934V21V5.55003V0.749971C42 0.299971 41.7001 0 41.2501 0H36.45H15.75H9.74997H0.749971C0.299971 0 0 0.299971 0 0.749971V9.74997V15.75V36.45V41.25C0 41.7 0.299971 41.9999 0.749971 41.9999H5.54994H26.0933C28.0998 43.8623 30.7889 45 33.75 45C39.975 45 45 39.975 45 33.75C45 30.7889 43.8623 28.0998 42 26.0934ZM22.509 34.1808C22.5097 34.1986 22.5102 34.2163 22.511 34.2342C22.6099 36.5823 23.4238 38.7416 24.7422 40.5001H7.35003L28.575 19.275L31.8959 22.6521C26.5569 23.5333 22.5 28.1568 22.5 33.75C22.5 33.8943 22.5036 34.0378 22.509 34.1808ZM40.5 19.2263L34.5 13.3501L40.5 7.35003V19.2263ZM16.5 1.50003H34.65L16.5 19.65V1.50003ZM9 1.50003V9H1.50003V1.50003H9ZM1.50003 16.5H9V27.1499L1.50003 34.65V16.5ZM1.50003 40.5V36.825L10.275 27.9751C10.4251 27.825 10.5 27.6751 10.5 27.4501V15.75C10.5 15.3 10.2001 15 9.75006 15H1.50003V10.5H9.75006C10.2001 10.5 10.5 10.2001 10.5 9.75006V1.50003H15V21.4501C15 21.75 15.1501 22.0501 15.45 22.1251C15.75 22.2751 16.0501 22.2 16.2751 21.975L36.825 1.50003H40.5V5.175L32.85 12.825C32.7 12.975 32.625 13.125 32.625 13.35C32.625 13.575 32.7 13.725 32.85 13.8749L40.5 21.2999V24.7421C39.1033 23.695 37.4537 22.9663 35.6576 22.6609C35.6133 22.6532 35.5689 22.6462 35.5245 22.639C35.4711 22.6305 35.4175 22.6227 35.3638 22.615C34.946 22.5538 34.5241 22.517 34.0992 22.5058C34.0436 22.5041 33.988 22.5031 33.9323 22.5022C33.8965 22.5018 33.8609 22.4999 33.8251 22.4999L29.1001 17.6999C28.95 17.5499 28.8001 17.4749 28.5751 17.4749C28.3501 17.4749 28.2001 17.5499 28.0501 17.6999L5.24997 40.5H1.50003ZM33.75 43.5C31.069 43.5 28.6472 42.4274 26.8877 40.6868C25.0948 38.8754 24.0662 36.5121 24.0031 33.9965C24.0011 33.9146 24 33.8324 24 33.75C24 28.35 28.35 24 33.75 24C33.8324 24 33.9146 24.0011 33.9965 24.0031C36.5121 24.0663 38.8754 25.0948 40.6868 26.8877C42.4274 28.6472 43.5 31.069 43.5 33.75C43.5 39.15 39.15 43.5 33.75 43.5Z" fill="#343EA8"/>
</g>
<defs>
<clipPath id="clip0_425_1576">
<rect width="45" height="45" fill="white"/>
</clipPath>
</defs>
</svg>
