<svg width="44" height="44" viewBox="0 0 44 44" fill="none" xmlns="http://www.w3.org/2000/svg">
<g clip-path="url(#clip0_425_1654)">
<path d="M22 0C9.86954 0 0 9.86869 0 22C0 34.1313 9.86954 44 22 44C34.1305 44 44 34.1313 44 22C44 9.86869 34.1305 0 22 0ZM22 42.3077C10.8028 42.3077 1.69231 33.1972 1.69231 22C1.69231 10.8028 10.8028 1.69231 22 1.69231C33.1972 1.69231 42.3077 10.8028 42.3077 22C42.3077 33.1972 33.1972 42.3077 22 42.3077Z" fill="#343EA8"/>
<path d="M32.5769 21.1538H22.8461V11.8462C22.8461 11.3782 22.4671 11 22 11C21.5329 11 21.1538 11.3782 21.1538 11.8462V21.1538H11.4231C10.956 21.1538 10.5769 21.5321 10.5769 22C10.5769 22.4679 10.956 22.8462 11.4231 22.8462H21.1538V33C21.1538 33.4679 21.5329 33.8462 22 33.8462C22.4671 33.8462 22.8461 33.4679 22.8461 33V22.8462H32.5769C33.044 22.8462 33.4231 22.4679 33.4231 22C33.4231 21.5321 33.044 21.1538 32.5769 21.1538Z" fill="#343EA8"/>
</g>
<defs>
<clipPath id="clip0_425_1654">
<rect width="44" height="44" fill="white"/>
</clipPath>
</defs>
</svg>
