<svg width="42" height="42" viewBox="0 0 42 42" fill="none" xmlns="http://www.w3.org/2000/svg">
<g clip-path="url(#clip0_425_1584)">
<path d="M10.7515 35.287L5.50174 40.5369C5.16609 40.8726 5.16609 41.4148 5.50174 41.7505C5.67387 41.914 5.88904 42 6.11281 42C6.32797 42 6.55174 41.914 6.71527 41.7505L11.965 36.5005C12.3007 36.1649 12.3007 35.6227 11.965 35.287C11.6294 34.9514 11.0871 34.9514 10.7515 35.287Z" fill="#343EA8"/>
<path d="M6.71492 30.037C6.37927 29.7014 5.83714 29.7014 5.50148 30.037L0.251742 35.2869C-0.0839139 35.6226 -0.0839139 36.1648 0.251742 36.5005C0.423873 36.664 0.639037 36.7501 0.862807 36.7501C1.08658 36.7501 1.30174 36.664 1.46527 36.5005L6.71501 31.2505C7.05058 30.9149 7.05058 30.3727 6.71492 30.037Z" fill="#343EA8"/>
<path d="M41.7501 0.250127C41.5866 0.0866029 41.3628 -0.00806611 41.1305 0.000540443C41.0014 0.000540443 37.8687 0.0435721 33.7464 1.05915C29.9166 1.99726 24.4948 3.98538 20.3983 8.12504C18.3414 10.182 16.8181 12.5573 15.6822 14.8897H5.26022C4.89014 14.8897 4.56309 15.1307 4.4426 15.475L1.81777 23.3499C1.73171 23.6081 1.77474 23.9007 1.93826 24.1245C2.10179 24.3482 2.35998 24.4859 2.63539 24.4859H12.7132C12.2914 27.0421 12.2656 28.7719 12.2656 28.8666C12.2656 29.099 12.3517 29.3227 12.5152 29.4863C12.6787 29.6498 12.8939 29.7359 13.1263 29.7359H13.1349C13.2295 29.7359 14.9594 29.71 17.5154 29.2883V39.3664C17.5154 39.6418 17.6445 39.9 17.8768 40.0635C18.0231 40.1668 18.2039 40.2271 18.376 40.2271C18.4707 40.2271 18.5567 40.2099 18.6514 40.184L26.526 37.559C26.8789 37.4385 27.1112 37.1115 27.1112 36.7414V26.319C29.4435 25.1916 31.8188 23.6682 33.8756 21.6113C38.0152 17.5061 40.0032 12.084 40.9413 8.26275C41.9567 4.14029 41.9997 1.0075 41.9997 0.878405C41.9997 0.637421 41.9137 0.413652 41.7501 0.250127ZM13.0487 22.7646H3.83162L5.87989 16.611H14.9163C14.1934 18.3668 13.6857 20.045 13.3328 21.4995C13.2295 21.9298 13.1348 22.3515 13.0487 22.7646ZM25.3899 36.1218L19.2366 38.1702V28.9613C19.6497 28.8752 20.0628 28.7805 20.5017 28.6772C21.9561 28.3244 23.6343 27.808 25.3899 27.0936V36.1218ZM39.263 7.89267C38.3766 11.4901 36.5091 16.5766 32.6621 20.3892C28.8152 24.2363 23.7289 26.1039 20.1402 26.9904C17.4895 27.6445 15.2347 27.8768 14.0471 27.9629C14.2536 25.0109 15.4068 15.5524 21.6205 9.33857C25.433 5.49152 30.5193 3.6239 34.1166 2.73742C36.7759 2.08333 39.0393 1.84234 40.2355 1.76488C40.1494 2.9612 39.917 5.22463 39.263 7.89267Z" fill="#343EA8"/>
<path d="M27.1631 10.5005C27.1631 12.8931 29.1081 14.8381 31.5005 14.8381C33.8845 14.8381 35.838 12.893 35.838 10.5005C35.838 8.10792 33.893 6.16284 31.5005 6.16284C29.1081 6.16284 27.1631 8.10784 27.1631 10.5005ZM34.1168 10.5005C34.1168 11.9205 32.9206 13.1169 31.5006 13.1169C30.0806 13.1169 28.8844 11.9205 28.8844 10.5005C28.8844 9.08038 30.0806 7.88407 31.5006 7.88407C32.9119 7.88407 34.1168 9.08898 34.1168 10.5005Z" fill="#343EA8"/>
</g>
<defs>
<clipPath id="clip0_425_1584">
<rect width="42" height="42" fill="white"/>
</clipPath>
</defs>
</svg>
