<svg width="42" height="42" viewBox="0 0 42 42" fill="none" xmlns="http://www.w3.org/2000/svg">
<g clip-path="url(#clip0_425_1594)">
<path d="M6.48596 0C2.90961 0 0 2.90961 0 6.48596C0 10.0623 2.90961 12.9719 6.48596 12.9719C10.0623 12.9719 12.9719 10.0623 12.9719 6.48596C12.9719 2.90961 10.0623 0 6.48596 0ZM6.48596 11.6112C3.6599 11.6112 1.36069 9.31203 1.36069 6.48596C1.36069 3.6599 3.6599 1.36069 6.48596 1.36069C9.31203 1.36069 11.6112 3.6599 11.6112 6.48596C11.6112 9.31203 9.31203 11.6112 6.48596 11.6112Z" fill="#343EA8"/>
<path d="M6.48596 14.514C2.90961 14.514 0 17.4236 0 21C0 24.5763 2.90961 27.486 6.48596 27.486C10.0623 27.486 12.9719 24.5763 12.9719 21C12.9719 17.4236 10.0623 14.514 6.48596 14.514ZM6.48596 26.1253C3.6599 26.1253 1.36069 23.8261 1.36069 21C1.36069 18.1739 3.6599 15.8747 6.48596 15.8747C9.31203 15.8747 11.6112 18.1739 11.6112 21C11.6112 23.8261 9.31203 26.1253 6.48596 26.1253Z" fill="#343EA8"/>
<path d="M6.48596 29.0281C2.90961 29.0281 0 31.9377 0 35.514C0 39.0904 2.90961 42 6.48596 42C10.0623 42 12.9719 39.0904 12.9719 35.514C12.9719 31.9377 10.0623 29.0281 6.48596 29.0281ZM6.48596 40.6393C3.6599 40.6393 1.36069 38.3401 1.36069 35.514C1.36069 32.688 3.6599 30.3888 6.48596 30.3888C9.31203 30.3888 11.6112 32.688 11.6112 35.514C11.6112 38.3401 9.31203 40.6393 6.48596 40.6393Z" fill="#343EA8"/>
<path d="M8.1823 4.55352L5.76063 6.97528L4.79037 6.00493C4.52458 5.73923 4.09388 5.73923 3.82818 6.00493C3.56248 6.27062 3.56248 6.70142 3.82818 6.96702L5.27958 8.41843C5.41239 8.55132 5.58656 8.61772 5.76063 8.61772C5.93471 8.61772 6.10888 8.55132 6.24177 8.41843L9.14458 5.51562C9.41028 5.24992 9.41028 4.81913 9.14458 4.55352C8.87879 4.28782 8.44809 4.28782 8.1823 4.55352Z" fill="#343EA8"/>
<path d="M8.1823 19.0676L5.76063 21.4893L4.79037 20.519C4.52458 20.2533 4.09388 20.2533 3.82818 20.519C3.56248 20.7847 3.56248 21.2155 3.82818 21.4811L5.27958 22.9325C5.41239 23.0654 5.58656 23.1318 5.76063 23.1318C5.93471 23.1318 6.10888 23.0654 6.24177 22.9325L9.14458 20.0297C9.41028 19.764 9.41028 19.3332 9.14458 19.0676C8.87879 18.8019 8.44809 18.8019 8.1823 19.0676Z" fill="#343EA8"/>
<path d="M15.9196 4.98923H28.9822C29.3581 4.98923 29.6626 4.68462 29.6626 4.30889C29.6626 3.93315 29.3581 3.62854 28.9822 3.62854H15.9196C15.5438 3.62854 15.2393 3.93315 15.2393 4.30889C15.2393 4.68462 15.5438 4.98923 15.9196 4.98923Z" fill="#343EA8"/>
<path d="M15.9196 9.34336H41.3192C41.695 9.34336 41.9995 9.03874 41.9995 8.66301C41.9995 8.28728 41.695 7.98267 41.3192 7.98267H15.9196C15.5438 7.98267 15.2393 8.28728 15.2393 8.66301C15.2393 9.03874 15.5438 9.34336 15.9196 9.34336Z" fill="#343EA8"/>
<path d="M15.9196 19.5033H28.9822C29.3581 19.5033 29.6626 19.1987 29.6626 18.8229C29.6626 18.4472 29.3581 18.1426 28.9822 18.1426H15.9196C15.5438 18.1426 15.2393 18.4472 15.2393 18.8229C15.2393 19.1987 15.5438 19.5033 15.9196 19.5033Z" fill="#343EA8"/>
<path d="M41.3192 22.4967H15.9196C15.5438 22.4967 15.2393 22.8013 15.2393 23.177C15.2393 23.5528 15.5438 23.8574 15.9196 23.8574H41.3192C41.695 23.8574 41.9995 23.5528 41.9995 23.177C41.9995 22.8013 41.695 22.4967 41.3192 22.4967Z" fill="#343EA8"/>
<path d="M15.9196 34.0173H28.9822C29.3581 34.0173 29.6626 33.7127 29.6626 33.337C29.6626 32.9612 29.3581 32.6566 28.9822 32.6566H15.9196C15.5438 32.6566 15.2393 32.9612 15.2393 33.337C15.2393 33.7127 15.5438 34.0173 15.9196 34.0173Z" fill="#343EA8"/>
<path d="M41.3192 37.0107H15.9196C15.5438 37.0107 15.2393 37.3154 15.2393 37.6911C15.2393 38.0668 15.5438 38.3714 15.9196 38.3714H41.3192C41.695 38.3714 41.9995 38.0668 41.9995 37.6911C41.9995 37.3154 41.695 37.0107 41.3192 37.0107Z" fill="#343EA8"/>
</g>
<defs>
<clipPath id="clip0_425_1594">
<rect width="42" height="42" fill="white"/>
</clipPath>
</defs>
</svg>
