<svg width="32" height="32" viewBox="0 0 32 32" fill="none" xmlns="http://www.w3.org/2000/svg">
<circle r="15.5" transform="matrix(-1 0 0 1 16 16)" stroke="white"/>
<path d="M13.9698 11.2269C13.8292 11.3676 13.7502 11.5583 13.7502 11.7572C13.7502 11.956 13.8292 12.1468 13.9698 12.2874L17.6823 15.9999L13.9698 19.7124C13.8332 19.8539 13.7576 20.0433 13.7593 20.24C13.761 20.4366 13.8399 20.6247 13.979 20.7638C14.118 20.9028 14.3061 20.9817 14.5028 20.9834C14.6994 20.9851 14.8889 20.9095 15.0303 20.7729L19.2731 16.5302C19.4137 16.3895 19.4927 16.1988 19.4927 15.9999C19.4927 15.801 19.4137 15.6103 19.2731 15.4697L15.0303 11.2269C14.8897 11.0863 14.699 11.0073 14.5001 11.0073C14.3012 11.0073 14.1105 11.0863 13.9698 11.2269V11.2269Z" fill="white"/>
</svg>
