<svg width="13" height="8" viewBox="0 0 13 8" fill="none" xmlns="http://www.w3.org/2000/svg">
<path d="M11.8106 0.658802L6.50019 5.8353L1.18981 0.658802C1.09493 0.566129 0.967567 0.514246 0.834938 0.514246C0.702309 0.514246 0.574942 0.566129 0.480063 0.658802C0.434123 0.703814 0.397626 0.75754 0.37271 0.816834C0.347795 0.876129 0.334961 0.939798 0.334961 1.00411C0.334961 1.06843 0.347795 1.1321 0.37271 1.19139C0.397626 1.25069 0.434123 1.30442 0.480063 1.34943L6.12938 6.85743C6.22858 6.95413 6.36165 7.00825 6.50019 7.00825C6.63873 7.00825 6.77179 6.95413 6.871 6.85743L12.5203 1.35049C12.5666 1.30544 12.6033 1.25159 12.6285 1.1921C12.6536 1.1326 12.6665 1.06869 12.6665 1.00411C12.6665 0.939543 12.6536 0.875624 12.6285 0.816134C12.6033 0.756643 12.5666 0.702785 12.5203 0.657739C12.4254 0.565066 12.2981 0.513184 12.1654 0.513184C12.0328 0.513184 11.9054 0.565066 11.8106 0.657739V0.658802Z" fill="#4D4D4D"/>
</svg>
