<svg width="61" height="61" viewBox="0 0 61 61" fill="none" xmlns="http://www.w3.org/2000/svg">
<g clip-path="url(#clip0_1_783)">
<path d="M51.5939 30.1599L51.594 30.16C49.7866 25.518 46.4335 21.543 42.1521 18.9673C38.9245 17.0246 35.2556 15.9269 31.4846 15.7635V12.3049C31.757 12.5352 32.0555 12.7347 32.3841 12.898C33.1098 13.2589 33.9551 13.439 34.9171 13.439C36.9156 13.439 39.4172 12.6615 42.3931 11.1117C45.5298 9.47817 48.0428 7.58525 48.1481 7.50531L49.1866 6.71945L48.1481 5.93359C48.0426 5.85389 45.5297 3.96073 42.3931 2.32719C37.985 0.0316898 34.6179 -0.569497 32.3843 0.5409C31.592 0.9349 30.9648 1.52763 30.4993 2.30884C30.0338 1.52751 29.4066 0.934781 28.6143 0.540781C26.3812 -0.569497 23.0139 0.0315708 18.6062 2.32719C15.4696 3.96073 12.9572 5.85365 12.8516 5.93347L11.8134 6.71933L12.8516 7.50519C12.9572 7.58489 15.4696 9.47805 18.6062 11.1115C21.5821 12.6613 24.0834 13.4388 26.0817 13.4388C27.0433 13.4388 27.8888 13.2586 28.6142 12.8979C28.9426 12.7345 29.2411 12.5352 29.5137 12.3048V15.763C27.766 15.8382 26.0387 16.1103 24.3665 16.5802L23.6476 16.7834V16.7967C20.7061 17.7323 17.9393 19.2905 15.6056 21.3312C10.6892 25.6322 7.86938 31.8427 7.86938 38.3703C7.86938 45.6237 11.3858 52.4896 17.2759 56.7365C21.1443 59.526 25.7168 61.0002 30.4992 61.0002C31.8108 61.0002 33.1263 60.8871 34.4097 60.6637C39.5933 59.7602 44.3338 57.0416 47.758 53.0091C51.2223 48.929 53.1303 43.7302 53.1303 38.3704C53.1303 35.5389 52.6134 32.7763 51.5939 30.1599ZM31.5262 5.73415C31.6772 3.95811 32.2579 2.80554 33.2616 2.30622C33.7441 2.06615 34.3142 1.95987 34.9448 1.95987C38.219 1.95987 43.1228 4.82606 45.8607 6.71528C44.8584 7.40272 43.2647 8.43568 41.483 9.36367C37.7727 11.2959 34.8532 11.9246 33.2622 11.1332C32.2582 10.634 31.6773 9.48126 31.5263 7.70522H40.6403V5.73415H31.5262ZM29.4724 7.70511C29.3214 9.48091 28.7406 10.6337 27.7369 11.133C24.7505 12.6194 18.4046 8.97742 15.1396 6.72422C16.1474 6.03308 17.7517 4.99333 19.539 4.06415C23.2383 2.14085 26.15 1.51667 27.7369 2.30634C28.7404 2.80566 29.3213 3.95835 29.4724 5.73415H20.3598V7.70522H29.4724V7.70511ZM30.4992 17.7105C34.0656 17.7105 37.5598 18.6298 40.6439 20.3714C40.4517 26.5739 39.17 33.1139 36.671 34.1846C35.4894 34.6911 34.5651 34.7922 34.0676 34.4701C33.6468 34.1974 33.5135 33.6166 33.4718 33.3148C34.0172 32.1331 35.6449 27.7136 30.9882 25.0521C27.9424 23.3115 26.4627 19.9658 25.8733 18.2318C27.3829 17.8867 28.9344 17.7105 30.4992 17.7105ZM17.9836 54.8064C12.8747 50.909 9.84058 44.8071 9.84058 38.3705C9.84058 32.6439 12.2191 27.1852 16.3882 23.2831C17.2839 23.8029 18.8116 24.7319 20.1928 25.7772C22.5769 27.5813 23.0613 28.6407 22.9844 28.9486C22.8745 29.3881 22.746 29.8456 22.6099 30.3298C21.9156 32.8002 21.1286 35.6 22.4647 37.6042C22.9352 38.3104 23.6314 38.8444 24.2458 39.3153C24.8686 39.7928 25.5128 40.2867 25.5397 40.697C25.5531 40.9016 25.4431 41.3773 24.5554 42.2651C23.0523 43.7682 22.3167 46.1346 21.6052 48.4231C20.7478 51.1805 19.934 53.7947 17.9836 54.8064ZM30.4991 59.0293C26.664 59.0293 22.9775 57.9906 19.7447 56.0126C21.8007 54.4302 22.6879 51.5793 23.4871 49.0082C24.1572 46.8534 24.79 44.8179 25.949 43.6589C27.0759 42.5318 27.5708 41.5496 27.5064 40.5679C27.4208 39.2662 26.3711 38.4614 25.445 37.7512C24.9283 37.3551 24.3939 36.9454 24.1048 36.5111C23.2714 35.2611 23.928 32.9246 24.5074 30.8632C24.6413 30.3868 24.7796 29.8941 24.8966 29.4265C25.2637 27.9565 24.1469 26.2975 21.3819 24.2055C20.2017 23.3124 18.9263 22.5028 17.9832 21.9363C19.7917 20.56 21.8292 19.4808 23.9744 18.7651C24.6334 20.7282 26.3539 24.6742 30.0099 26.7634C31.5652 27.6522 32.2893 28.8371 32.224 30.3856C32.1718 31.6219 31.6154 32.6279 31.6117 32.6345L31.482 32.8617V33.1233C31.482 33.3284 31.5239 35.1537 32.9759 36.1113C33.4975 36.4551 34.1105 36.627 34.8107 36.627C35.5851 36.627 36.466 36.4167 37.4472 35.9964C39.4994 35.117 40.9757 32.3874 41.8344 27.8835C42.2739 25.5784 42.4726 23.2499 42.5621 21.5976C45.4757 23.6995 47.8156 26.5462 49.3051 29.808C48.3204 30.0847 46.9327 30.618 45.5177 31.6319C42.6859 33.6612 40.839 36.7459 40.0282 40.7998C38.876 46.5582 37.7258 46.7627 36.134 47.046C35.0878 47.2323 33.786 47.4638 32.4263 48.8235C29.6663 51.5837 31.4161 56.3339 32.7006 58.9126C31.9706 58.99 31.2343 59.0293 30.4991 59.0293ZM46.2553 51.7334C43.2794 55.2382 39.2155 57.6544 34.7515 58.5901C33.1795 55.674 32.0906 51.9469 33.8202 50.2175C34.7415 49.2961 35.5468 49.1528 36.479 48.987C38.935 48.5501 40.6435 47.771 41.961 41.1868C43.3842 34.0701 48.0135 32.1497 50.0385 31.6458C50.7816 33.803 51.1589 36.061 51.1589 38.3707C51.1593 43.2635 49.4177 48.0092 46.2553 51.7334Z" fill="#343EA8"/>
</g>
<defs>
<clipPath id="clip0_1_783">
<rect width="61" height="61" fill="white"/>
</clipPath>
</defs>
</svg>
