<svg width="58" height="58" viewBox="0 0 58 58" fill="none" xmlns="http://www.w3.org/2000/svg">
<path d="M56.7539 27.0629L50.3762 21.127V1.61992H42.9336V14.2055L29 1.24609L1.24609 27.0629H7.62383V56.7539H22.509V42.2199C22.509 39.3426 25.4656 36.9523 29 36.9523C32.5344 36.9523 35.491 39.3313 35.491 42.2199V56.6293H50.2516V27.0629H56.7539V27.0629ZM45.0633 3.87422H48.1332V19.0312L45.0633 16.1766V3.87422ZM7.03477 24.7973L29 4.24805L51.0898 24.7973H7.03477ZM48.1332 54.375H37.6207V42.2199C37.6207 37.9605 33.7238 34.5734 29 34.5734C24.2762 34.5734 20.3793 38.0852 20.3793 42.2199V54.375H9.8668V27.0629H48.1332V54.375Z" fill="#343EA8"/>
<path d="M29 12.2684C26.2812 12.2684 24.1628 14.2734 24.1628 16.9016C24.1628 19.4051 26.2925 21.5348 29 21.5348C31.5941 21.5348 33.8371 19.5297 33.8371 16.9016C33.8371 14.398 31.5941 12.2684 29 12.2684V12.2684ZM29 19.2918C27.5839 19.2918 26.4058 18.159 26.4058 16.9129C26.4058 15.6668 27.5839 14.534 29 14.534C30.416 14.534 31.5941 15.6668 31.5941 16.9129C31.5941 18.159 30.416 19.2918 29 19.2918V19.2918Z" fill="#343EA8"/>
</svg>
