<svg width="54" height="54" viewBox="0 0 54 54" fill="none" xmlns="http://www.w3.org/2000/svg">
<path d="M25.6233 25.7858C25.6233 25.3006 25.2299 24.9072 24.7447 24.9072C24.2596 24.9072 23.8662 25.3006 23.8662 25.7858C23.8662 28.1512 25.5745 30.1239 27.8219 30.5385V31.5742C27.8219 32.0594 28.2153 32.4527 28.7004 32.4527C29.1856 32.4527 29.579 32.0594 29.579 31.5742V30.5385C31.8264 30.1239 33.5347 28.1512 33.5347 25.7858C33.5347 23.4203 31.8265 21.4476 29.579 21.0331V14.9258C30.8488 15.3048 31.7776 16.483 31.7776 17.8745C31.7776 18.3596 32.171 18.753 32.6561 18.753C33.1413 18.753 33.5347 18.3596 33.5347 17.8745C33.5347 15.509 31.8265 13.5362 29.579 13.1218V12.086C29.579 11.6009 29.1856 11.2075 28.7004 11.2075C28.2153 11.2075 27.8219 11.6009 27.8219 12.086V13.1218C25.5745 13.5363 23.8662 15.509 23.8662 17.8745C23.8662 20.2399 25.5745 22.2127 27.8219 22.6272V28.7344C26.5519 28.3554 25.6233 27.1772 25.6233 25.7858ZM29.579 22.8372C30.8488 23.2163 31.7776 24.3943 31.7776 25.7859C31.7776 27.1773 30.849 28.3555 29.579 28.7346V22.8372V22.8372ZM25.6233 17.8745C25.6233 16.483 26.5519 15.305 27.8219 14.9258V20.8232C26.5519 20.4441 25.6233 19.2659 25.6233 17.8745Z" fill="#343EA8"/>
<path d="M39.5142 47.0431C39.7582 46.792 39.8416 46.4121 39.704 46.0861C39.6589 45.9792 39.5951 45.8836 39.5142 45.8003C38.9687 45.2704 38.0116 45.6463 38.0137 46.4223C38.0158 47.1952 38.9656 47.576 39.5142 47.0431Z" fill="#343EA8"/>
<path d="M43.5163 0H13.8846C11.525 0 9.60522 1.91975 9.60522 4.27935V46.4202C9.60522 46.4209 9.60522 46.4217 9.60522 46.4224C9.60522 47.5643 10.05 48.6388 10.8588 49.449C11.668 50.2567 12.7425 50.7014 13.8843 50.7014H15.5206V53.1215C15.5206 53.4543 15.7086 53.7585 16.0063 53.9072C16.304 54.0561 16.6602 54.0239 16.9263 53.8243L19.2104 52.1112L21.4946 53.8243C21.6496 53.9406 21.8351 54 22.0218 54C22.1557 54 22.2903 53.9694 22.4146 53.9072C22.7122 53.7583 22.9002 53.4543 22.9002 53.1215V50.7014H43.5163C44.0015 50.7014 44.3948 50.3081 44.3948 49.8229V0.878525C44.3948 0.393345 44.0015 0 43.5163 0ZM11.3623 4.27935C11.3623 3.19783 12.0479 2.27585 13.0061 1.91811V42.2334C12.4016 42.36 11.8441 42.6149 11.3623 42.9677V4.27935ZM21.1431 51.3644L19.7374 50.3102C19.425 50.0759 18.9956 50.0759 18.6832 50.3102L17.2776 51.3644V47.3004H21.1431V51.3644ZM42.6378 45.5439H41.669C41.1839 45.5439 40.7905 45.9372 40.7905 46.4224C40.7905 46.9076 41.1839 47.301 41.669 47.301H42.6378V48.9444H22.9001V47.3004H36.0231C36.5082 47.3004 36.9016 46.907 36.9016 46.4218C36.9016 45.9367 36.5082 45.5433 36.0231 45.5433H13.8842C13.399 45.5433 13.0057 45.9367 13.0057 46.4218C13.0057 46.907 13.399 47.3004 13.8842 47.3004H15.5205V48.9444H13.8842C13.211 48.9444 12.5774 48.682 12.1012 48.2067C11.6247 47.7292 11.3623 47.0956 11.3623 46.4224C11.3623 45.0312 12.4936 43.8993 13.8842 43.8993H42.6378V45.5439ZM42.6378 42.1423H14.7631V1.75705H42.6378V42.1423Z" fill="#343EA8"/>
</svg>
