<svg width="53" height="53" viewBox="0 0 53 53" fill="none" xmlns="http://www.w3.org/2000/svg">
<g clip-path="url(#clip0_1_745)">
<path d="M26.5 0C11.8647 0 0 11.8647 0 26.5C0 41.1353 11.8647 53 26.5 53C41.1353 53 53 41.1353 53 26.5C53 11.8647 41.1353 0 26.5 0ZM26.5 51.2333C12.8404 51.2333 1.7667 40.1596 1.7667 26.5C1.7667 12.8404 12.8404 1.7667 26.5 1.7667C40.1596 1.7667 51.2333 12.8404 51.2333 26.5C51.2333 40.1596 40.1596 51.2333 26.5 51.2333Z" fill="#343EA8"/>
<path d="M26.5 12.3667C18.6946 12.3667 12.3667 18.6946 12.3667 26.5C12.3667 34.3054 18.6946 40.6333 26.5 40.6333C34.3054 40.6333 40.6333 34.3054 40.6333 26.5C40.6333 18.6946 34.3054 12.3667 26.5 12.3667ZM26.5 38.8667C19.6703 38.8667 14.1333 33.3297 14.1333 26.5C14.1333 19.6703 19.6702 14.1333 26.5 14.1333C33.3297 14.1333 38.8667 19.6703 38.8667 26.5C38.8667 33.3296 33.3296 38.8667 26.5 38.8667Z" fill="#343EA8"/>
<path d="M44.535 22.141C44.6492 22.6153 45.1263 22.9072 45.6006 22.7929C46.0749 22.6787 46.3668 22.2016 46.2526 21.7273C45.9667 20.5401 45.5744 19.3849 45.0817 18.2734C44.884 17.8275 44.3622 17.6261 43.9161 17.8239C43.4702 18.0217 43.2689 18.5435 43.4666 18.9895C43.9163 20.0036 44.2742 21.0577 44.535 22.141Z" fill="#343EA8"/>
<path d="M31.1529 8.53818C32.2316 8.81674 33.2797 9.19188 34.2866 9.65832C34.7292 9.86339 35.2543 9.67075 35.4593 9.22801C35.6644 8.78538 35.4717 8.26024 35.029 8.05528C33.9255 7.54422 32.7768 7.13306 31.5946 6.82769C31.1223 6.70564 30.6404 6.98969 30.5185 7.46203C30.3965 7.93437 30.6806 8.41624 31.1529 8.53818Z" fill="#343EA8"/>
<path d="M8.55148 31.2039C8.42809 30.7318 7.9455 30.4492 7.47347 30.5725C7.00144 30.6959 6.71884 31.1785 6.84213 31.6505C7.15081 32.8317 7.56529 33.9793 8.07955 35.0813C8.28586 35.5235 8.81141 35.7145 9.25352 35.5083C9.69564 35.302 9.88673 34.7764 9.68053 34.3344C9.21129 33.3286 8.83315 32.2816 8.55148 31.2039Z" fill="#343EA8"/>
<path d="M7.95331 26.1488C7.97412 25.0281 8.0944 23.9218 8.31117 22.8387C8.40692 22.3603 8.09678 21.8949 7.61834 21.7992C7.13999 21.7034 6.67458 22.0135 6.57883 22.492C6.34137 23.6785 6.20969 24.8898 6.18692 26.1161C6.17792 26.6038 6.56589 27.0066 7.05376 27.0156C7.54153 27.0246 7.94431 26.6365 7.95331 26.1488Z" fill="#343EA8"/>
<path d="M11.5428 14.0609C11.1542 13.766 10.6001 13.8421 10.3052 14.2307C9.56907 15.2009 8.92117 16.2352 8.37016 17.3215C8.14946 17.7566 8.32326 18.2882 8.75834 18.5089C9.19342 18.7296 9.72507 18.5558 9.94577 18.1207C10.4489 17.129 11.0404 16.1846 11.7126 15.2986C12.0074 14.9099 11.9314 14.3558 11.5428 14.0609Z" fill="#343EA8"/>
<path d="M22.8272 8.31345C23.9102 8.09596 25.0165 7.97495 26.1371 7.95352C26.6248 7.94421 27.0126 7.54122 27.0033 7.05346C26.994 6.56569 26.591 6.17792 26.1032 6.18724C24.8771 6.21074 23.6657 6.34324 22.4793 6.58142C22.001 6.67749 21.6912 7.1431 21.7872 7.62134C21.8832 8.09958 22.3488 8.40951 22.8272 8.31345Z" fill="#343EA8"/>
<path d="M15.2358 11.7604C16.1188 11.0846 17.0606 10.489 18.0501 9.9818C18.4842 9.75924 18.6557 9.22686 18.4332 8.79272C18.2106 8.35857 17.6782 8.18705 17.2442 8.40961C16.1604 8.96518 15.129 9.61743 14.1621 10.3575C13.7748 10.654 13.7011 11.2085 13.9976 11.5958C14.294 11.9833 14.8484 12.057 15.2358 11.7604Z" fill="#343EA8"/>
<path d="M42.0967 14.8717C42.474 14.5624 42.5291 14.0059 42.2199 13.6286C41.4482 12.6872 40.5935 11.8162 39.6668 11.0269C39.2954 10.7106 38.7378 10.7552 38.4216 11.1266C38.1052 11.498 38.1499 12.0555 38.5213 12.3718C39.3678 13.0929 40.1487 13.8885 40.8537 14.7485C41.1629 15.1258 41.7194 15.181 42.0967 14.8717Z" fill="#343EA8"/>
<path d="M44.3905 34.1522C43.9513 33.9399 43.4231 34.1237 43.2108 34.563C42.7268 35.5641 42.1534 36.5194 41.4983 37.4177C41.2108 37.8119 41.2974 38.3644 41.6916 38.6519C42.0857 38.9394 42.6383 38.8528 42.9258 38.4586C43.6431 37.4749 44.2712 36.4286 44.8013 35.332C45.0137 34.8927 44.8297 34.3645 44.3905 34.1522Z" fill="#343EA8"/>
<path d="M45.9332 25.6167C45.4454 25.6167 45.0499 26.0122 45.0499 26.5C45.0499 27.6219 44.9505 28.7307 44.7542 29.8176C44.6675 30.2977 44.9865 30.7571 45.4666 30.8437C45.9467 30.9304 46.4061 30.6114 46.4927 30.1313C46.7076 28.941 46.8165 27.7272 46.8165 26.4999C46.8166 26.0121 46.4211 25.6167 45.9332 25.6167Z" fill="#343EA8"/>
<path d="M14.7526 40.8569C13.8925 40.1523 13.0966 39.3717 12.3753 38.5253C12.0588 38.154 11.5013 38.1095 11.13 38.4259C10.7587 38.7424 10.7142 39.2999 11.0306 39.6712C11.8201 40.5977 12.6913 41.4521 13.6329 42.2235C14.0103 42.5327 14.5668 42.4773 14.876 42.1C15.1852 41.7226 15.1299 41.1661 14.7526 40.8569Z" fill="#343EA8"/>
<path d="M38.0429 41.022C37.173 41.7145 36.2426 42.3278 35.2632 42.8538C34.8334 43.0847 34.6721 43.6201 34.9029 44.0499C35.1337 44.4797 35.6692 44.641 36.099 44.4103C37.1717 43.8342 38.1905 43.1625 39.1431 42.4042C39.5247 42.1004 39.5879 41.5446 39.284 41.163C38.9803 40.7813 38.4246 40.7182 38.0429 41.022Z" fill="#343EA8"/>
<path d="M22.1919 44.5473C21.1078 44.2896 20.0528 43.9347 19.0374 43.4879C18.5908 43.2915 18.0696 43.4942 17.8731 43.9407C17.6767 44.3873 17.8793 44.9085 18.3259 45.105C19.4387 45.5946 20.5951 45.9835 21.7831 46.266C22.2577 46.3788 22.734 46.0856 22.8468 45.6109C22.9598 45.1364 22.6665 44.6602 22.1919 44.5473Z" fill="#343EA8"/>
<path d="M30.5223 44.6128C29.4433 44.8513 28.3395 44.9936 27.2203 45.0362C26.7328 45.0549 26.3527 45.4651 26.3713 45.9525C26.3898 46.44 26.8001 46.8201 27.2876 46.8016C28.5126 46.7548 29.7214 46.5991 30.9036 46.3378C31.38 46.2326 31.6808 45.761 31.5754 45.2847C31.47 44.8083 30.9986 44.5076 30.5223 44.6128Z" fill="#343EA8"/>
</g>
<defs>
<clipPath id="clip0_1_745">
<rect width="53" height="53" fill="white"/>
</clipPath>
</defs>
</svg>
