<svg width="53" height="53" viewBox="0 0 53 53" fill="none" xmlns="http://www.w3.org/2000/svg">
<path d="M37.1984 39.4006C36.2222 38.8864 33.8188 37.5244 32.7835 36.5473V33.8918C36.104 31.9933 38.3746 28.5871 39.1002 24.4177C40.9812 23.8792 42.6185 22.1137 42.6185 20.4897C42.6185 18.8457 41.3828 17.7549 39.3402 17.5289V9.01546L39.3386 8.96531C39.3328 8.87154 39.1782 6.64161 37.4808 4.41987C34.6897 0.766915 29.9689 0 26.5 0C23.031 0 18.3102 0.766915 15.5191 4.41987C13.8217 6.64161 13.6671 8.87144 13.6613 8.96531L13.6597 13.7765V17.5288C11.6171 17.7548 10.3814 18.8457 10.3814 20.4896C10.3814 22.1136 12.0187 23.8791 13.8997 24.4177C14.6261 28.5886 16.897 31.9946 20.2164 33.8918V36.5472C19.1805 37.5249 16.7749 38.8879 15.7999 39.4014C5.14707 42.8574 4.92196 49.1674 4.91759 49.4349L4.91748 53H48.0824V49.444C48.0809 49.1748 47.9234 42.8251 37.1984 39.4006ZM39.3402 19.1764C40.8009 19.3812 40.9793 20.1365 40.9793 20.4897C40.9793 21.1591 40.2551 22.0705 39.3111 22.5736C39.3291 22.2498 39.3402 19.1764 39.3402 19.1764ZM12.0206 20.4897C12.0206 20.1365 12.199 19.3812 13.6597 19.1764C13.6597 19.1764 13.6708 22.2498 13.6888 22.5736C12.7448 22.0704 12.0206 21.1591 12.0206 20.4897ZM15.2989 9.04639C15.3164 8.84707 15.5016 7.14287 16.8217 5.41518C18.7359 2.90954 21.9922 1.63918 26.5 1.63918C36.8905 1.63918 37.6588 8.53617 37.701 9.04562V13.4217C36.7821 13.0837 35.5154 12.3167 35.5154 10.6546V9.44405L26.5 13.0502L17.4845 9.44405V10.6546C17.4845 12.2646 16.2215 13.0452 15.2989 13.401V9.04639ZM15.433 23.6212C15.3441 22.9885 15.2989 22.3026 15.2989 21.5825V15.1341C16.66 14.743 18.4546 13.7379 18.9758 11.8061L26.5 14.8157L34.0183 11.8083C34.5315 13.786 36.3309 14.7764 37.701 15.1467V21.5825C37.701 22.3026 37.6559 22.9884 37.5667 23.6231C37.003 27.7044 34.8237 31.0048 31.5856 32.6795C30.0597 33.4736 28.3486 33.8763 26.5 33.8763C24.6513 33.8763 22.9402 33.4736 21.4125 32.6784C18.1763 31.0048 15.997 27.7044 15.433 23.6212ZM31.1443 34.674V36.5658C30.5837 37.1518 28.8071 38.7938 26.5 38.7938C24.2076 38.7938 22.4188 37.1486 21.8556 36.5641V34.6738C23.2961 35.2321 24.8525 35.5156 26.5 35.5156C28.1478 35.5156 29.7044 35.232 31.1443 34.674ZM46.4433 51.3608H6.55666V49.4584C6.56278 49.2928 6.85968 44.0021 16.3697 40.9399C16.3697 40.9399 19.4798 39.3139 21.0083 38.0331C21.5378 38.5318 22.3935 39.2254 23.4948 39.7387V49.7216H28.6855V48.0825H25.134V40.2902C25.5673 40.3808 26.0235 40.433 26.5 40.433C29.065 40.433 31.0468 38.9228 31.9916 38.0331C33.5201 39.3139 36.6339 40.941 36.6339 40.941C39.4158 41.8222 43.1601 43.4825 45.2009 46.387C46.3721 48.054 46.4405 49.3876 46.4433 49.4573V51.3608Z" fill="#343EA8"/>
<path d="M26.5 26.7732H28.6856V25.134H27.3196V21.5825H25.6804V25.9536C25.6804 26.4063 26.0474 26.7732 26.5 26.7732Z" fill="#343EA8"/>
<path d="M28.1392 42.0722H25.9536V43.7113H28.1392V42.0722Z" fill="#343EA8"/>
<path d="M28.1392 44.8041H25.9536V46.4433H28.1392V44.8041Z" fill="#343EA8"/>
</svg>
