<svg width="56" height="56" viewBox="0 0 56 56" fill="none" xmlns="http://www.w3.org/2000/svg">
<path d="M55.2293 40.6835L53.8587 40.4206C53.2161 40.2972 52.7102 39.8768 52.471 39.2665C52.2309 38.6571 52.3163 38.005 52.7036 37.4773L53.5645 36.3041C53.8416 35.9264 53.8017 35.4025 53.4695 35.0712L51.6102 33.2128C51.2884 32.891 50.7825 32.8445 50.4066 33.0979L49.2515 33.88C48.7095 34.2483 48.0546 34.3081 47.4529 34.0461C46.853 33.7851 46.4515 33.2631 46.3519 32.6148L46.1307 31.1768C46.0605 30.7146 45.6618 30.3729 45.1939 30.3729H42.5647C42.1101 30.3729 41.7181 30.6966 41.6327 31.1436L41.2929 32.9138C41.1723 33.5421 40.7632 34.0433 40.1719 34.2881C39.5787 34.5349 38.9371 34.4675 38.4065 34.1088L36.9144 33.0989C36.5386 32.8454 36.0327 32.8919 35.7109 33.2137L33.8515 35.0721C33.5193 35.4034 33.4794 35.9264 33.7566 36.3051L34.6175 37.4783C35.0047 38.006 35.0902 38.658 34.85 39.2674C34.6108 39.8777 34.1049 40.2982 33.4624 40.4216L32.0918 40.6845C31.6457 40.7699 31.322 41.161 31.322 41.6166V44.2457C31.322 44.7136 31.6637 45.1123 32.1269 45.1835L33.5649 45.4046C34.2131 45.5043 34.7342 45.9058 34.9962 46.5056C35.2582 47.1065 35.1974 47.7614 34.8301 48.3043L34.048 49.4594C33.7927 49.8353 33.8411 50.3412 34.1628 50.6629L36.0213 52.5223C36.3516 52.8536 36.8746 52.8934 37.2542 52.6172L38.4274 51.7564C38.9551 51.37 39.6091 51.2827 40.2165 51.5238C40.8268 51.763 41.2473 52.2689 41.3707 52.9115L41.6336 54.282C41.719 54.7272 42.1101 55.0509 42.5657 55.0509H45.1948C45.6628 55.0509 46.0614 54.7092 46.1326 54.246L46.2883 53.2351C46.3879 52.5821 46.8122 52.043 47.4206 51.7905C48.0319 51.538 48.7114 51.6206 49.2439 52.0107L50.0687 52.6163C50.4474 52.8944 50.9714 52.8536 51.3017 52.5214L53.1601 50.662C53.4819 50.3402 53.5303 49.8353 53.275 49.4585L52.4929 48.3033C52.1255 47.7614 52.0648 47.1055 52.3268 46.5047C52.5878 45.9048 53.1098 45.5033 53.7581 45.4037L55.1961 45.1825C55.6583 45.1113 56 44.7127 56 44.2448V41.6156C56 41.161 55.6763 40.7699 55.2293 40.6835ZM54.1017 43.4313L53.4686 43.5291C52.1834 43.7265 51.1062 44.5561 50.587 45.7473C50.0668 46.9394 50.1921 48.2929 50.9211 49.3683L51.2637 49.8742L50.5348 50.6031L50.3668 50.4797C49.2942 49.6948 47.9227 49.5296 46.6945 50.0365C45.4663 50.5452 44.614 51.633 44.4118 52.9456L44.3805 53.1526H43.3497L43.2348 52.5517C42.989 51.2742 42.1196 50.2292 40.9104 49.7546C39.6992 49.28 38.3514 49.4566 37.3036 50.2235L36.7872 50.6022L36.0583 49.8732L36.4009 49.3673C37.1299 48.291 37.2542 46.9375 36.735 45.7463C36.2159 44.5551 35.1376 43.7256 33.8534 43.5281L33.2203 43.4313V42.4006L33.8211 42.2857C35.0987 42.0399 36.1437 41.1705 36.6183 39.9612C37.0929 38.7511 36.9173 37.4033 36.1494 36.3545L35.7707 35.8381L36.4997 35.1092L37.3434 35.6806C38.3951 36.3943 39.7268 36.5281 40.8999 36.0422C42.074 35.5553 42.9188 34.5197 43.1589 33.2716L43.3497 32.2712H44.3805L44.4782 32.9043C44.6756 34.1894 45.5052 35.2667 46.6964 35.7859C47.8876 36.306 49.242 36.1808 50.3174 35.4518L50.8233 35.1092L51.5523 35.8381L51.1735 36.3545C50.4047 37.4023 50.2301 38.7501 50.7047 39.9612C51.1792 41.1705 52.2252 42.0399 53.5018 42.2857L54.1017 42.4006V43.4313Z" fill="#343EA8"/>
<path d="M43.661 37.9661C41.0442 37.9661 38.9153 40.095 38.9153 42.7119C38.9153 45.3287 41.0442 47.4576 43.661 47.4576C46.2779 47.4576 48.4068 45.3287 48.4068 42.7119C48.4068 40.095 46.2779 37.9661 43.661 37.9661ZM43.661 45.5593C42.0911 45.5593 40.8136 44.2818 40.8136 42.7119C40.8136 41.142 42.0911 39.8644 43.661 39.8644C45.2309 39.8644 46.5085 41.142 46.5085 42.7119C46.5085 44.2818 45.2309 45.5593 43.661 45.5593Z" fill="#343EA8"/>
<path d="M29.1428 30.6377C28.9245 30.3605 28.1196 29.2975 27.3384 27.7437L27.2948 27.6564C27.29 27.6479 27.2862 27.6384 27.2815 27.6298C27.178 27.422 27.0765 27.2018 26.974 26.974L26.9265 26.8667C26.8734 26.7462 26.8202 26.6218 26.7671 26.4918C26.749 26.4472 26.731 26.4026 26.7129 26.357C26.6626 26.2317 26.6123 26.1045 26.5582 25.9584C26.4605 25.7002 26.3713 25.4306 26.2839 25.1544L26.2156 24.9304C26.1264 24.6362 26.0438 24.3353 25.9717 24.025C25.9707 24.0183 25.9679 24.0126 25.9669 24.006L25.9508 23.9367L25.8815 23.6301L25.5569 23.4203C25.0064 23.0663 24.678 22.4721 24.678 21.8305V18.0339C24.678 17.5014 24.9039 17.0041 25.3139 16.6339L25.6271 16.352V10.4407V10.1047L25.6015 10.0848C25.5683 9.40041 25.61 7.29899 27.142 5.55065C28.7147 3.75675 31.3989 2.84746 35.1186 2.84746C38.8251 2.84746 41.5036 3.75011 43.0782 5.53167C44.9262 7.62075 44.6216 10.2936 44.6187 10.3163L44.6102 16.352L44.9234 16.6349C45.3334 17.0041 45.5593 17.5014 45.5593 18.0339V21.8305C45.5593 22.6591 45.0174 23.3843 44.2096 23.633C43.7094 23.7867 43.4285 24.3192 43.5832 24.8194C43.7369 25.3196 44.2656 25.5986 44.7696 25.4458C46.3775 24.9504 47.4576 23.4972 47.4576 21.8305V18.0339C47.4576 17.1199 47.1169 16.2334 46.5085 15.5424V10.4938C46.5626 9.9718 46.7704 6.86428 44.5228 4.30062C42.5733 2.07675 39.4098 0.949158 35.1186 0.949158C30.8275 0.949158 27.664 2.07675 25.7144 4.29967C24.3524 5.85343 23.8949 7.60367 23.7554 8.86034C22.1276 8.01939 20.2113 7.59323 18.0339 7.59323C8.17315 7.59323 7.59986 15.998 7.59322 16.1356V20.4818C6.97817 21.1528 6.64407 21.9254 6.64407 22.6933V25.9717C6.64407 26.9958 7.10251 27.9506 7.88841 28.5961C8.67051 31.5479 10.5973 33.7784 11.3471 34.5615V37.165C11.3471 37.912 10.9399 38.5973 10.2357 38.9826L3.92285 42.9435C1.50251 44.2628 0 46.7942 0 49.5486V53.1525H13.2881H15.1864H25.6271C26.152 53.1525 26.5763 52.7283 26.5763 52.2034C26.5763 51.6785 26.152 51.2542 25.6271 51.2542H15.1864V49.13C15.1864 46.6898 16.5172 44.4469 18.6584 43.2795L27.1277 38.6609C28.5439 37.8873 29.4237 36.4038 29.4237 34.7912V30.9765L29.2035 30.7127C29.2007 30.7108 29.1769 30.6804 29.1428 30.6377ZM27.5254 34.7912C27.5254 35.71 27.0243 36.5528 26.2184 36.9932L23.707 38.3629L23.091 38.6989L17.7501 41.6118C14.9976 43.1134 13.2881 45.9931 13.2881 49.1291V51.2542H1.89831V49.5486C1.89831 47.489 3.0221 45.5963 4.88054 44.5817L11.1934 40.6209C12.4586 39.9309 13.2445 38.6077 13.2445 37.165L13.2435 33.7576L12.9445 33.4757C12.9189 33.4529 10.3932 31.0496 9.65193 27.8225L9.56556 27.4466L9.24095 27.2378C8.80339 26.955 8.54237 26.4814 8.54237 25.9717V22.6933C8.54237 22.3525 8.77397 21.9454 9.17925 21.579L9.49153 21.2971L9.48963 16.1916C9.50766 15.9182 10.0003 9.49153 18.0339 9.49153C20.3062 9.49153 22.2187 10.0164 23.7288 11.0519V15.5424C23.1204 16.2334 22.7797 17.1199 22.7797 18.0339V21.8305C22.7797 22.5101 22.9799 23.1527 23.3121 23.7212C23.5447 24.1189 23.8313 24.4853 24.2005 24.7814C24.2072 24.8061 24.2148 24.8289 24.2214 24.8526C24.2765 25.0624 24.3334 25.2693 24.3942 25.4686L24.4729 25.7268C24.4881 25.7742 24.5043 25.8236 24.5204 25.8711C24.5517 25.9679 24.5821 26.0637 24.6153 26.1586C24.6723 26.3266 24.733 26.4994 24.8033 26.6873C24.8317 26.7623 24.8621 26.8278 24.8906 26.9009C24.9713 27.1078 25.0529 27.3081 25.1383 27.5055C25.1544 27.5425 25.1696 27.5852 25.1858 27.6222L25.2427 27.7513C25.2683 27.8092 25.2949 27.8605 25.3215 27.9174C25.4107 28.112 25.499 28.3018 25.5892 28.485C25.6062 28.5192 25.6224 28.5581 25.6395 28.5923L25.7106 28.7309C25.7287 28.766 25.7458 28.7935 25.7638 28.8277C25.9176 29.1238 26.0685 29.401 26.2184 29.6601C26.2384 29.6952 26.2583 29.7303 26.2782 29.7654C26.4405 30.0426 26.5962 30.297 26.7443 30.5257C26.7509 30.5361 26.7585 30.5475 26.7652 30.5589C27.0784 31.042 27.3498 31.4208 27.5264 31.6514V34.7912H27.5254Z" fill="#343EA8"/>
</svg>
