<svg width="53" height="53" viewBox="0 0 53 53" fill="none" xmlns="http://www.w3.org/2000/svg">
<g clip-path="url(#clip0_1_776)">
<path d="M45.2384 7.76165C40.2331 2.75647 33.5785 0 26.5 0C19.4215 0 12.7669 2.75647 7.76165 7.76165C2.75647 12.7668 0 19.4215 0 26.5C0 33.5785 2.75647 40.2331 7.76165 45.2384C12.7669 50.2435 19.4215 53 26.5 53C33.5785 53 40.2331 50.2435 45.2384 45.2384C50.2435 40.2331 53 33.5785 53 26.5C53 19.4215 50.2435 12.7668 45.2384 7.76165ZM26.5 51.2527C12.8513 51.2527 1.74725 40.1487 1.74725 26.5C1.74725 12.8513 12.8513 1.74725 26.5 1.74725C40.1487 1.74725 51.2527 12.8513 51.2527 26.5C51.2527 40.1487 40.1487 51.2527 26.5 51.2527Z" fill="#343EA8"/>
<path d="M47.5801 33.491C45.4741 32.5283 42.8892 31.7395 39.9757 31.148C40.1149 29.6251 40.1869 28.0701 40.1869 26.5C40.1869 24.9299 40.1149 23.3749 39.9757 21.8518C42.8892 21.2605 45.4741 20.4716 47.5801 19.5089C48.0189 19.3083 48.212 18.79 48.0114 18.3512C47.8107 17.9124 47.2927 17.7192 46.8537 17.9198C44.9269 18.8006 42.5131 19.5358 39.7828 20.0973C39.4127 17.1976 38.7962 14.4427 37.9637 11.9556C39.0377 11.4391 40.0808 10.8492 41.0851 10.1857C41.4877 9.91974 41.5984 9.37774 41.3325 8.97517C41.0666 8.57261 40.5245 8.46183 40.122 8.72776C39.2328 9.31519 38.3113 9.84169 37.3632 10.3059C36.6014 8.37086 35.7009 6.63292 34.6764 5.16348C34.4006 4.76779 33.856 4.67041 33.4602 4.94636C33.0645 5.22231 32.9672 5.76675 33.2432 6.16256C34.2063 7.54417 35.0535 9.18461 35.7704 11.0164C33.1112 12.0918 30.2759 12.6965 27.3738 12.7976V4.36813C27.3738 3.88566 26.9828 3.49451 26.5002 3.49451C26.0176 3.49451 25.6266 3.88566 25.6266 4.36813V12.7977C22.7245 12.6966 19.8892 12.0919 17.23 11.0165C17.9469 9.18473 18.7941 7.54441 19.7572 6.16268C20.0331 5.76687 19.9359 5.22231 19.5402 4.94647C19.1443 4.67052 18.5998 4.76779 18.324 5.1636C17.2996 6.63304 16.399 8.37086 15.6372 10.306C14.6891 9.84193 13.7676 9.31542 12.8784 8.72788C12.4759 8.46195 11.9339 8.57272 11.6679 8.97529C11.4019 9.37786 11.5127 9.91985 11.9153 10.1858C12.9196 10.8493 13.9627 11.4394 15.0367 11.9558C14.2042 14.4429 13.5876 17.1977 13.2176 20.0974C10.4873 19.5359 8.07343 18.8007 6.14667 17.9199C5.70788 17.7194 5.18941 17.9125 4.98894 18.3513C4.78847 18.7901 4.9816 19.3084 5.42028 19.509C7.5263 20.4717 10.1112 21.2605 13.0247 21.852C12.8852 23.3749 12.8133 24.9299 12.8133 26.5C12.8133 28.0701 12.8852 29.6251 13.0244 31.1482C10.111 31.7395 7.52607 32.5284 5.42005 33.4911C4.98125 33.6917 4.78812 34.21 4.98871 34.6488C5.18941 35.0876 5.70765 35.2809 6.14644 35.0802C8.07319 34.1994 10.4871 33.4642 13.2173 32.9028C13.5874 35.8024 14.204 38.5573 15.0365 41.0444C13.9625 41.5609 12.9195 42.1508 11.9151 42.8143C11.5125 43.0803 11.4017 43.6223 11.6676 44.0248C11.9335 44.4274 12.4756 44.5382 12.8781 44.2722C13.7674 43.6848 14.6889 43.1583 15.6369 42.6941C16.3987 44.6293 17.2993 46.3671 18.3237 47.8365C18.4936 48.0801 18.7651 48.2105 19.0412 48.2105C19.2134 48.2105 19.3878 48.1596 19.5399 48.0535C19.9356 47.7776 20.0329 47.2331 19.757 46.8372C18.7939 45.4555 17.9467 43.8152 17.2297 41.9833C19.8889 40.908 22.7243 40.3033 25.6263 40.2022V48.6319C25.6263 49.1143 26.0174 49.5055 26.5 49.5055C26.9825 49.5055 27.3736 49.1143 27.3736 48.6319V40.2023C30.2756 40.3034 33.111 40.9081 35.7702 41.9835C35.0532 43.8153 34.206 45.4556 33.2429 46.8373C32.967 47.2331 33.0643 47.7777 33.46 48.0536C33.6122 48.1598 33.7863 48.2107 33.9587 48.2107C34.2348 48.2107 34.5063 48.0802 34.6762 47.8366C35.7005 46.3672 36.6012 44.6293 37.363 42.6942C38.311 43.1583 39.2325 43.6848 40.1218 44.2724C40.2699 44.3703 40.4372 44.4171 40.6025 44.4171C40.8861 44.4171 41.1642 44.2792 41.3323 44.0249C41.5982 43.6224 41.4874 43.0804 41.0849 42.8145C40.0804 42.151 39.0374 41.561 37.9634 41.0445C38.796 38.5573 39.4125 35.8025 39.7826 32.9029C42.5128 33.4643 44.9267 34.1996 46.8535 35.0803C46.9712 35.1341 47.0946 35.1596 47.2161 35.1596C47.5475 35.1596 47.8644 34.9701 48.0112 34.649C48.212 34.2099 48.0188 33.6916 47.5801 33.491ZM38.4396 26.5C38.4396 27.9627 38.3749 29.4096 38.2509 30.827C34.9226 30.2636 31.2322 29.9445 27.3737 29.9026V23.0975C31.2322 23.0556 34.9226 22.7364 38.2509 22.1731C38.3749 23.5904 38.4396 25.0373 38.4396 26.5ZM36.3626 12.6619C37.1426 15.0273 37.72 17.6518 38.0651 20.42C34.7876 20.9817 31.1384 21.3061 27.3737 21.3497V14.5454C30.4794 14.4444 33.5146 13.8052 36.3626 12.6619ZM16.6375 12.6619C19.4855 13.8052 22.5208 14.4443 25.6264 14.5455V21.3498C21.8617 21.3062 18.2125 20.9818 14.935 20.4201C15.2803 17.6518 15.8577 15.0273 16.6375 12.6619ZM14.5605 26.5C14.5605 25.0373 14.6253 23.5904 14.7492 22.173C18.0775 22.7364 21.7679 23.0555 25.6264 23.0974V29.9025C21.7679 29.9444 18.0775 30.2636 14.7492 30.8269C14.6253 29.4096 14.5605 27.9627 14.5605 26.5ZM16.6376 40.3381C15.8577 37.9727 15.2803 35.3482 14.935 32.58C18.2125 32.0183 21.8617 31.6939 25.6264 31.6503V38.4546C22.5208 38.5556 19.4855 39.1948 16.6376 40.3381ZM36.3625 40.3381C33.5146 39.1948 30.4793 38.5557 27.3737 38.4545V31.6502C31.1384 31.6938 34.7876 32.0182 38.0651 32.5799C37.7199 35.3482 37.1425 37.9727 36.3625 40.3381Z" fill="#343EA8"/>
</g>
<defs>
<clipPath id="clip0_1_776">
<rect width="53" height="53" fill="white"/>
</clipPath>
</defs>
</svg>
