<svg width="52" height="52" viewBox="0 0 52 52" fill="none" xmlns="http://www.w3.org/2000/svg">
<path d="M51.037 10.1111H22.6633L19.0975 4.76185C18.9184 4.49414 18.6179 4.33333 18.2963 4.33333H0.962963C0.431407 4.33333 0 4.76377 0 5.29629V11.0741V14.9259V42.8547C0 45.5087 2.15704 47.6667 4.80904 47.6667H47.191C49.843 47.6667 52 45.5087 52 42.8547V14.9259V11.0741C52 10.5416 51.5686 10.1111 51.037 10.1111ZM50.0741 13.963H1.92593V12.037H22.1481H50.0741V13.963ZM1.92593 6.25925H17.7811L20.3493 10.1111H1.92593V6.25925ZM50.0741 42.8547C50.0741 44.4455 48.7808 45.7407 47.191 45.7407H4.80904C3.21919 45.7407 1.92593 44.4455 1.92593 42.8547V15.8889H50.0741V42.8547Z" fill="#343EA8"/>
<path d="M15.4075 35.1481C16.4899 35.1481 17.4644 34.6965 18.1654 33.9762L27.9607 38.661C27.9501 38.7747 27.926 38.8835 27.926 39C27.926 41.1243 29.6536 42.8519 31.7779 42.8519C33.9022 42.8519 35.6297 41.1243 35.6297 39C35.6297 37.5806 34.8497 36.3519 33.7038 35.6836L34.5724 28.2996C36.2778 27.9038 37.5557 26.3804 37.5557 24.5556C37.5557 22.4313 35.8281 20.7037 33.7038 20.7037C31.644 20.7037 29.9714 22.3321 29.8712 24.3678L18.3243 28.809C17.6175 27.9808 16.5794 27.4444 15.4075 27.4444C13.2832 27.4444 11.5557 29.172 11.5557 31.2963C11.5557 33.4206 13.2832 35.1481 15.4075 35.1481ZM31.7779 40.9259C30.7157 40.9259 29.852 40.0621 29.852 39C29.852 37.9379 30.7157 37.0741 31.7779 37.0741C32.84 37.0741 33.7038 37.9379 33.7038 39C33.7038 40.0621 32.84 40.9259 31.7779 40.9259ZM33.7038 22.6296C34.766 22.6296 35.6297 23.4934 35.6297 24.5556C35.6297 25.6177 34.766 26.4815 33.7038 26.4815C32.6417 26.4815 31.7779 25.6177 31.7779 24.5556C31.7779 23.4934 32.6417 22.6296 33.7038 22.6296ZM30.2757 26.2764C30.7533 27.2239 31.6046 27.9394 32.6407 28.2399L31.827 35.1539C31.8106 35.1539 31.7943 35.1491 31.7779 35.1491C30.4586 35.1491 29.2934 35.8174 28.5991 36.8314L19.112 32.2939C19.1987 31.9733 19.2594 31.643 19.2594 31.2963C19.2594 31.0382 19.2314 30.7869 19.1833 30.5433L30.2757 26.2764ZM15.4075 29.3704C16.4697 29.3704 17.3334 30.2341 17.3334 31.2963C17.3334 31.5486 17.2814 31.7893 17.1928 32.0108C17.0927 32.0956 17.007 32.1996 16.9463 32.3257C16.9203 32.3806 16.9194 32.4384 16.904 32.4952C16.5506 32.9343 16.0142 33.2222 15.4075 33.2222C14.3454 33.2222 13.4816 32.3584 13.4816 31.2963C13.4816 30.2341 14.3454 29.3704 15.4075 29.3704Z" fill="#343EA8"/>
</svg>
